/* XPM */
static char *result[] = {
/* columns rows colors chars-per-pixel */
"64 64 253 2 ",
"   c #010102",
".  c #050903",
"X  c #0B0C04",
"o  c #02010B",
"O  c #09040C",
"+  c #0C0B0B",
"@  c #080707",
"#  c #010113",
"$  c #050915",
"%  c #0B0C13",
"&  c #02021C",
"*  c #0A0C1C",
"=  c #070819",
"-  c #130E19",
";  c #0D1213",
":  c #0E101A",
">  c #13121C",
",  c #171819",
"<  c #0F0F0B",
"1  c #010223",
"2  c #0A0C25",
"3  c #01022C",
"4  c #070A2B",
"5  c #141524",
"6  c #1A1927",
"7  c #010234",
"8  c #030A33",
"9  c #01023B",
"0  c #040B3C",
"q  c #0B0D3C",
"w  c #0C0C35",
"e  c #0E1237",
"r  c #161738",
"t  c #100E32",
"y  c #251B2C",
"u  c #1D2027",
"i  c #1D2239",
"p  c #242629",
"a  c #292D39",
"s  c #000243",
"d  c #020B44",
"f  c #0A0C43",
"g  c #01054A",
"h  c #020C4B",
"j  c #0B0C4A",
"k  c #031245",
"l  c #02114E",
"z  c #0B134C",
"x  c #0A1548",
"c  c #121445",
"v  c #141A4B",
"b  c #17194B",
"n  c #020D52",
"m  c #090C51",
"M  c #030852",
"N  c #021454",
"B  c #0B1455",
"V  c #021956",
"C  c #02155A",
"Z  c #0A155A",
"A  c #011C5C",
"S  c #0B1C5C",
"D  c #0C1954",
"F  c #131B55",
"G  c #121C5D",
"H  c #171957",
"J  c #120D4D",
"K  c #211E4D",
"L  c #02215D",
"P  c #08235D",
"I  c #1A2559",
"U  c #1D234A",
"Y  c #25264A",
"T  c #37364A",
"R  c #262859",
"E  c #2D3158",
"W  c #37375A",
"Q  c #2F304D",
"!  c #011E61",
"~  c #0A1D62",
"^  c #021A64",
"/  c #121E64",
"(  c #022262",
")  c #0B2364",
"_  c #0C2A65",
"`  c #03236A",
"'  c #0B2669",
"]  c #0C2A6B",
"[  c #062969",
"{  c #132364",
"}  c #1B2464",
"|  c #14256A",
" . c #1B256A",
".. c #132B6B",
"X. c #1A2B67",
"o. c #15326D",
"O. c #122D71",
"+. c #1B2C71",
"@. c #153374",
"#. c #1B3473",
"$. c #1C3B7B",
"%. c #1B3878",
"&. c #0D2971",
"*. c #232B64",
"=. c #252B69",
"-. c #29356A",
";. c #363968",
":. c #262E74",
">. c #243372",
",. c #2B3575",
"<. c #263979",
"1. c #353C75",
"2. c #363B76",
"3. c #423F55",
"4. c #423E77",
"5. c #3E4167",
"6. c #2A437C",
"7. c #3C447B",
"8. c #39467B",
"9. c #424458",
"0. c #464669",
"q. c #4A5066",
"w. c #545665",
"e. c #464979",
"r. c #4C5279",
"t. c #575879",
"y. c #534F77",
"u. c #5B6373",
"i. c #616377",
"p. c #233D81",
"a. c #353B83",
"s. c #294586",
"d. c #3C4A84",
"f. c #344C8C",
"g. c #384585",
"h. c #3B5289",
"j. c #3A5596",
"k. c #364B90",
"l. c #454B84",
"z. c #434D8B",
"x. c #484885",
"c. c #495588",
"v. c #5A5B8D",
"b. c #565887",
"n. c #445C9C",
"m. c #485696",
"M. c #545B9C",
"N. c #575B94",
"B. c #454E93",
"V. c #625E87",
"C. c #625D95",
"Z. c #57629A",
"A. c #516395",
"S. c #66668A",
"D. c #6D7289",
"F. c #74758A",
"G. c #676898",
"H. c #6C7198",
"J. c #74759A",
"K. c #726F8F",
"L. c #515EA1",
"P. c #4864A6",
"I. c #5C62A3",
"U. c #5769A8",
"Y. c #586DB3",
"T. c #5975B5",
"R. c #5770A9",
"E. c #646DAB",
"W. c #686AA5",
"Q. c #716EA6",
"!. c #6973A9",
"~. c #7374AC",
"^. c #737AAB",
"/. c #7B7CAC",
"(. c #7877A4",
"). c #646EB2",
"_. c #6473B3",
"`. c #6B74B3",
"'. c #6A79B9",
"]. c #7A7DB4",
"[. c #7D7EBC",
"{. c #7479B6",
"}. c #716EB3",
"|. c #777DC3",
" X c #817F9A",
".X c #807EB6",
"XX c #847FC1",
"oX c #7B83AA",
"OX c #7C84BB",
"+X c #7985B9",
"@X c #6B81BD",
"#X c #6983C4",
"$X c #7383C2",
"%X c #7A87C5",
"&X c #7D97D4",
"*X c #5F83C1",
"=X c #8686AB",
"-X c #9496AD",
";X c #8584B2",
":X c #8384BC",
">X c #858ABC",
",X c #8A8BB7",
"<X c #8D94BB",
"1X c #9697B8",
"2X c #928EB2",
"3X c #999AB4",
"4X c #8485C4",
"5X c #848BC3",
"6X c #8B8CC3",
"7X c #848BCB",
"8X c #8B8CCA",
"9X c #8686C6",
"0X c #918ECA",
"qX c #8C93CC",
"wX c #8995C8",
"eX c #9393CA",
"rX c #949ACB",
"tX c #9799C6",
"yX c #8A97D4",
"uX c #979AD6",
"iX c #898DD3",
"pX c #A19ECE",
"aX c #9AA1CA",
"sX c #9DA3DB",
"dX c #9BA8DA",
"fX c #A6A9CA",
"gX c #A3A4DB",
"hX c #A7A9D7",
"jX c #ABB4DB",
"kX c #B3B4DC",
"lX c #B6BBDA",
"zX c #B3B0D5",
"xX c #9B9DE3",
"cX c #9BA6E3",
"vX c #98B7F7",
"bX c #8DACEB",
"nX c #A4ABE3",
"mX c #A7AAE7",
"MX c #ABB5E7",
"NX c #B7B8E6",
"BX c #AEBBF6",
"VX c #B9BAF6",
"CX c #AEADE8",
"ZX c #C0BFDF",
"AX c #B9C2DA",
"SX c #BCC3E8",
"DX c #BBC5F7",
"FX c #A5C4FF",
"GX c #C3C5EA",
"HX c #C8C8F8",
"JX c #D2D7F9",
"KX c #CED6F9",
"LX c #DCE6FF",
/* pixels */
"          o o o o $ o   + .         @   , - o # & & t  X=XaXGXNXSXGXjX,X=X0.& # o o o + ;     X           o o o o o             ",
"            o o o o o         .   + O   o T K. X1XfXfXhXhXNXGXNXaXNXSXtXfXlXfXfXF.D.w.o o   ,   + .         o o o o o         . ",
"                  o     @ o .   = o O 3.S. XfX3XzXNXNXCXGXVXkXCXdXCXhXjXhXSXGXGXZX3X-XK.w.o o o       O % - %                   ",
"                + @ o o     $ * Q 3.t. XzXHXGX0XuX0XpXuXgXnXDXCXnXuXMX6XrXaXhXkXGXGXZXZX2XK.q.W 6 % o     o                     ",
"                      $ 5 5 * # b.1XHXhXpXuXxXVXmX0XXXiXXXmXyX9 CXeX7 8X6X~.4XgXNXNXkXZXzXHXzXJ.# # 6 6     . .                 ",
"o                 < ; o o r t.3XgX0X0X0XxXXX.XXXuXxXiXxXM.XXVX[.`.8XxX4.e.x.G.6XmX9X0XCXNXCXCXgXlXK.Q : o O . .             O   ",
"o   o         . . .   * u.=XaXlXxX9XI.XXI.W.iXiXxXuX}.BX|.}.}.mX2.}.HXN.=.=.2.x.0X8XuX8XQ..XCXVXGXkXfXF.6   < < .     @       O ",
"o o         .   . ; ; 3.1XlXtXrXiXB.g XXM.x.|.'.xX|.:.iXxXW.h [.l.6XnXeXe.2.B.e.Q.{.}..X2.M.[.xXhXNXJXZXu.u @             O o O ",
"o >         .   ; ; . AXaXaXdX+XM.s >.`.U.=.B.7X .I.cX9 yX^.P dX*.+XMXoXwX^.+X{.%Xc.,.OXOX7X$XcXdXAXDXAXAXw.; p   X       O O   ",
"o o o o <     , . w.fXfXAXrX8XyXA.9 G '.M. .9 >.$XcXqX*.I H.dXrXNXMXOXc.8 +XDXMXA.7 2.MXd.8.+X7XyXvXLXMXAXAXoX. <         O O O ",
"  O       ; p   u.-XAXoX~.8Xx.I.6.X.Z.`.>.P.%Xl E.@XR.7 c.wXKXdXaXwXb.7 R.dXBX+X!.X.s._.P -.n.h.bXyXbXAXoXAXAXw.O ; ,   -   O O ",
"O O O O o   $ 9.3XGXoXR G.7Xs ,.V d.@X_ N _.BXZ 9 h k h.wXnXdXdXwX8.X.k dXMX+Xk _.h.d 9 L h.%.V yXT.A.*Xu.oXAXAXi.a   o + +   O ",
"<   O   = y = zXlXG.3 4XcXyXM ).P.P 6.<.s >.j.^ +.h g.MXE.A.wX-.h.%.6.-.k k _ P P P P o.N l [ n.bXn.L A.R.c.oXKXSXq.5 > o   +   ",
"  O   o # 3.2XzXhXgXBX|.I._.|.s %X#Xk h.%.C M Y.$Xn.{ n.`.7.7 -.6.6.%.S #.( A ..A k A @.' L @.P.vXvXR.P A.+XdXjXAXaXD.* >       ",
"  X   y O 3.HXhX:XuXCXE.a./ k.|.T.T.| s.) %.Y.P.L.n.'.s #XvX&X8.6.O.S ' ' O.( n L [ A n ( ( ! p.*XFXbX( $.@XyXwXAXLX3Xo 6 + .   ",
"    O   3.=XzXhX6X{.I.g M a.k.yXn.h T.n | T.|.p.M k.).A '.xXcX,.( N ' ^ &.N ` ` ( ` ` ^ ` ` ` ` d *XbXs.k P.R.f.dXSXfX9.6   <   ",
"X   - # 2XHXVXgXeXE.D *.9 Z.wXh 9 m.$XS _.).g ) S A N p.s.C ' s.` ` A ( O.` C ( A ( [ [ V [ ( N P %.h.f.] N s.&XyXMXMXjXa o   , ",
"<   p 5 J.HXgXHXuXZ.7 9 +X+X,._.+XY. .S g.s.h h U.m.p.s.p.@.' ! L ( L O.s.@.L C ` @.p.$.' ` ' [ P V L @.@.N [ P.R.%XDXAX2 $ y O ",
"      F.fXgX0XCXsXmXwXX.c.'.U._.I.m.S | N N #.n.Y.P.k.#.' ..) C 6.@.L ` @.O.( ( [ $.f.$.@.( ( V P o.$.l V P.T.@.s.+XjXfX X3.O , ",
"X + > zXkXeX.XXXmXnX5X-.h d.%Xl 9 g S S | >.j.|.j.' ..[ C ! A ` f.$.A V ( ( ` @.s.j.#XT.j.%.] C V o.$.o.C j.T.$.n.&XaXaXJXF.O , ",
"X u % fXNXpXXXj qX4Xd d R.{._.g.{ ) P _ <.j.'.&Xs.N N ( [ ] A ( [ ` C A [ ( ] 6.j.*XvXFXP.s.s.[ _ $.%.j.L $.O...@X&XrX<XGXi.O - ",
"  a = fXGX0X8Xs uXuX9 s `.{.l { P S ..'.s.P 6.@.o.A L ( [ ] ( L A ! A L ` L ( $.s.T.bXvXP.s.@.( 0 P o.$.l &XvXf.h.yXrX>XJXS.= y ",
"o Q -XzXtX:Xx.iXmXOXF c.OX{.h / { ..<.U.<.N _ h N [ ` L A L ( ( ' ' ( A ( C L &.s.n.T.T.j.p.o.A o.L L P s Y.#X.._ +XdX,XfXfXi.= ",
"  q.GXhX>X}.9 8XnXsXg.%XdXE.g  .V #.f.d A P ) [ L @.V V ( C ` L ` ( A ( ] [ ( [ @.s.s.&.%.( A ` V o.V L ' N s ] n.R.`.;XpXNX1X1 ",
"# t.kXhXsXW.2.9 uXBXmXMXE.s N  .6.#.9 N N l L ( V ( ] [ C V A [ C L A ( ( ( A A ( O.$.$.] ` ( ` _ A ( [ A ) ..) $XB.F I tXSX<X1 ",
"& q.SXhXgXxXxXXXx.X.,.2.F G =.Z P h N V N d N o.A ( ( ( ( ( ` [ ( L ( ( ( ( ! ! ( ' @.@.[ L ! ( L A A ! A ! ^ A g.d g.OX7 hXtXq ",
"& V.MXwXxX8Xm.|.E.l.8.D h / M ~ h s P h V N N [ ( A A A A ( L L ' [ ( ( A ( ( ( L ( ( ( ( L A A V A A ! ` ! ~ ~ h '.yXz.].dXMX(.",
"5.oXtXW.}.M.,.|.%XZ.l.} F m s / h N ) h V ) S N ) ( L L ! A A C O.] ` L ! L ( ` ` L C A A ` ( A A ` ( [ O.| ~ ~ N Y.E.d yXOX5XsX",
"S.aXMXqXB.a.|.iXl.d j } h 9 M M h P B S N N ~ ) ) ) ) ) ! ! ) ` o.' ` ! A ! ( ` ' ( C C L ) ` ( V ` ( [ O.| ~ ' +.Z 9 =.-.9 {.wX",
"+XdXqX5X}.'.iX/ Z 9 7 F l s M g N B 9 P N h A ' N N A A A A ( ` ' [ ( ( ( ( ( ( [ ( A A ( [ ` ( A L A L ' ' ~ ~ +.n Y.cX'.z.I.uX",
"A.jXdX%X).B.7Xa.9 h 9 x D s s m D Z N Z N N Z S ~ A C C ^ ! A C ( ( ( ( ( ( A L ` L A A ( ` ( ( A A A ( ! ~ ' ' n m.I.Y.d.2._.wX",
"Z.,XdXyXM./ }.+.h 7 d H s s Z Z N >.z.Z s N Z N g.$.O.| O...) C A A ! ( ! ( ! A A ! ( ( ( L ( ( [ L ` ' ^ ' +.| g %XT.h B.{ '.cX",
"9 8.mXiXm.g / / l 7 k D Z g M / h d.'.{ h C A >.|.n.C ` O.s.^ ^ ( ( ( ( ( ( ! ( L ( ( ( A ( A ( ` ( ` P P -.6.P L %X|.~ |.x.{.4X",
"d N.cX7XL. .{.z.9 x d d s g M p. .P X.S N h | T.k.&.p.p.O.^ ^ ` ( L ( A ( L ( ( ( ( ( ! ( ! ( ! A ^ V V P P P P *Xj.s / ,.W.rXsX",
"v.wXuX9XI.:.[.=.d x 0 k 9 Z ~  .,.P D N S Z ) f.^ p.Y.k.&.^ C ' ( L ( ( ( L L ! L ( ( L ( ( A ( ^ ] L L _ L l _ o.T.T.:.,.,.+X>X",
"r.>XgX9Xx./ W.{.7.7 x 9 7 s Z Z *.6.m.N h P Z n s Y.|.%.' ' n &.( ! ( ( ! ( ( ( ( ( ( ( ( ! ( ( ! ( A V L L L P 0 P.Y.,.E.l.Q.rX",
"3 r.gXeXb.,.R Q.r.3 0 8 c z s =.D 8.%X .h N N h g k.T.M | ^ ^ ^ ( L ( ( ( L ( ( ( L ( ( ( ( L ( ` ^ ( L L o.%.A ' M C  .`.+XwXG.",
"& 5.tX,X/.}.s j 7 7 v c 9 7 7 4Xz.z.{.G 9 9 N { g.p.p.~ ~ ^ ' C ( ( L L L ( ( L ( L L ( L L ( ( &.` ' [ L 6.s.( C ^ | { -.W.^.U ",
"1 9.fX;X X0XN.;.w w 1 3 7 f J x.} =.m.Z.d.h h s T.B.n >.N ~ ~ C L ( ( ( ( ( L ( ( ( ( L ( L ( L ^ ^ ^ A L _ [ C C | n +.D !.r.U ",
"o 3.fX2X.X(.G.K 3 E H.H.R 3 R 7 d 9 B OXM.9 G m.I.m.s n ~ n ~ A L A A L L L L L L L L ( L L L L ^ &.! C ( L N ( &.M { l A.>XJ.& ",
"o T -X=X2Xb.4 K 1 b.1XJ.y.b c 9 v 2.-.XXl.9 ,.`.z.G Z n | n ~ | A C V A ) ( A V L ( L ( L ( L ( @.^ ^ ( C P ! N ~ / n z.OXtXS.& ",
"% o # -XS.t t Q.V.1 1 r y.H.8 3 G.:XnXOXN.s h z `.z.I { N C h Z N A S P ! S P A ( L ( L L L ( L ^ C [ ( N C ) A ^ g z.%XrXq.& * ",
"  > o 1X2XV..X4.t.V.4 1 w ;.(.eX8X.Xx.:X!.{.{.F d.:.h X.B { h Z d l C A N N N V A P L L L L L L C M C S N V | +. .M ,.x.tXt.# : ",
"@ % #  X1X X2XK J.J.1 4 y.=X,XoXW.2.7 6XW.C.M.*.s 9 s h G B Z / N Z S { P S ) ) V A P A L V L L ^ M C S l d { g.s s z e.fXq.# u ",
"    - =X1X2X XV.v.K.W 5.J.tXH.E J 9 ;.}.N.9 7 f F d B s m 9 n Z B Z Z ~ / / S Z S V V A V A A V C Z { { h d } ,.m 9 =.Q.=Xw.-   ",
"    % & y..X.X.Xb.W S.hXy.1 b /.4.;.eX.X2.7 *.R j z H m s 9 s g g s s s h m h s Z D A Z Z V V A m S G N h  .X.n J 9 /.2X1 o     ",
".   - # i..X.Xi.U 1 5.<X=XS.1 t G.Q..Xe.7 3 H 9 9 s s m h m s s m m m m m M h g V B C V V V V C G h s s d I } g `.=.~.pXy O @ X ",
"  . - = 3.Q. XG.e.t.1 0.H.(.b..XC.Q.N.7 G.}.7 J H x s 9 d l h s g m m m g s s s Z B N V V V B V Z s d h 7 7 F 2.4X4XC.V.6 O X @ ",
"    . $ # W ,X/.XXN.x.j C.0X(.eXx.9 J 9 /..X3 q f f f j h g M m 9 h h s s m Z g M J H H J 7 7 f 8 0 7 k s } ,.7.W.pX=X& 6   .   ",
".   .   # Q G.9X0XXX.XXXXX}.>X8 f R 7 s q 3 b 7 7 9 7 9 9 s s s h s s s s m H H s 9 s f j 9 9 9 0 3 I 8.9 Z.E.s b ;XK.# +       ",
"    .   = r Q Q.XX.X0X6X9X.X~.=.G.Q.9 0 3 8 c 3 8 7 7 7 7 9 9 9 7 7 f x 9 9 f h J 9 7 7 7 3 3 7 7 -.I D 7.=.;.>XrXt.r = - .     ",
"      o # # 1 W .X.XQ.9X.X.X.X9 4.x.7 S.4.1 1 8 3 8 3 3 3 7 7 7 8 3 7 7 3 x H f 9 9 9 7 7 7 v *.9 I 8.I F 1.+X<XG.Y # -   . .   ",
"  .     o o # & y.J..XQ..X0XW.x.b 7 c.Z.c.E 8 4 & & 1 & 1 & 1 1 & & 3 r E ;.R 8 c f q 0 7 7 v E l I 1.c.v !.<XoX& 2 * o         ",
"  .       o 5 # & W ;X/.0X}.9 }.e.-./.7 (.J.& t 1 1 & & & 1 & 1 & & e E W b 8 3 R v q 9 7 3 3 0 9 h M.>XR <X<X& i # o +       + ",
"  @       @ % $ - = r  X0X}.XX8X7.x 1.].G.e q 1 3 4 1 2 1 4 2 2 5 2 = 4 e 1 1 v q 7 3 7 7 7 8 0 G :.*.e.<Xu.2 $ $     @     <   ",
"    ;         + O # # 4.K.0X.Xx.Z.e.9 rXoX1.q 1 1 3 1 1 1 1 1 2 & & & 4 E E q 0 3 7 9 0 7 3 7 x H H x.<XV.Q $ $ . <           O ",
"                + o # 4 W ~..X4.[.~.1.N.:X/.q ;.4.0.0.1 1 1 r W 0.q.;.r Y Y c 7 9 9 9 k 7 7.8.I W.N.G.=Xr # o @                 ",
"o                 o 5 * 1 3.(.].~.;XOX7 G.G.J :X/.rXG.7 q q W oX;X,XS.;.b 9 7 0 9 d 0 z 8.G.Z.8.6XjXJ.4 2 $                 o   ",
"                    o $ # r K 4 Q.C.pX~.-.1.,X/.:X~.>X>X>X>XH.c 7 K q q 9 9 f ;.7 R -.-.^.+XoXwX0.1 r 2 *   u   .               ",
"  O                   $ # # # o 3.V.E 1X;XG.0Xv.v.N.l.l.c.e.8.8 b H 9 9 b H j R v b.H.Z.<XS.r.D.* # # > o                       ",
"  @                   O     % : = = = t.J.S.G.r.x.v.N.c.I 8 x V 2.-.v x e.b.v.v.v.H.oXD.D.T & #   6   o   <   <                 ",
"      @         @               O O O # # 4 0.H.<XQ.>XOXc.E 8.E ;.;.1.8.W.!.+X/.oXV.i $ # o $ ; <     +                         ",
"  @ @         o               X   < O > # = t r 3 v -.5.oX*X!.wX%X+X+X+Xv.-.U r 8 2 * * $ @       X .     + + +   O             ",
"@   @       o             . . . @   X   - = # 1 1 1 v k 8.8.c.c.c.7.8.b.U 8 3 1 & = $     . . .   .     .     O     O           "
};
