/* XPM */
static char *dc20456a78944beac3e076d0c32d49c7JLNLcOFHKm1eKkEA[] = {
/* columns rows colors chars-per-pixel */
"64 64 187 2 ",
"   c #0E0E07",
".  c #040E0C",
"X  c #0E0D0A",
"o  c #140605",
"O  c #1E0405",
"+  c #160D05",
"@  c #1B0D05",
"#  c #12070F",
"$  c #1A0709",
"%  c #140E0B",
"&  c #1C0D0B",
"*  c #04110A",
"=  c #0C130D",
"-  c #0D180F",
";  c #151206",
":  c #1B1207",
">  c #141903",
",  c #13120C",
"<  c #1B120D",
"1  c #070F11",
"2  c #0B0E13",
"3  c #0D0F1B",
"4  c #150E13",
"5  c #1A0E12",
"6  c #170F1A",
"7  c #1B0D19",
"8  c #051314",
"9  c #0D1314",
"0  c #051A13",
"q  c #0C1911",
"w  c #04131A",
"e  c #0D1419",
"r  c #151212",
"t  c #1A1313",
"y  c #111914",
"u  c #181913",
"i  c #14141A",
"p  c #191219",
"a  c #250604",
"s  c #2E0304",
"d  c #250A06",
"f  c #2A0904",
"g  c #23070B",
"h  c #2B050B",
"j  c #230B0C",
"k  c #2A090D",
"l  c #340202",
"z  c #3F0503",
"x  c #3D0400",
"c  c #3D0004",
"v  c #3F0104",
"b  c #3C0107",
"n  c #3F0106",
"m  c #3D0206",
"M  c #3C0407",
"N  c #3C0102",
"B  c #320905",
"V  c #3B0902",
"C  c #31040B",
"Z  c #350408",
"A  c #34020A",
"S  c #3A0308",
"D  c #3A020B",
"F  c #3F0008",
"G  c #3E0008",
"H  c #300808",
"J  c #350908",
"K  c #3E0A0C",
"L  c #201207",
"P  c #21110B",
"I  c #28110B",
"U  c #3C1206",
"Y  c #230C10",
"T  c #400000",
"R  c #410000",
"E  c #400001",
"W  c #430000",
"Q  c #420101",
"!  c #400003",
"~  c #430102",
"^  c #400302",
"/  c #420202",
"(  c #440000",
")  c #450001",
"_  c #460000",
"`  c #450003",
"'  c #440203",
"]  c #410401",
"[  c #400403",
"{  c #410004",
"}  c #420105",
"|  c #400205",
" . c #430101",
".. c #480003",
"X. c #4A0301",
"o. c #4D0300",
"O. c #4D0705",
"+. c #4D0707",
"@. c #4A0300",
"#. c #450B01",
"$. c #4B0B02",
"%. c #4A0903",
"&. c #4E0A00",
"*. c #4C0901",
"=. c #4E0C00",
"-. c #4B0A04",
";. c #4F0F05",
":. c #4D0C01",
">. c #410209",
",. c #4A0309",
"<. c #440D0A",
"1. c #4C0809",
"2. c #520201",
"3. c #500603",
"4. c #540500",
"5. c #560600",
"6. c #510704",
"7. c #520704",
"8. c #510600",
"9. c #510B00",
"0. c #500903",
"q. c #520805",
"w. c #500D05",
"e. c #510D01",
"r. c #510E08",
"t. c #441302",
"y. c #4C1201",
"u. c #4C1A02",
"i. c #461608",
"p. c #4A100C",
"a. c #4D1C0A",
"s. c #541301",
"d. c #531202",
"f. c #581402",
"g. c #531802",
"h. c #5E1D05",
"j. c #561508",
"k. c #581608",
"l. c #5E1B08",
"z. c #5D1B0F",
"x. c #5D1E0D",
"c. c #5C1D09",
"v. c #611F05",
"b. c #621E0B",
"n. c #691C08",
"m. c #611F11",
"M. c #5D2206",
"N. c #5C2008",
"B. c #5E230B",
"V. c #5F2210",
"C. c #5E2410",
"Z. c #622106",
"A. c #682407",
"S. c #63210B",
"D. c #65240C",
"F. c #69260D",
"G. c #65280D",
"H. c #69280E",
"J. c #712C0F",
"K. c #652511",
"L. c #682611",
"P. c #662912",
"I. c #6A2B13",
"U. c #6B2E19",
"Y. c #702F1A",
"T. c #6C311A",
"R. c #71341C",
"E. c #75391F",
"W. c #6F3527",
"Q. c #6F3B25",
"!. c #6E3D2B",
"~. c #733621",
"^. c #783722",
"/. c #753B25",
"(. c #7A3C25",
"). c #753D2A",
"_. c #7A3E2A",
"`. c #734025",
"'. c #7A4227",
"]. c #76412B",
"[. c #7B412C",
"{. c #744231",
"}. c #7C4331",
"|. c #813E2D",
" X c #813E31",
".X c #80432E",
"XX c #814431",
/* pixels */
"l N N s $ X * . . o s N N N V N V l N l l V N N N N N l N N l N l N N N N N l N X X X X   o l W s _ l N W l l N N l N N N N N l ",
"N x N V d & t < t g Z c N l N l N W N N .._ N N W { { W { { W { { N { ' N { c W i i 6 i 9 < h D N ..V N ' c G M { W { _ N { W N ",
"$ g d g % i 9 i y , j k d g d j : @ & & k k : ; @ @ @ @ @ @ @ @ @ & @ $ @ $ @ @ = % % = = % @ a d d @ g g 5 h & & + + + @ @ @ o ",
"1 . = = 8 w 9 9 w 8 3 2 8 8 e 3 = = 9 9 9 - , % 2 e 9 9 i 9 8 9 9 9 9 9 e 9 e 9 9 4 i 4 i i i 7 - 0 0 9 0 0 5 , e 9 i 9 8 9 9 1 ",
"s l N N l N N N N x N N V l l N ; 8 t 6 0 r s H N N N N N N N N N N N N N N N l l N N N l l l l r 4 4 7 i % l l N l N N N N N l ",
"N N W W W W _ _ W W W N W { W W f , & r 8 & c _ N b N c N N N c N N N N N W N N N N W N W [ x x , r 9 4 = + V N N N N c N { W N ",
",.1.-.%.O.+.+.*.*.w.=.d.z.b.x.C.x h & % d b @.4.3.9.7.7.7.9.7.7.7.7.q.3.7.9.7.7.e.9.*.d.l.S.S.N.<.K < j C G 2.4.q.3.q.q.*.q.q.*.",
"4.9.e.d.=.e.d.y.e.d.*.e.S.H.G.H.@.[ ; % >...#.y.e.e.e.=.=.e.e.e.=.e.e.e.e.e.e.e.q.9.*.f.F.I.L.D.9.$.> ; l ' -.;.=.=.=.=.=.y.=.@.",
"v.F.v.b.H.S.v.F.F.D.d.*.S.A.F.D.#.N : 9 N N *.=.9.*.j.*.9.d.*.e.D.v.D.H.v.S.H.A.D.S.d.e.S.I.L.D.d.$.r t N W 9.9.d.*.e.*.e.*.d.@.",
"b.F.L.I.L.D.I.L.S.D.d.9.F.F.I.P.$.N P e N W *.-.e.9.9.%.e.e.e.d.F.H.F.F.L.F.F.F.S.F.f.s.G.H.S.D.d.%., 4 N _ *.e.*.*.d.e.d.=.d.e.",
"9.d.K.L.e.e.L.D.A.H.F.b.L.D.R./.t.c P 9 N N *.;.*.d.e.f.b.D.D.S.F.F.d.d.F.D.d.d.A.H.h.h.H.H.D.D.w.$.t % N W *.e.e.9.=.e.S.D.c.h.",
"@.e.b.L.e.e.D.F.F.L.U.L.L.H._.}.y.W L 9 N N 9.=.9.9.*.e.b.L.F.H.L.D.d.e.F.D.d.e.Z.D.P.I.D.A.I.K.d.=.t , N W *.e.d.9.e.d.K.I.I.S.",
"b.D.D.L.D.A.H.G.H.D.D.D.D.G.).].u.W : 9 N c 9.y.e.e.b.b.L.L.f.f.D.L.D.S.F.D.D.D.G.I.E.(.F.D./.~.d.=.r t N W *.e.w.9.b.b.f.f.D.Z.",
"D.H.S.F.H.F.D.A.H.D.P.I.H.D._.].u.N P 9 N { 3.=.*.e.L.I.I.D.*.%.F.D.F.I.D.D.F.L.H.P.(.|.D.I.XX_.y.=.t 4 N _ *.e.9.9.I.K.y.d.G.Z.",
"v.F.F.F.F.S.H.P.D.G.~.(.H.Z._.[.g.N : i N { 4.=.S.S.L.S.F.H.S.L.I.F.D.F.F.L.L.F.S.D.I.T.M.G.(.(.d.$.r % N _ *.9.e.e.L.I.Z.h.I.Z.",
"D.D.A.I.F.D.I.D.D.G.(.'.T.D.(.).u.N : 9 N { 9.e.S.G.F.A.A.F.D.L.A.F.F.S.F.F.A.F.A.H.G.G.D.H.).].y.$.r t N _ *.e.e.d.S.F.I.G.I.Z.",
"c.L.L.S.I.F.F.F.D.K.)..XI.S.(.].u.N P 9 c W 9.;.S.F.d.d.F.F.A.F.F.S.F.L.B.P.~.).).).P.D.F.H.(.].d.$.r t N _ $.d.Z.Z.H.D.H.D.G.D.",
"K.P.L.S.H.S.H.D.I.P.)._.I.F.).{.u.N & 9 N W 3.;.D.F.d.d.D.L.F.F.F.F.I.I.G.U.~.[.(./.P.G.A.H._.).d.%.t % N W $.d.D.I.I.D.G.D.D.D.",
"h.D.I.F.D.S.E.(.G.D.U.U.H.G.~.}.u.N : e N W 3.;.A.S.e.e.S.L.F.F.J.F.Z.L.E.(.T.I.U.T.~.(.F.D.'.).y.y.r 4 N _ *.e.f.d.d.s.S.F.H.Z.",
"Z.H.H.G.I.P.(.[.P.K.K.D.I.I./.].u.N P 9 N W 3.;.D.S.f.f.S.L.L.I.F.L.H.I.|.^.I.K.B.P.(.[.H.H.).).d.$.r & N W $.d.=.%.=.s.D.H.G.M.",
"D.G.S.D.(./.(._.[.^.I.D././._.[.u.N & 9 N W *.y.I.H.S.b.F.L.D.L.D.L.D.D.I.I.K.K.G.P.P.P.D.I.).].d.#.t % N W $.d.*.d.K.S.I.D.D.A.",
"M.D.S.P._.(.).}.[.~.J.D./.[._._.u.N P e x W 3.w.b.D.I.H.F.I.D.H.L.D.D.D.D.P.P.K.D.G.P.P.D.P.~.[.d.-.t % N W $.e.=.d.K.D.H.D.G.Z.",
"D.P.^.(.T.P./.).U.U.D.Z./.[.]._.u.N P 9 N W 9.w.e.f.F.D.F.H.S.H.D.H.(._.P.G.~._.D.H././.D.P.).].p.$.r t N W $.d.S.S.G.D.I.H.D.M.",
"B.D.(._.P.S.[.].P.H.F.S.).}.[.(.u.N < 9 N W 9.w.*.d.b.F.F.H.A.F.G.D.(.'.D.P.'.'.H.D.].].D.I._.).d.$.r < N _ $.d.G.D.H.D.H.D.F.D.",
"Q.].R.S.G.H.D.J.D.P.~.[.[.).).).g.V @ 7 N x 3.9.F.D.F.Z.D.D.A.I._.(.P.P._.~.P.P.].(.I.P.).]./._.d.t.t & N ..4.y.d.=.K.I.S.F.F.Z.",
").].Y.S.I.I.Z.A.G.T.~.]._._.[.}.y.V + i N N e.d.S.D.I.H.L.I.D.I.(.~.P.I.(.).I.P.(./.U.P._.}.(.).d.$.t t c W e.e.d.f.K.D.L.I.D.D.",
"C.I.F.K.~.~.I.D.~.(.[.[.].[.].].g.N , e { [ c.S.d.d.c.I.^.^.I.S.I.L.D.D.I.I.D.D.G.T.E.~._.]._.).y.=.% , N [ B.I.h.D.D.I.(.(.D.S.",
"B.K.L.I.(.].T.P.]._._.].)._.).].f.N : 9 N W D.H.f.d.b.I.(.|.U.D.G.I.I.I.D.D.P.I.B.U.)..X].).].(.y.e., t b W Z.F.H.H.D.L.(.'.P.C.",
").'.(./._.[.)./.(.[._.].].[.[.[.f.N P 4 N N A.A.Z.D.H.D.I.I.S.H.'.^.~.).(.'.(.^._.~.[.[._.[.}.).e.;., t c ..F.G.D.I.D.D.G.U./.).",
")._._.(.).).).[./.).).).)._.).).i.f : i s J b.A.D.K.I.D.S.D.S.I.[._.].[.].[.[._.].)._._.W.)._.W.p.t.= : l >.b.K.K.K.K.K.K.P.).!.",
"V #.#.#.#.#.#.x $.$.#.y.$.#.#.#.I $ ; i + & e.f.d.=.d.e.f.f.y.d.d.g.k.g.d.y.g.j.s.s.k.k.f.j.g.g.I : 9 < < j _ x [ W W @._ [ #.V ",
"l N N N N N N N l N N N N N N N , 9 - i - y %.$.=.=.d.%.$.=.%.e.*.*.*.*.*.=.*.*.=.=.#.%.#.$.$.@.y , 3 % 0 e N c N ' N W W N N N ",
"# % t t < , , t t t t , , r t t t t r r r r t , < j - r t r r , t t r t t t t t t t t t t t < t , y e 1 u % % t   : & t , q , % ",
"  = , , , , , , X X , , , , , X = , = X , , = , - , - r r 9 P & ;   ; , , , , = , , , X , , , X - , p % t , r e q 9 9 e , < % % ",
"N c { c N G G c c c c c c >.c { N c c G c c b N t % r 7 , , D s G { c c G c b N c c N c c >.c { G c { N N l $ i 5 4 r j Z { N s ",
"N N x N N N W N N W N N N N N W N N x W N N W N & & 9 y & @ J x N N N N N W N N N N N N N x N N W N @.W V B + = i 9 = g V W N l ",
"*.*.w.e.*.=.q.-.%.e.*.w.w.*.9.*.w.e.e.*.*.e.b.P.b G , , b N @.4.*.w.w.9.=.*.=.*.w.w.e.e.9.*.*.*.=.y.B.S.D.m.' G t 5 h N ..9.3...",
"@.d.=.*.e.d.=.=.e.d.=.e.=.%.d.d.=.*.d.f.y.f.S.L.x { , - N _ t.w.e.=.e.e.e.e.d.e.=.*.*.e.e.e.d.e.d.s.B.G.I.L._ N r g l W *.d.e.3.",
"..j.e.e.b.b.d.e.D.D.e.e.e.e.b.D.d.e.l.K.D.S.D.A._ ' t & N ..=.q.9.*.9.d.b.D.D.D.e.9.=.f.b.D.D.D.A.D.P.P.~.~.[ V - $ l _ *.y.y.%.",
"@.d.*.y.D.P.s.=.K.K.d.d.=.=.K.K.f.d.c.I.H.H.H.D.V b t 5 l x *.w.d.=.*.g.S.D.G.D.d.y.$.f.S.I.I.D.G.K.K.L.|. X[ V y j b ..9.e.*.%.",
"@.=.D.D.d.e.S.D.f.e.v.G.F.Z.F.A.).).P.D._.[.[.(.y.N < t b N $.d.-.e.b.K.f.y.d.=.D.Z.S.G.S.P.].).H.D.S.P.(.}.W W t , { W =.%.d.@.",
"=.s.D.F.f.f.D.L.d.e.S.F.G.D.I.H./.(.I.P.(.~.].).y.N < , c N =.e.e.l.K.b.f.=.d.f.A.H.P.G.I.I.E.(.D.G.P.T.)._.N N t , c _ w.;.d.#.",
"K.N.H.H.S.l.f.e.D.v.F.L.(._.I.Z.I.I.S.M.P.P.(.[.t.N t < c W $.e.b.F.S.S.F.A.b.D.A.I.D.F.(.(.P.I.Z.I.~.(.'._.#.W t , { W e.y.e.@.",
"S.S.D.H.H.K.l.=.I.A.L.D./._.I.G.H.D.I.I.P.P.).[.$.N , % G N y.e.S.D.A.F.G.H.I.I.F.H.D.H.(._.K.K.G.T.(.].)./.#.N r , c _ =.$.f.$.",
"Z.A.G.D.S.D.K.D.Z.G.G.D.).[.P.D.F.D.E._.[.).].(.y.N < t b W $.e.e.d.S.I.S.D./._.D.D.L.S.K.I.S.P.~.'.[.[.).).@.l r , c W e.s.S.x.",
"S.H.G.D.I.P.D.K.I.I.F.D._.[.T.G.I.K.(.[.{.[.[.].y.N , < b N $.e.d.d.K.I.S.I._._.I.P.U.P.K.I.I.U.[.}.).'._.).#.b t , { _ *.d.D.K.",
"M.D.Z.D.(._.I.G.).(.I.S.G.C.~.[._.~.}.).[.]._.).t.N , < b N =.d.D.S.D.D.D.G.P.K._._.)._._.(._.).).).I.U.(.(.@.l t , { W =.y.D.S.",
"K.I.D.D._._.I.G.).[.I.G.I.P._.[.[.(.}.)._.[.]._.$.N t , b W =.f.D.I.L.H.I.P.D.I.).XX(._.}.)._. X].).K.U._.).#.N t , N W d.s.D.D.",
"n.H.D.P.). X(.]._._.]._._._._.]._._._._._._._._.q.N < r b ..D.A.B.I.^.].[._._._._._._.].].).].].|._.]./.[._.@.[ q 5 b _ L.D.D.n.",
"h.D.M.C./._.).].!.).!.).).).).).).)._.).)._.).).t.f P < f #.h.Z.D.H.E./.)./.)._.).).).)._._.).(.!.).{.)._.W.J s & d B x K.S.B.M.",
"W @.x N ' ' N N _ _ _ W _ .._ ..N N N N c N N N & = t 7 8 $ [ K N N N [ N W N { N x N W W W W N @.@.....W V O < r 2 r O [ _ [ l ",
"l N N N N W N N l D b b b l b D l N b l D b N l t e t Y 8 % l l b N b b b l b b b b b b b D G c l c W N l s : i t 9 y & J N x l ",
"8 9 r r 9 e i i , % % % , = , , , % , , , , % , r 8 = - q , % : ,   % + % , < % , % % r r , , ; - y y r : , t 1 4 X 9 - ; + < X ",
"% + P : + = = % 9 i < & ; , , , r , , , , , , , 5 5 X 9 & 5 % 4 y t t i i t r r 4 t i 9 r , & & ; = = = = + t t t 7 7 p r 4 t # ",
"s Z D C Y 7 i 6 r g Z b b l l c { { c { { { c c _ W N x W _ N x N N N N N N N N 5 r 9 , r & f H ..W >.c { N c c l l l N N N N W ",
"W _ ..x d = 9 = - & H W W W _ _ N W W W N W W W N W W >.N >.W { N N W W W _ _ { & , , = & d N _ W N [ N _ _ N N _ _ W W N W N N ",
"@.4.B.K.V N j e b N %.d.=.q.%.%.%.;.@.=.%.e.S.D.e.9.*.e.K.P.=.@.*.e.@.d.D.D.D.N.N N , < b N e.*.w.w.*.%.=.@.d.9.S.K.#.$.e.=.K.D.",
"#.f.P.J.#.N & 8 c N %.w.*.d.f.f.d.f.d.d.s.f.D.G.f.d.e.g.N.B.c.j.d.f.d.f.D.S.I.I.@.c r < m _ d.w.*.*.d.d.d.d.f.d.F.P.s.d.e.d.D.D.",
"N.K.E.(.u.[ j q N N e.d.*.e.S.D.].(.U.B.D.D.G.G.F.L.B.K.P.H.'._.K.S.S.S.K.K.).(.@.N , , c W d.*.e.e.L.K.D.K.S.S.F.F.S.K.L.F.I.M.",
"P.R./.(.i.N & = N N *.e.9.e.Z.G.(.^.P.D.P.I.G.D.D.L.I.I.D.G.~.(.F.D.I.P.P.I._.).#.W , < c W ;.=.d.f.F.D.D.G.I.J.F.S.I.I.F.I.F.M.",
"Q.(.'.[.a.N I e x @.%.*.L.K.D.F.D.H.D.H.(.(.I.D.S.D._.(.G.G.G.D.G.G.E..X_._.[._.#.N , t b W ;.e.Z.G.D.D.K.B.~.(.G.I.(.E.L.D.D.S.",
"!.(.`.(.u.N j 8 l [ =.d.L.F.P.I.I.I.I.U.^._.U.K.H.I._._.I.I.P.P.A.D.(.].).).[./.#.N , , N N f.d.D.G.P.I.U.P._.].D.I.'.).U.L.P.B.",
"{.[.]..Xa.N I = N #.S.D.I.P./._._./.)./.[.XX).'.'.). X}.)./.]._.H.I.).).).].{.[.#.{ t , c @.B.K.G.I.(.]._.).}.].[.[.].)._.].[.].",
"!.).).(.i.l & . l N M.Z.M.x._.).)./.].).).].!.).).).!.).).).[.Q.S.D.).).).!.).).N N X X l x N.P.B.D.).).!.).).].).].!.].).).).!."
};
