/* XPM */
static char *e1ca404d5f4342eeb26762a59b07b93fG0288BJ92SQ9nUaQ[] = {
/* columns rows colors chars-per-pixel */
"64 64 58 1 ",
"  c #1D0601",
". c #1D0801",
"X c #240700",
"o c #260900",
"O c #2B0C00",
"+ c #2E1101",
"@ c #331501",
"# c #361902",
"$ c #3B1D02",
"% c #301709",
"& c #371C09",
"* c #3B1F09",
"= c #3E2102",
"- c #3E2209",
"; c #3D2416",
": c #3C2419",
"> c #442504",
", c #472805",
"< c #4A2C06",
"1 c #432609",
"2 c #462808",
"3 c #4B2D08",
"4 c #4E3007",
"5 c #4F3109",
"6 c #523203",
"7 c #52340B",
"8 c #57380E",
"9 c #59390F",
"0 c #422714",
"q c #452A16",
"w c #4D2F11",
"e c #402719",
"r c #452B18",
"t c #482E19",
"y c #4E3214",
"u c #4A3019",
"i c #523411",
"p c #563912",
"a c #5A3C13",
"s c #54371A",
"d c #56391A",
"f c #5B3D1A",
"g c #432D22",
"h c #463022",
"j c #45362E",
"k c #5E4017",
"l c #5F411B",
"z c #62441C",
"x c #66481F",
"c c #4F4038",
"v c #504139",
"b c #674920",
"n c #694B21",
"m c #65574F",
"M c #6B5D55",
"N c #75675F",
"B c #766860",
"V c #7A6C64",
/* pixels */
"<<<,,>>>>=-=#&#=$=========*$##$==$=$$$*=-$$&$=--=>=$>>$$#$$##@#@",
"<xnxnxxxxlkkkffkffflllllllzzzllllllldflffkffkkbbzakaaka8iiwww2$@",
"<z878777745435333333333343777343353333333<3<2333<<<<<3<<,,>>2>$@",
">a<,<<<<4<4<54<<,,>,>,>,<,,,,,,,>>,>,,,,<<,,,>>>,,,>,,,<,>32,<=@",
"=a<,<,,<<<<345445<<,,,,,,>,,,,,<<<<<377774<4<<<,,,,,,,<<<<,,,<$+",
"=p<>=0;$>,>>>>,,,<,,<3<<,<3<<<3<<<<77<<777546<<<<<<,<,<<<>qt>,$O",
"#52=gVN:$,,,>>>->,>>,,,,,,<,<<,,,,,<,,,,<<53<<<7<<<<<35<,tVV0,$O",
"#y>0NVMv1<<4<<,,,,,,<<<<<,,,,,,,,,<<<,<,<,,,,>,,,,,,>,3>qBVMj1#O",
"$i<qMmvj1,4<4<<4<3<<<<<<<<<,<<6764<77<<<<,,<,,,,,,>>=>>,qMMvj*$O",
"$8<>;cj&>,,,<<,<,<<<<<<<479889aa98743,<,,,,,<<<<4<<,,<,,=0jj&=#O",
"#i,,,,2><<<<<,>>1,>,,,,<<777878874<,>>>>>,,,,<<44447777<<>2>><=O",
">a78887774443,>,>,,,,,<344<7<74<,,>>1>>,,,,<67777<<47<,,,3<<<4=+",
"=kp777776<<<,,,,,,,,,,,<44<4<7<<,>>>->,,<3<<677<<<,,,,>>>,,,>,$O",
"=7<<<<,<<,,,<,<4<<<<<<,<<<<<<>,<,<>>>,,<7777<57,<,,,>,>,,<,,,>#O",
"$,>>>$=====$=$$==$$#$$$$$$$##@@@@@#@###$$#$#$$#$$==$$$$##$####+o",
"=#@@#@OO+OOOOOOooOOOOOOOOOOOXOOXXXXXXXXXXOOoOoOoOOO++OOOOoOXOXXX",
"5<,>>>>>>>>,,>>>>>>>==>>,,>>><<<,>>>>>>>>>>>>>=======>=>>==$#@@@",
"4klkkfllzzkzzxxxzzzllklkffffazlzzzzfkzflfffffffdffdddfddffdssy1@",
"<k5335577457555575555335533,,222,,322233,3,223<<3333<32,222333=+",
">f2,22<<,,<<44<<44755<<<4<,<,>>>,>>>>>,<<<<<<44<,<6<<<,>>,>===$+",
">f<,>><<<<<45644444755444<4<<<,,,,,,,<<<<<<><<443<77774<<,,>==#O",
">l5,uu,44444547878788875<<<,,>>>,>,,,<<474<<<4<<4<<76746>qq>,3$O",
">l<uVNq<778777aaa987857763<,<<,<<,<3<3<<77674<<<<<<<,<3>tVVr,3=O",
"<kuNVMc,45777767864<,<<4<<<77888977776<<<<<<44<<7<<<<3<qBVMj34=@",
"4kyMmvj244<<<,<4<<<<<<,<,>,,,,<4<778673743<<<67<77644<<qMmjj3<>@",
"<k4rcj-<54<<<<<4<<<<<<<<<,,,,,<,<<78775774<<,3<,,,,<<<<=ejj*35=+",
">p<=-$>,<4<<<<<,,,,,,,,<<474<4<<<<<664<<<63434<<<<<<<<<,,11<68>@",
"<p44<<,<<<<<<<<,,,,>,>>,,,,<<<<4<<<<5<,,,,<3<<<<47874<645773<<>O",
"<k5554<<<<<<<<,,,,>,,,<<<<<<54445556<5<,,,,,>>,,,,<<><<<<33<,,$o",
"4k8754,<<<<<<<<473,<<,<<<<,>,<<,,,<<<<<,,>,>===,>,,,,><>,,,>,,$O",
">7<==$$===>===>>,>>==$>=$$$$$$###$#$$#$#####$$$=>>,,>>>>,=$###@X",
">=++oXooOOOOOOO+@#@OO@O++@+OOOOOOOOXoXXXXOXOOOOO###@@@@@+OOOOoXX",
">==--===-===$$$$=>>==-==>>>$$$$##$######$$==$=$$*$#$#@##@##@#@@$",
">lxxlzlxzzzzzzzlkfffklkzflkzfffdddddfffflllffffffdddssdiiiii7w,$",
"=x85787765<37755357755<3333332,3335373337743w47344w<333,33>,,>=@",
"=k4<<4<<<<<<77777pa87744<3<<<3<<,<<<,<33436774444<<<<,,3>,11>,$@",
"=l7<4444<<<<6<5557888779aa9875<<3,,>,,,,,<<4777877997664677677>$",
"=l5<,<<<<5<4<<<<<3444<47777<<,,,,,,,>,<,,<<4<6799aaa9776<>tt>,$+",
"-k4=tq,444<544<><<<<<<<<,<<,,,>,,>>,,,,>2,,,,<,334774333>gVV0$$O",
"=k,hVN;><<<<444<<<<<<,,<,,>,,,,,<<<<<<3,,,,>>,,,,,3<3<4,qNVMj1$+",
"=sqNVMv-,>>,<757777765,,,,<<3<<<<<<<<,,,,,,,,<,<<<<<<<<,qMMjj2$@",
"=ptMmcj-,,<<<8888777877<<<<644<<<<<,,,>,,>,,<<<<<<577<6<,qjjq3>@",
"=k4qvj-<<56<677744<477<<444777<<47<<<<<<<3,,3<<,<<<6777776w778<#",
"#p<>2>><<<,,,,,,,<,<<<,<,,<<<<<<<<54<<,,,<<<<<<<<<,<<<<<64647<,@",
"#p44<<<<<<<<,,,<<43<4<<<>>,>>>,,<<44<<<<,<<<<,,,<<,<,<<<<44<<<=@",
"#8444<<<,<<<<<<44797774<<,,,>>>,,,,,<<,,>>>>,>>>,,>,>,,<<<<<<<=O",
"=5>>==###########$$>>=======$$=$$$$$$$$####@#@+#######$#$$$$==#X",
"$#$$++O+OOXOoOOOOOOoOXOOOO+OO+O++++OOO+OOOOOOXOXXooXXOOOOoOOOOXX",
"$=>====&$$###&$$$######@@@@##$$-$$#$$#$##########$$#$$$>=>$==##$",
">xxxxlkllkddfffffflfllppppipppppaaaaappiiwiii7ip99pp99faa9pap7<>",
"=na89875553553557788p9897577555444788754<<,31>,>,333<78737<<4<>#",
"-x7764<<344444<<4<<43,<<<<334<4<,,<,<<,,,,,2>>,>,<,,<4<<,<5<<4=#",
"=z3>rq>>,,,<44<<4<<<<<<<<5544<<<<,,,,<<<4<<44<<<,<,,,,>>,<,,<<=+",
"=f=gVN;$1>>,,<<4<457775557754<<<4<4<<<557747774<<<,,,,>,>=q0>>$O",
"=irBVMc->>>,<3<<<455554<<<<<<<<45765777767<<<<<<,<,<,<<,$gVN:$#X",
"=aeMmcj&->>->>>>,,,,<,>>,>,>->>,,<<<3677<,<<,<,,,<<<3<3,tNVMv-#X",
"&k>;cj%$-=->>>>>,,<<4<<4<73<<,<<<4<<5777<5<,,<<,>,,<,<<>qMmvj-=O",
"$d,>1>,<<<<<<,<<<44445757778778778877544<<4<<,,<,,,<<<<4,0cj->=+",
"#5,,<<<<<<447554444544<<<,,,,<<<<<<<<4<<,,<57777777554444,>-,<=O",
"#i<<<<<<<<4755<<55744<4<<<,>>,>>->->>>>>>,,,<<<44<4<,<<<<<,<<<=O",
"&p74<<<<<<<<<<<<<44<<<4<<<4,<<<<<,>>,,>-=>>>,>>>,>>-><,<<<4<4<=O",
"$54<<,,<,<<,,,,,,<,,,,,,<<<<44444<443<<<<<,<<<,<<<<<5744544<<<$X",
"#<<,>>=====$$==$======$=$$>$$$=====,>>>>>>==>=====$======$=$$#+ ",
"##-$###@+++OO+OO+OO+OO+O+OOOOoOooOOO+++++@@@@O++OO+OOOO+O++OOOX."
};
