/* XPM */
static char *result[] = {
/* columns rows colors chars-per-pixel */
"64 64 65 1 ",
"  c #000006",
". c #00000A",
"X c #0B050E",
"o c #010C0E",
"O c #0C0C0E",
"+ c #120D0F",
"@ c #12100F",
"# c #0F0F10",
"$ c #110F10",
"% c #1B0F15",
"& c #151110",
"* c #1E1411",
"= c #240D15",
"- c #221414",
"; c #281517",
": c #261914",
"> c #2C1A15",
", c #271418",
"< c #2B1718",
"1 c #2E1819",
"2 c #361F17",
"3 c #381F17",
"4 c #3C161A",
"5 c #32191A",
"6 c #3B1C1B",
"7 c #372017",
"8 c #382017",
"9 c #3B2119",
"0 c #3E281C",
"q c #451E1D",
"w c #481F1E",
"e c #41221D",
"r c #4B211E",
"t c #40281F",
"y c #4B2B1F",
"u c #50241F",
"i c #4F2320",
"p c #532520",
"a c #582721",
"s c #562821",
"d c #5A2922",
"f c #563526",
"g c #593727",
"h c #5B3928",
"j c #622E24",
"k c #6E3227",
"l c #703327",
"z c #753629",
"x c #783729",
"c c #773929",
"v c #7D3B2B",
"b c #803D2C",
"n c #89422F",
"m c #974D32",
"M c #9D5134",
"N c #A45436",
"B c #A95638",
"V c #AC5B3A",
"C c #B25E3D",
"Z c #B5623F",
"A c #BA6541",
"S c #C3774B",
"D c #C7794C",
"F c #C97A4D",
"G c #D48152",
/* pixels */
"888797797779777999790X**-77777977797792799997797700-999279997779",
"NNNNNNNNNNNNNNNNNBMVDg.*uNNNNNNNNNNNNNNNNNMNNNNBMVSymNNNNNNNNNNN",
"vbvbvvvvvbvvvbvvvvvvADg#pvbvvvvbvbbvvbvbvvvvvvvvxnV0pbbvvvbvvbvv",
"llllkzzlllzlzlllllzklAD0qlllzzllllzklllllzllllzzkxM76lllllllllll",
"xxzxxzxzxxxxcxxxxxxxlvV9qzczxxxzxzxvvxxxxxzxzxzxzbN9qzvzxxxxvccz",
"zcxzxzzzzzzzxxzzzzzxlvN3qlzzzzzzzzxzlzzzzzzxzxzxlvN9qzczzzxxzzzz",
"zxzzzxzxzzxzzzzzzxxxzvN3qzzzxvzcxlkpipzzzxzzxzzxlbN9qzczzzxlxzxz",
"zzzxxzxzzxzxkpzczzzxzvN9qzvzlllzlppklzzzzzxxzzzxlbN9qzzzxzzxzxzx",
"zxzxzxxxzzzxzpkzlccxlbN3qkzkpiiipkzxxxzxzzzzxzzxlvN9qzzzzxzxzzzx",
"zzzzzzlxxxxzzkiiilxxkvN9,ippkzlzkdlxzzzzzxzxzzxzlvN9qzxzzlzxzxzz",
"xzzzxlsklxclii<,<iclpvN7<kzkxxxxxkpzczzzzzzxxxzxlbN9qzcxzpzxzzxz",
"zzzzzxkpplli<,**,ilskvM2qxczzxzlzzpkxzzzzzzzclxxlbN9qlzxkikxzzzz",
"xcxxxxxzkii1<****<illi2-wlxxxxxxcxzzzxzxxxvzzzxxlvM5-iikdlczxxxx",
"zlzllllzi<<<<*****<ii<**ikzzlkzzzzzzzlzzzzlzzzxlpi0*-<1rkzzzzlzz",
"iiiiiiwe,%<<<<*****,%&@*,qwwieqqqwqwirrqqwqwqwqq,*o#&O$,wqeqqiqq",
"***&*%<eet<<<1<****7775>22759956570#-:-2222722722222222227775775",
"****-#7mBNvziq1<<,iNBBMxNNNBNNBNNVDh .5MBBNBNBNNNNNNBNNBNNNBNNBN",
"<<11<*-dvbNBki<1iilvvvcdxvvvvvvvxbZFh0>svvvxvvvvvvvbvvvvvvvvvvvv",
"wqww5;*ekzvvsqiikzzzzkpkzzzzzzzzzlvCGF04kzzzzlzzllzzzkllzkzlzlzz",
"wiwwe<-rzzkzkikzslzzzkpzxzzxzzzzzxlzZC5qzzxxxzxxxxxxxxxxxxxxxxzz",
"qrwrr<-rzzzzdkxzzzzzzpzzzzzzxzzzzzxlvN6qzzxzzzzzxxxxxzxzxxxzzzzz",
"rwrww<*rzzzzzzzxzxzzkpkzzzxzzxzxxzczvN9qzzzipkzzzzxzkzzxlxlzzxzx",
"rwwrw<*rzzxzxzzzzzzxskszxzzzxzzzzzzlbNeqzzzzkdkzzxkppkdlxxzxzzzx",
"wrrrw<-rzzzzzzxzzzzkpkskxxzxzxxzzzzzvM9qzzzzxkpzxkpllpkxzxzzxxzz",
"rwrww<-rzzzzxzzzzxzszzzzzxzzxzzzxlakbN9qzxzzxzizkskxxkdkzxzzzzzx",
"wrwrw<*rzzxzzzxzxzzlzxzzzzzxzzxzzxkpxM3qzxzxzzzdkszczxkskxzzzzzz",
"rwrww<-rzzzzzxzzzxzxzzzzxzzxxzxzzxxkdc5qzxzzzzxkikzzzzzzxzzzzzzx",
"wrwrw<-wzzzxzxzzzzzzzxzzzzzzzzzzzzzzvM8qxzzzzzzkszxzzxcczxxzxxzz",
"rwwrw<-wlxxxzzzzzzzzzzzzzzzzzzzzzzzlbN9qzzzzzzzpkxzzzzzzzzzzzzzz",
"wrrrw<*<rllxxxxxxxczczzzxxzzzzzzxxxlvN94pzzzzxkpzxzxzzzzxczcxzzx",
"rwwwr1-*5wpkzzzlzzzzzzzlzzk66kzzzzzlvN9-5izzzzpkzzzkzzzzzzzzzzzz",
"qqqqqq,O&*,qqwqqqqqqqqiiqq<oo<qqqqqqqe*o#%qqqq,6iiwiqqqqqqqqqqqq",
"sdddssii79999<59933390X*999992999399922999999290X--*997999999339",
"BNNNNNNNNNNNMvNBNNNNVDh-MNNNNNNNNNNNNNNNNNNNNNVDg.@5MNNNNNNNNNNN",
"vvvvvbvbvbvxjzvvvbbvbAD0pvvvvvvvvbbbbbvvvvbvvvbAFf@:avbbvvbbbbbv",
"lzzlzllklkkikzlkllllkvV96llkzzzkllllllllkzlllllxAF0.ikllklllllzl",
"cxzczxvvlsslxzxxvxxxlvN7wzxxxxxczxxxcxxxxzxxxxzzCGhXpzxzxxxxxxxz",
"xxzxzclkallcxzzxlxxxlvN9qzxxzzzlzzzzxxxlzxzzzzzzxCD0qzxzzxxzxkiw",
"zzzzxlppkvxczzxzzxzxlnN9qzxlxxlplczxzzxxxzxzzxzxlbV9qzzzzlliwi1<",
"xzxxkakkplxzxzzzzxlxlvN5qzxxxclpzxzxzzxzzxzxzzxclvN8qlxzzpw1<<<<",
"zxllpkczplczxzzxxzzxlvN9qlvcxlpkzzxzzzlxczzzxzxzzbN9qzxzxkiii<<<",
"xkppzxzxlalclxzzxzzxlvN9qzzlvkpzxzzzxlakxcxzzzzxlvN9qzxzxclzkiii",
"kskzzzxzclzzxxzxzzxxlvN9qzxzlplxzzxzzckakzczzzzzlvN7qlzzzzxxzzkz",
"pkxxzzzzzxzzxzzzzzzzzvM9qzczxkxxzzzzzzxlpplzzzzzzvN9qxczzzzzzzzz",
"zxzzczxzxcxzxzzczxxxli6*rlzczxzxxxczxczxzkdzxzzvzvM9qzxzxxczxzzz",
"zlzzzzlzlzzzzzzzzzzki<**<ilzlzzxlzzlzzlzzzlzlzxlzle*rlzzzzzxzzzz",
"rrrrwiiirqwqqiqqwqwwe%&##,qewwwwiiqeqwrrrqwqwqrqqe%#<qeqqwwqqeqi",
"---*-*&*-3222-77752297779227752317570+%**22272227597222775227771",
"Oo#****&9MNNMdMVNNNNNNNNNNNNNNNNNNNVFg#*eMNNBNNNNNNNNNNNNNNNNNNN",
"eee><***1dvvbldvbvvbvbvvbvvbvvbvvvvvAS0=zvvvvvvvvvvbvvbvvbvbbvvb",
"NNNxw<*>iklkxlpkzllzzlzzlzzllzzlzlzkbV9qxlkzzzzklzzzlzlzzzllzzzl",
"vxnNv5*rlvxxczlpzxxxzxzxxzxxxzxxxxxlvM3qxcxxzxzxxzxzxxxxxzxxlzxx",
"lllbN5OuzzzzxckpzzzzxzxzzzzzlxxzzxzlbN9qxzxzzzxxzzzxzxzzzzxzpplx",
"xxzvNi+rzxzzxldkxzzzzzzzzxzlazzxzzzzvN9qxzxzxxzzzxxzzzzxzzzzzkak",
"czcznM7qzzzxxvkpzzzzzxzxzxlpkzzzxzzlvN96zzzzlxxzzzzxzzzzzzzxxxlp",
"czzlvN0qzzxkxlskzzzxzzzxzxlpzzzxzzzzbN9qxxxlpkxxxzxzzxzzxzzzzxxl",
"xzzzvN7qzxldkiqkazczxzzzxlalzzzxzxxzvN9qzzzlplcxzxxzzzzzzzzzxxzz",
"zzzlvN8qxzxlp11ikxzzzzzxczzzzxzzzzxlvN3qzczpkdkxzzzzxxzxzxxzzzxz",
"zxclbN9qzxzcki<<uzxzxzzzzzxzxzzzxxzlvN96lclpzkplxzzxzzzzzxzzzxzz",
"zzzlvN94zzzlski<rlzczzzzzzzzzzzzzzxlvN3,iiplxzzxzzzzzzzzzzzzzzzz",
"xcxlnN8qxcclzxkpkuxxzxcxxxccxccxxxxlbN9o1rlxzcxcxzxxzxxcxxxxxxzx",
"lzzlxM9qzxllxkikxlzzlzlzlzlzzlzlllzlvM2#>rlzzlzzlzzlzllzlzlzlzlz",
"rrirrp-,iiiii5qirrrurrrrrrrrrrrrirrrii-**5rrrrrrrrrrrrwiiwrrrrrr",
"*****&********-%***********-**-******&************-*-**********-"
};
