/* XPM */
static char *_4c8aff6042149e8ec21e812db2a908eyW1JTQZla5N9ykn2[] = {
/* columns rows colors chars-per-pixel */
"64 64 210 2 ",
"   c #020202",
".  c #0A0203",
"X  c #030907",
"o  c #03040A",
"O  c #0B020A",
"+  c #030A0C",
"@  c #0A0A0A",
"#  c #100307",
"$  c #12040B",
"%  c #001107",
"&  c #03100E",
"*  c #11110F",
"=  c #040413",
"-  c #0A0610",
";  c #030D13",
":  c #090D12",
">  c #02061A",
",  c #0A051A",
"<  c #020D1A",
"1  c #0B0C1B",
"2  c #110E11",
"3  c #11071C",
"4  c #120E1B",
"5  c #031314",
"6  c #0B1314",
"7  c #051A17",
"8  c #0C1A17",
"9  c #03141B",
"0  c #0A161B",
"q  c #041B1B",
"w  c #0C1B1C",
"e  c #131415",
"r  c #1A1817",
"t  c #11111D",
"y  c #131B1D",
"u  c #1C1B1B",
"i  c #06211E",
"p  c #0B221F",
"a  c #042A1F",
"s  c #14231F",
"d  c #0F0C23",
"f  c #031522",
"g  c #0A1421",
"h  c #051D23",
"j  c #0D1D22",
"k  c #041D2B",
"l  c #0A1E2A",
"z  c #111C23",
"x  c #1A1E24",
"c  c #141D2A",
"v  c #19172C",
"b  c #041B30",
"n  c #341B26",
"m  c #052323",
"M  c #0B2323",
"N  c #062923",
"B  c #0C2C26",
"V  c #05222B",
"C  c #0B242B",
"Z  c #032B2C",
"A  c #0B2B2C",
"S  c #132324",
"D  c #1A2426",
"F  c #112825",
"G  c #14252A",
"H  c #1A252D",
"J  c #132A2C",
"K  c #1A2B2E",
"L  c #04342D",
"P  c #0E302C",
"I  c #02382E",
"U  c #023423",
"Y  c #11302D",
"T  c #032533",
"R  c #092532",
"E  c #022A32",
"W  c #0D2C33",
"Q  c #052D38",
"!  c #0A2F39",
"~  c #112131",
"^  c #142B33",
"/  c #1B2B34",
"(  c #142B3D",
")  c #1C2C3A",
"_  c #1D273A",
"`  c #023231",
"'  c #063332",
"]  c #0B3131",
"[  c #0C3333",
"{  c #053A34",
"}  c #0C3A37",
"|  c #073738",
" . c #0D333A",
".. c #043D39",
"X. c #0C3A3B",
"o. c #133434",
"O. c #1A3335",
"+. c #12343A",
"@. c #1D353B",
"#. c #133B3C",
"$. c #1B3C3D",
"%. c #153A37",
"&. c #232224",
"*. c #20282E",
"=. c #222F3A",
"-. c #233333",
";. c #22353B",
":. c #213B3B",
">. c #034234",
",. c #02423B",
"<. c #0B433C",
"1. c #034939",
"2. c #0C4B3D",
"3. c #1D423D",
"4. c #16433F",
"5. c #015539",
"6. c #0C3542",
"7. c #0A3D41",
"8. c #133442",
"9. c #143B43",
"0. c #1B3D43",
"q. c #113748",
"w. c #163E4A",
"e. c #1D3745",
"r. c #242D41",
"t. c #223C42",
"y. c #253F49",
"u. c #2D3E48",
"i. c #303243",
"p. c #064343",
"a. c #0C4243",
"s. c #0C4D46",
"d. c #0D4648",
"f. c #0E4C4B",
"g. c #154343",
"h. c #184645",
"j. c #1D4344",
"k. c #124B45",
"l. c #184947",
"z. c #144349",
"x. c #1D444A",
"c. c #134D4C",
"v. c #1A4B4C",
"b. c #075649",
"n. c #065A4B",
"m. c #085949",
"M. c #14514E",
"N. c #1D504F",
"B. c #07465C",
"V. c #174752",
"C. c #1B4651",
"Z. c #1B4A52",
"A. c #1F4C5C",
"S. c #0D5850",
"D. c #145352",
"F. c #1A5352",
"G. c #135C56",
"H. c #155B5B",
"J. c #1E5C5B",
"K. c #185458",
"L. c #224243",
"P. c #2C4247",
"I. c #23454A",
"U. c #2B464D",
"Y. c #224B4D",
"T. c #2D494C",
"R. c #32474E",
"E. c #364B4B",
"W. c #23534C",
"Q. c #2E564E",
"!. c #244C53",
"~. c #294D52",
"^. c #254E5A",
"/. c #284E5A",
"(. c #324750",
"). c #324D52",
"_. c #245453",
"`. c #215857",
"'. c #23545B",
"]. c #255A59",
"[. c #285C5A",
"{. c #2C5053",
"}. c #35545C",
"|. c #3B545C",
" X c #086354",
".X c #1A615F",
"XX c #25655E",
"oX c #2E5761",
"OX c #205F63",
"+X c #2E5D63",
"@X c #325A60",
"#X c #385D63",
"$X c #1C6162",
"%X c #226463",
"&X c #2B6E6F",
"*X c #366262",
"=X c #3D6766",
"-X c #386468",
";X c #386D6D",
":X c #356D67",
">X c #377576",
",X c #337A73",
"<X c #4F5761",
"1X c #44696C",
"2X c #467577",
"3X c #46707B",
"4X c #4E757B",
"5X c #2C7A81",
"6X c #35878B",
"7X c #5B9790",
/* pixels */
"  % 7 7 i 0 i 8 q p q p i w i B p p i N M N M F M M N G A J B B B M M M F M N M M N i q F M z F 7 M p 7 q M a i i i N z m M X   ",
"A X 6 6 0 6 5 & & 8 6 8 7 8 7 7 s p q y p p p p F s s G S F F G y s S p p S M M w w 8 w 8 8 7 8 0 q 8 8 y q 6 y 8 8 w y w i $ o.",
"7 7             X   X @ e     e             .                                                       X     u                 M 0 ",
"7 0                   O 6 r   : e 8 D                           .                 X                 5 e * + e               w m ",
"7 7                     @ u   &.6 2 u                                                             e . *   e X               j m ",
"7 q                           .     .   .               .                                                                   z q ",
"5 7                                 X                                       .                                               w q ",
"7 i                                               X           X     X             X                             X           z q ",
"7 7                                     X     o   . .       X   X                                           o               w q ",
"7 7                                         o   O $   o o     o   O   . O O =                 o                             j h ",
"7 7                 Q.>.S.L 4.A #.` W C  X` h.l.V h.G ;.M 7 Z m { Z W [ G 0.; @.C ` ,.k Z L #.9 P a L } ..I                 p q ",
"7 i                 d.q ` G.I A ; ; [ ..Y.| n.T G 0 o ; < O.$.+ Y A M M   = z 9 ` O.z ` <.+   o + 7.U { + k.                z q ",
"7 q                 o $Xo     o g.} 9           W a.z.h.q           ; j q D.k.        .   ; I I m       d.;       X         w q ",
"7 7                 L [ J   5 o.5 5 g.j     q q @.7 7 5 K K         w j.h q 7 $.0       q   & X ; ;   m N 7                 j h ",
"i i                     9 m :         1 N.q t.Z           0 q 6 M o.X           A j Z q m X     X   7 8   A                 y q ",
"7 i                 L.  S h 7         q j.o.o.      X : + @ K O.9.7 o           9 C l.h m         + <.=   Z                 j q ",
"i i                 2.  W + m       S M 6   m W -       S 9 z X X j j.l       / +.;     9.7     ; + X q + o.            X   w q ",
"i i                 m %X+     G C q @.          x.9.o 0.e   .       z 8 G h + S < ;       9 q 5 m     ; M +                 j q ",
"i p                 o S.        c.Z               :.-Xh =               @.`.~               <.'     .   @.X                 j q ",
"i p                 V b.<   X V 7 c 3.  X     . 6 q.@.~.p     X     m W V q W L.:   .     h 7 q o.    ; I <                 D h ",
"q i                 9.+ j   q .     l C .   : C.R       / E.G . X O a.F.5   o z   9     ~ %.    9 h   X < ^                 j m ",
"p B     X           Z.  ^ o.z 5     = 0.t.  9.:.-         =.T.  l y.1           o v.m f h         o.9 A   [         X       S h ",
"i N                 o.> 9 m .       X   x.*X8   . X .   X     j.6Xl   X X .     X 0 [.6.            W q   a.                M j ",
"M N   X           + W   D Z h         k f j.!..     X     z 1XK q.0.z       X   H 9   Y.          J l.%.  0                 M m ",
"M M                 Z 4 H   X.      @.w.    o t.H O X   *.;.).o   . }.;.  d   c u.    h 7 w .   = ;   j 5 |                 S h ",
"a B                 E P :   : ^   . ) 0       G #XG   *X~.  o @ O . q [.R   Z 8.0       - _.q y -.    H <.i                 S h ",
"p B                   %X      j J.p.l   X . .     9 L.}.X . @ O X @ . .  .OX<XV @     X   k m m     X   $X            X     S M ",
"N P       X         o $.        3.  1       X   S }.>XZ.    . X X . X v 6.5Xg   z         > v.N.    o . G.                  S h ",
"M B     X           A J 0   @ K   y T.X X       (.I.0 R 7.E       .   ^.{.< q V.+         h 0 7 k     : | o   O             S C ",
"p B                 7 5   ; 0 z o   V C o g j T./   X   ^.4Xj i.  =.8.Q d o o Z.g.* $   %.L.    D q   0 = 6         .       S h ",
"B M                 q o A 0 J   X     ;.P.  R.< 3 - X   n t./.V 7.~.      @     t 0.V z / 9     ; G   j   M       X         G C ",
"B B                 S   5 v.        4 - Y._.0 = v , X . X   / 7X2Xk ! . . X X .   #.,XS +           k.+   O                 J M ",
"M B                 6   0 9 6           C.!.y..   . X . X . t.3XB.      X O X o 7 j 8.8.            g.o o G         X       S C ",
"p M               o C   J 7 j.      S +.;.o ~.z = X .     +./.b   U.|.  . X X z /.H   V @.@     + C   7   S                 z m ",
"i M                 @.h +   0 ! X : w.S     - 0 y.. X / 1Xr.  . . 6 )._   X   @.V.    o z f   o / w   q q X                 G M ",
"8 B X         X     k ^ h     j.o.9 l     X   7 oXZ.= S '.q X . X .   D |.w V.    X .     O.X.7 o       L.C                 F j ",
"i P                 ; J.        XXj.          X   T ;Xb   X     . X X o 0.+XK.      X       d.l.        J.                  M j ",
"8 B               - > v.9     5 q I.A X X   . . + }.z.J.0   @ X X .   H ! z  .+.o         X q x.3.    9 h.;                 M m ",
"8 B                 h m l   7 g.;   V         F :.    = ) I.  X .   k &XV   C z.j       q v.q   R 9   q #.k                 S h ",
"a N                 y.5 0   k       7 W =   V P.+       R ].8.  . U.( l         #.c.  8  .y     5 o.+ J   #.  = X           C M ",
"i N           .     q      X          5 h  .V o     X     + @  .[.e.+           . #.#.a.          5 Z C   0.                z j ",
"N i                 g.  0 S.          ; y :Xz         .   v A [._.9         z     y 9.p.            $X    V               X M m ",
"q a                 E   D   o.;     9  .0 X , H   5       q U.8 , J t.      =   :.L.  O.C         V 7 ;   s.                z h ",
"q a       X         X.9     7 f     : ;       H :.    / 2 5 =       l.9.5   + S y       q ;.  + j     M 5 {                 S q ",
"q N                   G.      A W V X       .   o k ^ 0.c             X  .M 9.^           9 q q q       .X                  w q ",
"7 i                 9 S.      o J A               I.+Xf     X   o     0 0.`.M 9             ..f.        H.            X     y h ",
"7 p     X           M ..5   X M o + A         > R M o   E.            j G o M j.:       o ^ X + V     + Z m                 j q ",
"7 i                 o.  m X P     =   | q   C _.9       h C q 8 + @.W     1   o + Z q X Z j O   ; m & j   A                 z q ",
"7 i                 p   7 }             | `.M               m v.9 5               C c...    X       s.X   N                 7 q ",
"7 i                 [   q ; |       o |   j W W         + V h 7 : $.W           W.V X H '       : m 5 :   s.                w 9 ",
"7 q                 5 s.+     P 7 5 q         q ^   M m } X           G @.7  .[ 5         C & q +     + Z 7                 j q ",
"7 i                 ; <.+     q L 7.; o       ; E O J.A m i           h +.o.K.E 9       o q m X.5 o   o 2.;             X   w 9 ",
"q p                 W.; | 5.d.9     ; b.{ G.p.| A     o Z | <.a.o.D.+.  X       A OX1.n.Z m     5 a.k.' 7 a.                8 9 ",
"7 q                 q L i   N h K H m m o o 0 W V $.$.^ [ q k k + 9 A E ) x  .X.k Z o f = F J j m q   q N Z                 j q ",
"7 i                                       o                                                                                 j q ",
"7 p     X                                                                                                                   z q ",
"7 i   X     .                                                         X                                                   X 7 q ",
"7 N                 X                                                                                 X                     z f ",
"i i                                       X                                             X   @                               w q ",
"y w                 + &     &       e                   X                           X       6 @ @ * & & @ + u               y q ",
"i a             .   & & 5   5 & @ 6 e           X                                           6 & * e 6 5 @ @ u               M i ",
"7 w   .                                                         X         X                 X                               w 0 ",
"  X i N a B a p B q F F q i F M F B p N B a N A N B P P P P A P B B B B B B B B J N N i y i a i M s j F 7 i F M N a p M N N o   ",
"[   q q q q 7 7 i 5 5 7 7 7 p 7 i 7 q p q 0 7 7 i 7 p 7 q q N q i a q p q q 7 q 5 i i q q q 7 7 i 7 7 7 5 i 5 7 7 8 q q q 0 [ [ "
};
