/* XPM */
static char *fdef407932344976c71c83ba6e14e5275iNNREOTYIabNf65[] = {
/* columns rows colors chars-per-pixel */
"64 64 130 2 ",
"   c #020202",
".  c #0A0204",
"X  c #010905",
"o  c #0A0906",
"O  c #030609",
"+  c #0A050A",
"@  c #030B0B",
"#  c #0A0C0C",
"$  c #120001",
"%  c #12060B",
"&  c #120B0C",
"*  c #03110D",
"=  c #0B110E",
"-  c #001B0E",
";  c #050F11",
":  c #0C0E11",
">  c #180711",
",  c #120C12",
"<  c #041313",
"1  c #0C1313",
"2  c #031A15",
"3  c #0C1916",
"4  c #071619",
"5  c #0D161A",
"6  c #041C1B",
"7  c #0D1C1B",
"8  c #121415",
"9  c #191213",
"0  c #131917",
"q  c #141619",
"w  c #1B161A",
"e  c #141B1B",
"r  c #191D1D",
"t  c #0C2017",
"y  c #03201E",
"u  c #0D211D",
"i  c #13211E",
"p  c #1C211E",
"a  c #21201E",
"s  c #0E1D22",
"d  c #141E21",
"f  c #1B1E21",
"g  c #221F24",
"h  c #052321",
"j  c #0B2523",
"k  c #052B25",
"l  c #0B2A25",
"z  c #092629",
"x  c #072E2B",
"c  c #0C2C29",
"v  c #142424",
"b  c #1B2323",
"n  c #142925",
"m  c #1B2926",
"M  c #132629",
"N  c #1B262A",
"B  c #152A2C",
"V  c #1C2B2B",
"C  c #06362B",
"Z  c #0D342C",
"A  c #12322D",
"S  c #1B322D",
"D  c #1C2D32",
"F  c #073737",
"G  c #0D3C36",
"H  c #083A39",
"J  c #153531",
"K  c #1C3432",
"L  c #173C35",
"P  c #1A3935",
"I  c #153E3E",
"U  c #1D3F3E",
"Y  c #222425",
"T  c #292726",
"R  c #292927",
"E  c #23262A",
"W  c #232B2C",
"Q  c #2B2B2C",
"!  c #302F2D",
"~  c #25332E",
"^  c #2E322F",
"/  c #252E32",
"(  c #2C2D33",
")  c #312F30",
"_  c #233333",
"`  c #293434",
"'  c #233A36",
"]  c #233738",
"[  c #2C373A",
"{  c #243B3A",
"}  c #2B3B3B",
"|  c #353335",
" . c #373936",
".. c #333D3C",
"X. c #3B3B3A",
"o. c #413D3E",
"O. c #0D413D",
"+. c #1D423C",
"@. c #26413C",
"#. c #29443D",
"$. c #244A3F",
"%. c #41413F",
"&. c #0D4041",
"*. c #0F4C45",
"=. c #1B4644",
"-. c #124943",
";. c #15544B",
":. c #1D504B",
">. c #254242",
",. c #2C4445",
"<. c #264945",
"1. c #2B4D46",
"2. c #334241",
"3. c #324846",
"4. c #324748",
"5. c #33494C",
"6. c #2B5A52",
"7. c #434443",
"8. c #464847",
"9. c #4A4947",
"0. c #4B4C4B",
"q. c #4F514F",
"w. c #51514F",
"e. c #535250",
"r. c #595957",
"t. c #575958",
"y. c #595B59",
"u. c #615D5E",
"i. c #6B6768",
"p. c #747071",
/* pixels */
"O.-.j l Z M C B c J c J l B c J A c c c c c c B c c c B c B c c c c c c Z c c c c c c c J c B J y A Z h l J Z x c c Z B c z =.&.",
"I =.d v M v l v 7 M v n j M j j V n j v n n v j n n n M n v n M v n M v v M M M v v v v v v j v M j v n N j 7 V v v M M v j >.I ",
"h l         X   :   : 8 f   # f # #       O                                                         1   & Q #   O X     O O M s ",
"l B O     .   . O   o.9.i.T o.0.p.u.Q     .   +   O O   O       O . . .     o           O O O o   X.u.g w 7.Y         O O O M z ",
"j c               & %.X.w.! X.| r.w.T                                                             Y 9.a & R o               M z ",
"l Z   X       .                   o                                                     X           o   X #               O B c ",
"u l       .   .       # . o   . # # O                                                             . #         O             M h ",
"l Z               O #       O                                                   .     .   .   .     O   o .               O B z ",
"k c           .   X     X     . .     X X   O       .       .     .   .     o               o           O   % .           O M z ",
"l c                 v V @ ; @ 1 r < @ @ *   = # o 8 , q @   * X @ * X @ w q o 8 . # < X * * w w e < < @ m p                 B z ",
"l c     X   X . . f 5.A 5.D ,.Z v u v D ' m _ V 5 b X v d v K j +.S n v 5 b @ e Y m _ S S n m v B K } 5.A 1.3           O O B z ",
"k Z       .       b U c D N D 6 l l v M v < t * v n * v 7 N j < 2 2 v M   v M 7 n 2 r w b 3 2 - l v / } Z +.7             O B z ",
"l c           . o X 1.@.O O ; v ] M ;       *   y n _ ` @ :   +     O N 5 _ _ * * X O   # 1 V <.P   O O 1.U   %           O M z ",
"l l         X   o * S K N   ) r   0 V e ;   b b n @ @ : q | : O # Y w E :   @ i Q 1 X   3 1 ;   i V O d @.n 3             O B z ",
"k Z       .     o 8 W   v 2.  O     o 7 W m e   O   O     = 3 p / d O   #         7 K B j O O + O 1 2.}   #.X           O O B z ",
"l c               w (   ,.B j   &     3 m 7 b q .   .   X * n S B < 4 O     . . 2 7 N b q @ O O   < { j X W r             O B z ",
"l c             $ 8 K z b O r v   e Q 1 X   1 e d q O 1 7 @ =     X S t   O   d i e     g b   O Y 8   m V i 8               M z ",
"l c           o .   { { X o   v D d 1   o . # O f q O d e   .   X   o @ 7 V 1 # 8     8   : / j 1 # @   [ ..  o           O B z ",
"l c             .   D {       1 { < @       +   ; / / q X   #   o   .   3 P v @   .   O     V K e   O O [ [   #           O B z ",
"l c           . o X B n * X p 8   V m     . . & e ; ; b f     # .   1 e , O X B & +   O # < 7 < r @   ; V V   O         O O D z ",
"j c               1 _ 4 e X b q   # r f O   1 E O : O   # Q b     * t i +     e : 1 @   0 Y @   O Q 1 1 4 N #             O M z ",
"l Z           o   # / O u m X @ 9     / d 1 4 3   O     O q 0 # u 7 o     O . .   e N < 1 #   +   1 f b   V 1             O B z ",
"l l   X         O 8 N @ m _ X     9     V [ *   O     O .   @ e #.<   . #     + ; @ W ~     o       E `   b 1           O O B z ",
"l c           .   : f X v t 3 O o     < @ v v @ O . .     e i 7 # e < O   . #   : q @ e b @       r E e * v 1 .         O O B z ",
"l c           . . # M 7 q # g @     Y Y     8 0 8   O   X 0 1 O . O b b     @ O b e   . 8 8 O     8 . q s c #             O M z ",
"l c             .   n n O . : b * 1 p     0   = r #   m p   o   .   ; b 1 X 8 r o   . O . f W   ` o   # K j X #             M z ",
"l c   X         . X S _   #   1 ~ p       .   O @ @ E e @ =       O O   1 ~ b X o         ; b e 7   #   M n X             O B z ",
"l Z           .   X n V       @ ~ i   X     O   X W W 7     o     @ O   v W e   o X         5 } e   o @ [ M   o           O B z ",
"l c             @ @ N V 1   q |   3 b     :   O v 1 O 1 0 @           f b     m o   o   O q 5 5 b @     N s O             O M z ",
"l c           .   # e < 7   0 0   # e 1   O w r #       w Y X X   : : : #     e p #     f b     q m * 1 5 N q             O B z ",
"l c .             8 Y O / N 7   o O   b 1   E q   q     o o 8   1 d 8     + #   = 1 @ X f 0   #   * 3 m ; 5 o             O B z ",
"l c               # g O V V @     O   : / b     o   . . O   X ` V :   # +     :   1 2.b           * ~ i O E 1             O B z ",
"j Z             . 1 m   f 8 @ X . +     W m r @ +     @ O   p b 8   O   . .       @ m j 1   . .   = ` 0 O j 1             O M z ",
"j l               # i X b Y f   #   e f @ @ e O   +       # e @ @ q E O     O O W 0   X W 1     O @ 0 0 < d q o             M z ",
"k c             O 1 i e 8 O q 8   X E ,     : @ e #   : f 1 O O   O r : @     1 r @ O O : 1 1   r r   < v d @             O B z ",
"u c           .     m E O   # W 6 1 1     .   @ m 1   8 r O   O o     1 b e 5 1 @     .   8 m * : =     / E O             O B z ",
"k Z                 V m   @   # @.i   # + .   O   b m X   + . . O       0 V i X   O   . . X 7 '     o   _ V   .           O M z ",
"u Z   X         O   i v @ @ O @ n W     O .   O @ b E q @ #   O       < 1 1 7 q   O + +   # 7 S f @ @   ` N               O B z ",
"u Z               X 3 b 1   e m   b 1   O #   0 b   X 1 q ,     . # 1 m 1 X 1 g X     O   N i   f #   @ N V X             O B z ",
"k c               p i b 1   m X O   q Y X @ ; E 1     O 1 W q   . q 1 e       . r e   @ 0 r     X b = e ; s 1             O B z ",
"l c               1 E X u }       &   7 d e < @   . o   O   @ 1 N 7 : O   . o .   E d E 4         1 N v X E <             O M z ",
"l k           .   1 W   m V =   . #   X b [ 7           O   5 ~ / X   . .       X   v W ;         O ` v O f :               B z ",
"l Z             O # W X m 5 r O     1 b O q b :   o #     O r r   1 q @     o   3 ~   3 E # . . # : v e ; v q             O B z ",
"u C       .     O O W 7 5 @ e 8   X f r       Q r     : r , @     : b r X   X 1 a =     # f :   0 f O 5 e N 0           O O D z ",
"j Z             .   S _ O O o b N 0 @ O O O   8 3 = 3 0 r             = 7 i v b     o o   e v 3 7 0   @ S N X @           O M z ",
"k c           . O   S [       i / d @     #       W ..1     O o # # X   r ~ b     &   #   @ n _ 1   O O } _   .           O B z ",
"j Z               @ A P ; O = 2 X N 1 O       1 d e * @ p 1           0 b e 1 b r         p 1 e 1 # O O _ '   .           O B z ",
"l l       .       * S B b : E 2 O ; 4 E     p p # @     W p X o o w r #     O f < v X   p R X   < ( O E 2 M 7           O O D z ",
"j c           .   i /   / `   X       8 p ~ 4 X . . . X     t ' 3 < ;   . o . . X i S A *     & X   3.n O f 7             O M z ",
"j Z       .       # _ O _ ` i   @ @ O r E ` b 1         @ 8 b V e f e O       X 3 i p E e 8     @ N ` ` ; ( 5               M z ",
"j c           . + O ` _ 2 7 0 W   7 N v     # Y V   # 1 Y q     O q d 5 7 @ 3 4 E w . + , b 7 < d q # 5 _ _ # %           O B z ",
"j c             O O ] >.X X X m 4.] < X   X X @ 7 m #.b 7 4 O O O O O < [ ] [ j       O   1 V } M O + O U U O %           O B z ",
"l c           . O 1 3.J +.P ] 7   < 6 V m m i v m   @ < v j t A s K v 7 5   4 4 V B u Z n V 3 O l _ [ ] G 6.< O           O M z ",
"j c               3 { B >.@.[ V E V v V n n l n 5 q E 4 4 n S K v N e 7 M q f d 4 v Z A k n b g j ] ] { Z L j O         O   B z ",
"l c       .   .   @ @ 7       1 = #   X         1 + ; O 1           @ O : O @ ; X     X   # # 8 @     @ 5 O ;             O B z ",
"j Z                   O O O .         .       %   O O   .   .   .       O           . . . .         O O . > .             O B z ",
"j c       .   . .     o . o         . + .                         . .   . .   .     o . . .   .     o o   o .             O M z ",
"l Z                 = = X   X   X                                             O         X   X   X X   =     #   .       O   B z ",
"k c         X     . . . & . . . . % .   o . . .                                   . . + %   9 .   %   . & .   .             M z ",
"n B .     .   .   o 0.y.%. .y.%.X.X.r                 .       . .     .     .       .       7.8.w.a y.y.0.q.Q   .     . . O N z ",
"k C O X X   X X   O 0.y.7.X.y.7.8.7.Y O o o   #     X X   X X   X X X X   X X X             7.7.w.Y r.y.0.0.Q   X X X X @ O c k ",
"7 v . .   .   .   .     &     .   +   . O .   O . . .     o .   .   .   . . .     . # + # . :     .     #       . .   . . O d s ",
"*.;.c Z Z A C A J c P P c c P A J J A Z A A Z J Z Z Z Z Z Z Z Z Z Z Z Z Z Z Z Z J Z Z c B c Z c A S B L l l P A Z Z Z A Z x :.&.",
"F O.s h j h h j l y 6 l h l c h l h h c h s y y h y j y h h j y y y y j y y y y 6 h l h h l 6 l k y j l 6 c y h j u h z h s I H "
};
