/* XPM */
static char *result[] = {
/* columns rows colors chars-per-pixel */
"64 64 239 2 ",
"   c #020202",
".  c #0B0103",
"X  c #140904",
"o  c #010A03",
"O  c #0B0A04",
"+  c #1A0003",
"@  c #1A0B12",
"#  c #020B0B",
"$  c #13090D",
"%  c #0B0A0C",
"&  c #011203",
"*  c #130103",
"=  c #0C030A",
"-  c #151825",
";  c #16081A",
":  c #02040A",
">  c #130513",
",  c #140C12",
"<  c #1B161A",
"1  c #13030A",
"2  c #26141D",
"3  c #0B0C12",
"4  c #1B030B",
"5  c #260915",
"6  c #14151A",
"7  c #020512",
"8  c #0B0411",
"9  c #070219",
"0  c #230006",
"q  c #15110E",
"w  c #597275",
"e  c #005C49",
"r  c #0B5D53",
"t  c #346764",
"y  c #034B3B",
"u  c #2B5452",
"i  c #244A49",
"p  c #033B34",
"a  c #1C4D4A",
"s  c #133C3A",
"d  c #15433D",
"f  c #0D352C",
"g  c #1B3935",
"h  c #086B59",
"j  c #01352B",
"k  c #334D4C",
"l  c #0D2C2A",
"z  c #032422",
"x  c #254B3C",
"c  c #231924",
"v  c #38353B",
"b  c #323B3C",
"n  c #031C1B",
"m  c #01221C",
"M  c #194442",
"N  c #0C443A",
"B  c #013224",
"V  c #024B43",
"C  c #175749",
"Z  c #011A15",
"A  c #23413C",
"S  c #344344",
"D  c #3B4444",
"F  c #01120C",
"G  c #1C2B2B",
"H  c #3E4749",
"J  c #0B4035",
"K  c #035143",
"L  c #0C544A",
"P  c #022B24",
"I  c #00442F",
"U  c #23564B",
"Y  c #0B2B25",
"T  c #35544D",
"R  c #14322D",
"E  c #2B534D",
"W  c #195554",
"Q  c #137360",
"!  c #16644B",
"~  c #2A0005",
"^  c #287966",
"/  c #031D22",
"(  c #023432",
")  c #335C59",
"_  c #225A52",
"`  c #131D29",
"'  c #424A52",
"]  c #233B3B",
"[  c #0C5846",
"{  c #00392C",
"}  c #002115",
"|  c #1B1D22",
" . c #020D19",
".. c #2B3B3B",
"X. c #46585B",
"o. c #254442",
"O. c #11373A",
"+. c #133333",
"@. c #182A33",
"#. c #021519",
"$. c #25020B",
"%. c #133C35",
"&. c #383946",
"*. c #2F2734",
"=. c #1D6B63",
"-. c #05534D",
";. c #357A75",
":. c #023D39",
">. c #3C766B",
",. c #1B0B0E",
"<. c #2C7D7E",
"1. c #1D363A",
"2. c #021313",
"3. c #094747",
"4. c #032628",
"5. c #1C3432",
"6. c #141E21",
"7. c #0D3B34",
"8. c #324E51",
"9. c #130F26",
"0. c #163F45",
"q. c #11796A",
"w. c #121314",
"e. c #042D2B",
"r. c #152B2A",
"t. c #335954",
"y. c #2C434A",
"u. c #3D595A",
"i. c #0C1A16",
"p. c #1C443C",
"a. c #320009",
"s. c #046649",
"d. c #005A40",
"f. c #051522",
"g. c #003A40",
"h. c #1C0807",
"j. c #05523F",
"k. c #3B4C4B",
"l. c #131B1C",
"z. c #425352",
"x. c #1B332E",
"c. c #0B221D",
"v. c #0D2222",
"b. c #2E3641",
"n. c #2C353A",
"m. c #23262B",
"M. c #434B4D",
"N. c #242D32",
"B. c #031809",
"V. c #0B141A",
"C. c #222425",
"Z. c #335552",
"A. c #2C4343",
"S. c #233936",
"D. c #142323",
"F. c #1D3C3B",
"G. c #0C281C",
"H. c #46434D",
"J. c #463641",
"K. c #1B2528",
"L. c #3C5757",
"P. c #37645B",
"I. c #3B5254",
"U. c #0D1D22",
"Y. c #2A836F",
"T. c #3A4E51",
"R. c #2C4B4B",
"E. c #0B4A3C",
"W. c #083828",
"Q. c #3B3E43",
"!. c #2C4A43",
"~. c #132B26",
"^. c #1A5349",
"/. c #253D42",
"(. c #2B423C",
"). c #0C1A1A",
"_. c #18211E",
"`. c #0B1314",
"'. c #1B1B1C",
"]. c #383A3B",
"[. c #22312F",
"{. c #344945",
"}. c #394847",
"|. c #354649",
" X c #333F43",
".X c #2B3335",
"XX c #1B2325",
"oX c #144B42",
"OX c #578C84",
"+X c #1D1416",
"@X c #0C4C45",
"#X c #29020B",
"$X c #0C3434",
"%X c #223738",
"&X c #2B3C41",
"*X c #272527",
"=X c #233333",
"-X c #1D4839",
";X c #30433D",
":X c #232B2C",
">X c #142429",
",X c #1B4B42",
"<X c #2B2C32",
"1X c #121B16",
"2X c #36232F",
"3X c #464C49",
"4X c #13221E",
"5X c #2A3A36",
"6X c #2A2E2E",
"7X c #1A2A26",
"8X c #2C7469",
"9X c #1D2D33",
"0X c #124D3E",
"qX c #064437",
"wX c #01291F",
"eX c #313334",
"rX c #296258",
"tX c #44635E",
"yX c #234A44",
"uX c #163C2D",
"iX c #186558",
"pX c #2D6A65",
"aX c #294D51",
"sX c #092E30",
"dX c #4C6464",
"fX c #255553",
"gX c #382634",
"hX c #1F1810",
"jX c #2C1F33",
"kX c #225A59",
"lX c #154E4B",
"zX c #46787B",
"xX c #398A83",
"cX c #097B66",
"vX c #018C6D",
"bX c #067454",
"nX c #4C6F73",
"mX c #0B313E",
"MX c white",
/* pixels */
"        :                               :                                                         :                   .   9     ",
"    7                         :        .                                                                7             7   o     ",
"      7 % 9 : =   : 7 9 7 `.          7   = 3 < = = 3  .    : 2.  3 3 7 = 8 3 3 9 7 7    .  : :   7 7 `. .`.7 : 7 7 : 9 .   . 9 ",
"#   7 R.p I M B %.f z f z f m Y qXj z +.$Xm n O.U.@.g n n O.( z p d #.O.O. .g %X2.z %Xz j p p z B N z %.z %.j j J $XoXI N   7   ",
"  * : oX2.z I M j %.7  .: m f j g Y j { wXZ U.7   7 7 2.g T.O.#.F.F.( R Y 2.  7 8   z ( R XXl p N z   : 7  .z oXp a P 2.a   8   ",
"      Z M m   2.  c.2.%.j z m             m F.( Y O.O.Y /             Y R #.2.s oXm U.  2.          Y z e.%.9 9     sXoXz       ",
"    2.Z M 2.      3   %.f 2.                Y ( F._                     #.R Y _ s             *     z K I N          .a P   =   ",
"  .   B m l %   # D.l.    Y g 2.    o n #.z g         %X&XU.          ~.i R       z i .         z =       2.z z     oXe.P       ",
"    #     # 2.2.%             ).p.2.n g Y               U.R / 2./ ,X%X                R D.z Z m l 2.        m :   =X2.  F.    # ",
"      U.#   l.#                 ( p.Y                 i.    n k _ 5.                    #._ i z               2.U F.    j 2.    ",
"o     p.  9 c.2.2.            e.%X  #.A .                 b k #.4.z z i.              Y D.U.2.z s             Y p 9     J       ",
"o .   {   l.m   2.#       3 g n       n Y `           @.n z #.      5.a R         v.%XR #.      F.R       `.z 2.    p.Z F.      ",
"  . 9 z a z         R 2.  A U.            U.a R   n A                 x.D.n @.    v.x.#.#.          R 2.  g 2.      Y z m       ",
"  =     oX          Z a (                     =X=Xn x.                    x.E p.@.                  2.,Xp             Z.m   `.  ",
"      m qX2.        2.p ( 2.                z ] tX+.U.                      R U R                     s p m     1   2.`.        ",
"      z J m       Y Y   3 aX~.            K.  +.  /.!.                e.+.e.U.  e.o.[.    =       #.R     i o       z p z       ",
"      Y Z ).    Z +       U.R i.        /.+.          5.!.6.          M fXe.      x./ @.        @.a ~.    2.Y n     = z 5.      ",
"    2.a   G Y   Z ~.        n U x.    /.!.K.            5.z.A     5.5.6.              @.!.      R `         #.F.  l 2.  D.      ",
"      3     Y $X~.            D.S R U.e.                  G %X@.%.a G                 U.F.F.F.+.              ~.Y g     g  .    ",
"    # Y 2.  Z 2.                +.Z.!.                      @.a >.s                       !.t.+.                R z     %.     .",
"    Z Y     7X( #.            z U.f !.o.                  @.tX#.M a sX                G @.  / !.              [.F.,X    `.  $   ",
"          m.#.  d #.      / z R       6.%X              %XtXsX      %XT.            *.|.@.    +.e.  U.        v.  D.U.  s   *   ",
"      ( U.:X2.  z .         S +.        %XA.:X        ] #.:           a T.          &X5X          5.U.      ~.      R z z     2.",
"      Y ( U.      x.R     x.XX            {.t.      dXA               : a M     ( s 1.            =XZ.    }.        %XN z       ",
"        _ 2.        5.U d R                 @.@.: ) p.                    : a a X.s                 +.U.U.            fX2.      ",
"        _ 2.          E @.                    M dXfX                : :   sX:.>.]                     fXfX            @X        ",
"2.    z +           D.  @.x.                !.) a fX$X: O               : fXa a 4.                  +.,X,X#.        n _         ",
"      s d R       ..o     k.4.            : I.sX: : 4.qX7.              a 7.        F.              5.    +.#.      z p 2.    = ",
"      / z     #.  =Xz     z R       #.  A.A         O fXdX/.      O b 7.rX$X       XrXF.        e.)          Xn     Y 2.2.      ",
"    2.d 2./ 4.  5.            M 7X    k.B.              H  XN     |.7.rX              N.]       o.+.        R 5.  R R   %X      ",
"            _ 5.5.            =X8.  s ] #.                O u.N @XrXO                   s rX  %XG             x./ 5.#.  D.      ",
"      %X    R rX                %.rXs                       {.nXdX3.O                   ( t tX                  _ R     8       ",
"      U.    R z                 %.8.M ]                     S nXnXdXO                     a s %.                _ R   2.%X      ",
"  U.  @.    E 4.U             ` S sX9X) %X                |.u.3.{.J v O               F.]     %.6.            5.#.#.    Y 2.    ",
"      Y   v.    A z         y.%.      %X!.sX            /.J         X.X.            ] Z.@.    / R.K.        +.R   v.]   %X      ",
"      %XY #.      R R     R A             !.y.       .X.b O           |./.O         a s           z /     @.A #.    R z         ",
"      Y R R       D.E / n R               a ) a : : o._ sX              O z.y.: a s                 !.+.  /         n i R       ",
"      2.F.          R U                       sXa $X                      y.) U rXsX                  E.,X>X          _ n       ",
"      z _             E E                     M dXa sX                      sX) M                   n ,X,X            _         ",
"    3 2.s Y       #.z   ..] n               @.T.p a fX                   XM sX  ( a sX              /   g Z.o       Y F.n       ",
"      Z z Y       a R     R &             A.@.      sX%XA.             XrXM     sXa s             qX,X    R R       z F.z       ",
"      5.z l 3   #.`.        R           k.p           M P.M           M M             A.m       sX!.        5.Y   2.Y   Y       ",
"      =X      2.Y             ] U.    +.5.              sXa M     t.T.                ( _ e.  5.+.            d #.[.Y   +.    9 ",
"      #.    m @X                4.R ] /                   @.@.M rXM sX                  R /.F.M                 z Y     x.      ",
"    2.g     l @X                  E E                       p t.kXp                       / ,X:.                i m     m     2.",
"      z     .Xo z             5.x.  5.jX                  %.tX  e.%X                    T./ U.fXR             Y l U.    +.      ",
"      $X2.6 ).  g l         5.r.        ..              4.9X6.      +.k             U.k.v.      XXi.          m     D.  %.      ",
"      $Xz         Y 2.      `.          v. X        &X@.@.            ] /.e.      %X              ;X#.    Y .       r.Z B       ",
"#       oX          g Y Y Z               U. XU.  U.(./                   ] z   O.O.>X              Y     Y         ).M o       ",
"      m J             5.5.                    (.) R                         O.Z.x.                    d i             M 2.      ",
"  8   z p.2.        Y z z 2.                x.A R R o.                  _.A p.R z 5.i.              z z j m         2.%.2.      ",
"      D.Y B       r.2.    Y z           i.r.4.i.    o.}.                z @.    n F.G             r.z     m Y       z z Y   =   ",
"      @.  z l.  f 2.        2.$X3     Y o.Y           4.R / /     @.] R             #.2.4.2.    z r.        Y z o l.6   Y       ",
"    9       @.Y i.            2.$XB Z 2.                    @.o.i.n 6.                  Y +.+.z               i.p 6.    m       ",
"      @.    D.$X`.              2.yXyXn                     f d Y n i.                    Y %.j             2.  M `.    Y       ",
"      @.  z z 2.$X2.        m Y       Y Y 2.          Z z z z     ~.&Xz             2.g z     6.$X2.        l.Y 2.w.`.  $X      ",
"      D.%.P #     Y l     z 2.          2.r.2.    / / O.Z               l.x.l.  z z Y 3     =     ).D.  `.2.9       m c.z       ",
"      2.M n         m p M 2.                  i.yXs                       Y +.$XyXz     *           l.Y %.m     .   Z $XZ     # ",
"      Y B P #     D.Y   # m z %         `.l z   2.2./ wXwX2.          2.z Y /   m z z m 2.      2.m z 2.Z Z m Z     z j 4.    o ",
"      (.m e.g { %.m m     # m J P e.M P wXc.        2.m wXj O.O.f R p.~.              c.g Y B p z Y #       c.$X$X$X4.Z $X      ",
"#     Y sXe.wX  P n l m.m.Y 2.z # # 2.w.c.c.#.K.K.v.U.Y l.z z z 2.#.z Y m Y _.).v.Y m Z z 2.2.Z # l.l.U.).m Y n 2.Z Y Y Y     * ",
"                                  # #                                       #     9                                             ",
"              *                                                                                                 =             . ",
"          3                                 o                                                                     o             "
};
