/* XPM */
static char *f497b2b670f040d7d1085cdffaacdf4exY40XIksnuom3m8A[] = {
/* columns rows colors chars-per-pixel */
"64 64 249 2 ",
"   c #010101",
".  c #01011E",
"X  c #0A0B1F",
"o  c #19191A",
"O  c #010223",
"+  c #0A0C25",
"@  c #01022C",
"#  c #070A2B",
"$  c #141524",
"%  c #1A1927",
"&  c #010234",
"*  c #030A33",
"=  c #01023B",
"-  c #040B3C",
";  c #0B0D3C",
":  c #0C0C35",
">  c #0E1237",
",  c #161738",
"<  c #100E32",
"1  c #251B2C",
"2  c #1D2027",
"3  c #1D2239",
"4  c #242629",
"5  c #292D39",
"6  c #000243",
"7  c #020B44",
"8  c #0A0C43",
"9  c #01054A",
"0  c #020C4B",
"q  c #0B0C4A",
"w  c #031245",
"e  c #02114E",
"r  c #0B134C",
"t  c #0A1548",
"y  c #121445",
"u  c #141A4B",
"i  c #17194B",
"p  c #020D52",
"a  c #090C51",
"s  c #030852",
"d  c #021454",
"f  c #0B1455",
"g  c #021956",
"h  c #02155A",
"j  c #0A155A",
"k  c #011C5C",
"l  c #0B1C5C",
"z  c #0C1954",
"x  c #131B55",
"c  c #121C5D",
"v  c #171957",
"b  c #120D4D",
"n  c #211E4D",
"m  c #02215D",
"M  c #08235D",
"N  c #1A2559",
"B  c #1D234A",
"V  c #25264A",
"C  c #37364A",
"Z  c #262859",
"A  c #2D3158",
"S  c #37375A",
"D  c #2F304D",
"F  c #011E61",
"G  c #0A1D62",
"H  c #021A64",
"J  c #121E64",
"K  c #022262",
"L  c #0B2364",
"P  c #0C2A65",
"I  c #03236A",
"U  c #0B2669",
"Y  c #0C2A6B",
"T  c #062969",
"R  c #132364",
"E  c #1B2464",
"W  c #14256A",
"Q  c #1B256A",
"!  c #132B6B",
"~  c #1C2B6A",
"^  c #192B64",
"/  c #15326D",
"(  c #122D71",
")  c #1B2C71",
"_  c #153374",
"`  c #1B3473",
"'  c #1C3B7B",
"]  c #1B3878",
"[  c #0D2971",
"{  c #232B64",
"}  c #232C6C",
"|  c #282B67",
" . c #29356A",
".. c #363968",
"X. c #262E74",
"o. c #243372",
"O. c #2B3575",
"+. c #263979",
"@. c #353C75",
"#. c #363B76",
"$. c #423F55",
"%. c #423E77",
"&. c #3E4167",
"*. c #2A437C",
"=. c #3C447B",
"-. c #39467B",
";. c #424458",
":. c #464669",
">. c #545665",
",. c #464979",
"<. c #4C5279",
"1. c #575879",
"2. c #4D506D",
"3. c #5B6373",
"4. c #616377",
"5. c #233D81",
"6. c #353B83",
"7. c #234182",
"8. c #2B4383",
"9. c #2C4B8B",
"0. c #294689",
"q. c #334484",
"w. c #3C4A84",
"e. c #344C8C",
"r. c #3B4686",
"t. c #3B5289",
"y. c #3A5596",
"u. c #364B90",
"i. c #454B84",
"p. c #434D8B",
"a. c #484885",
"s. c #495588",
"d. c #5A5B8D",
"f. c #565887",
"g. c #445394",
"h. c #445C9C",
"j. c #4B5898",
"k. c #545B9C",
"l. c #575B94",
"z. c #454E93",
"x. c #625E8B",
"c. c #57629A",
"v. c #516395",
"b. c #66668A",
"n. c #6D7289",
"m. c #74758A",
"M. c #676898",
"N. c #6C7198",
"B. c #73749B",
"V. c #757598",
"C. c #726F8F",
"Z. c #515EA1",
"A. c #4864A6",
"S. c #5C62A3",
"D. c #5769A8",
"F. c #586DB3",
"G. c #5975B5",
"H. c #5770A9",
"J. c #646DAB",
"K. c #686AA5",
"L. c #716EA6",
"P. c #6973A9",
"I. c #7374AC",
"U. c #737AAB",
"Y. c #7B7CAC",
"T. c #7877A4",
"R. c #6473B3",
"E. c #6B74B3",
"W. c #6C7CBB",
"Q. c #6A78B8",
"!. c #7A7DB4",
"~. c #7D7EBC",
"^. c #7479B6",
"/. c #676EB2",
"(. c #777DC3",
"). c #817F9A",
"_. c #807EB6",
"`. c #847FC1",
"'. c #7B83AA",
"]. c #7C84BB",
"[. c #7985B9",
"{. c #6B81BD",
"}. c #6983C4",
"|. c #7383C2",
" X c #7C83C2",
".X c #798BC8",
"XX c #7D97D4",
"oX c #5F83C1",
"OX c #8686AB",
"+X c #9496AD",
"@X c #8584B2",
"#X c #8A8BB3",
"$X c #8384BC",
"%X c #858ABC",
"&X c #8C8CBD",
"*X c #828AB3",
"=X c #8D94BB",
"-X c #9697B8",
";X c #928EB2",
":X c #999AB4",
">X c #8485C4",
",X c #848BC3",
"<X c #8B8CC3",
"1X c #848BCB",
"2X c #8B8CCA",
"3X c #8686C6",
"4X c #918ECA",
"5X c #8C93CC",
"6X c #8995C8",
"7X c #9393CA",
"8X c #949ACB",
"9X c #9799C6",
"0X c #8A97D4",
"qX c #9B9CD4",
"wX c #9599D7",
"eX c #898DD3",
"rX c #A19ECE",
"tX c #9AA1CA",
"yX c #9DA3DB",
"uX c #9BA8DA",
"iX c #A6A9CA",
"pX c #AAABD5",
"aX c #A3A4DB",
"sX c #A6A9D8",
"dX c #ABB4DB",
"fX c #B3B4DC",
"gX c #B6BBDA",
"hX c #B3B0D5",
"jX c #9B9DE3",
"kX c #9BA6E3",
"lX c #98B7F7",
"zX c #8DACEB",
"xX c #A4ABE3",
"cX c #A7AAE7",
"vX c #ACB3E3",
"bX c #AAB6E9",
"nX c #B7B8E6",
"mX c #B9BAF6",
"MX c #AEB4EF",
"NX c #C0BFDF",
"BX c #B9C2DA",
"VX c #BCC3E8",
"CX c #BBC5F7",
"ZX c #A5C4FF",
"AX c #C3C5EA",
"SX c #C8C8F8",
"DX c #D2D7F9",
"FX c #CED6F9",
"GX c #DCE6FF",
/* pixels */
"                                                . . < )._.-XAXnXVXAXfX#X#X:.                                                    ",
"                                          C m.V.:XpXiXpXpXAXAXnXtXnXVX9XiXdXhXiX).4.>.                                          ",
"                                      $.4.OXiX:XhXnXnXcXAXmXvXvXuXvXsXsXpXnXAXVXNX:X+XC.>.                                      ",
"                                  $.1.).hXSXAX4XqX4XrXqXaXcXmXvXxXqXMX<X8XtXpXgXAXAXNXNX;Xm.2.$.                                ",
"                                1.-XSXpXqXqXaXMXcX4X`.eX`.cXwX= cXwX& >X,XI.>XaXnXnXfXnXhXSXhXV.                                ",
"                            1.tXaX4X4X4XjX`.`.`.wXjXeXjXk.`.mX(.I.3XyXa.,.s.M.<XcX`.7XnXnXcXnXaXgXC.D                           ",
"                        1.#X-XgXjX4XS.`.S.K.eXeXjXwX/.cX(./.E.cX#.I.SXj.| | O.f.eX2XwX3XL._.cXmXAXgXiXm.4                       ",
"                      $.:XgX8X8XeXz.9 `.S.6.(.Q.jX(.X.jXjXK.b !.a.>XcX4X,.%.z.#.L.^.I.`.#.k.`.yXsXnXDXNX1.2                     ",
"                      BXtXtXuX].k.6 o.E.S.~ z.1XQ S.kX= 0X'.u uX| [.vX[.,XU.[.^..Xs. . X].1X XkXuXBXCXBXBX>.                    ",
"                  >.iXiXBX8X2XwXv.= c W.k.Q 6 o.|.yX0X{ M P.uX6XnXbX[.s.* [.CXbXv.= #.bXw.-.{.1X0XlXGXdXBXBX'.                  ",
"                3.:XBX*XI.,Xi.S.*.^ c.R.o.c..Xd J.{.H.& s.6XFXuXtX.Xf.@ H.dXCX[.J.^ q.R.M  .h.t.zX0XzXBX:XBXBX>.                ",
"              ;.:XAX'.B K.1X6 O.g e.{.^ g R.MXk = q e w.6XdXuXuX6X<.^ w uXxX{.w R.t.7 - m t.] d 0XG.v.oX<.'.BXBX4.5             ",
"              gXnXN.& 3XkX0Xs /.A.N *.+.6 +.z.H ~ 0 q.bXH.v.6X .t.` *. .e w P M M M L ! e d T h.zXh.m v.H.v.'.FXVX>.2           ",
"          $.;XfXsXaXMX^.c.E.(.6 .X}.w e.` h p F.}.h.L c.W.-.& O.*.*.+.k ` M g ! m e k _ T m _ A.lXlXH.M v.{.uXdXBXtXn.          ",
"          $.SXsX$XqXcXJ.6.J r.(.G.G.W 0.L ] F.A.D.h.(.6 (.zX.X-.*.( k U L ( K p m Y k d K F F 5.oXlXzXK ' {.0X6XdXGX:X          ",
"        $.OXhXsX<X^.S.s s 6.u.0Xy.0 G.p W G.(.] s u.F.h (.kXkX+.K h U H [ d I I K K H H T I I T 7 oXzX9.w A.H.t.uXVXiX;.%       ",
"        ;XSXmXaXwXK.r { = c.6X0 = j.|.l R.R.9 L F h p 5.q.F W 0.T L k K Y I g K k K T [ g I K d M ` t.e.[ g 0.XX0XZXBXdXD       ",
"        V.SXaXSXwXc.& = [.{.O.Q.{.F.Q l q.q.0 9 D.j.0.5.5.( U K F F K ( 0._ F g K _ 7._ T L T T P g M _ _ d I A.H.[.CXBX+       ",
"      m.rXaX7XMXyXcX5X^ s.W.D.J.S.g.l Q d d ` h.G.A.u.] U ! H h 7.( F K _ _ K F T ' 9.5.] F m h M / ' e g h.G.] *.[.dXiXOX$.    ",
"      gXhX4X_.`.cXxX,X .w w..X0 = 0 l l R O.y.}.t.Y Y L k F k I 9.' k g K K T _ 0.y.}.G.y.] Y h g / ' / g y.G.' h..XtXtXAXm.    ",
"      iXnXrX3Xq 0X>X7 7 D.^.E.q.^ L l P +.y.W.XX8.d d K T Y g K T I k k L T T 7.y.G.ZXZXA.9.7.T P ' ] y.m ' [ ! {.XX6X-XAX).    ",
"      iXAX4X4X= wXwX= = U.W.e R l l ! W.8.M *._ _ k F K I Y K K k K k K I K K ] 9.G.zXlXA.0.' m - M / ' w XXlXe.t.0X8X%XDX4.    ",
"    +XpX7X>Xa.eXcX].x s.].W.9 J P ^ ` H.+.g U 0 g T K k k m T K Y T k k K g m [ 9.y.G.F.u.7.( k / m m M 9 F..X! ! [.uX%XiXiX4.  ",
"  >.AXpX&XI.= 3XxXaXw..XwXJ.9 } g ` e.0 g M L T K _ g g K k K K K K k K ( K K T _ 0.9.T ' K K K g / g m T p 6 U h.H.P.$XrXNX-XO ",
"  3.dXsXjXK.%.= jXMXxXMXJ.6 d Q 8./ 6 g d d g K g K Y T g h k T k k K K K F k k F [ ' ' ( K K L T m K L F H W G |.g.x N 8XVX=XO ",
"  2.nXsXaXjXjX`.r.{  .-.x c } f l e d g d 7 g ! k K K K m K K T K F K K F K F K F Y _ _ T K F K m g K k k F K G q.6 r.].@ sX9X; ",
"  x.vX6XjX`.z.(.J.i.#.z 0 J s j 0 = l 0 g d g L m F k k F K K F T I K K F F K K K K K K K K k k g k k K L K F G e Q.0Xp.!.uXvXU.",
"  '.8XL.^.k.O.(..Xl.p.^ x a 6 J 0 g L 0 g L k g L K m m F k k g ( Y L K k K K L K F k k k K K F g I L I ( W G L d F.J.7 5X[.2XyX",
"N.tXbX5Xp.6.(.1Xi.0 q N 0 6 s a 0 l g l p d G L L L I L K F K I ( Y L K K k K L U K g h m T K K k T K L ( W F W ) j 6 ~ } = ^.5X",
"[.uX7X,X^.Q.eXQ x = & x e 6 s 9 d g = l d 0 g W d h h k k k K L T I K K F K K K T K k k K I U K g K F K U L G G ) 0 F.jX{.i.c.uX",
"v.dXkX.X/.z.(.6.= 0 = r f 6 6 s z j d j d d g l l F h g F F k h K K K K K K K F K K k F K L K K F k F K F G U U p j.D.D.r.-.R.1X",
"b.[.uX0Xj.Q (.Q 0 & 7 x 6 6 j G d X.p.l 9 d j d q.+.( W ( ( G h g k k F K K F k F k K K F K K K T m K U H U ) W 9 .XR.0 z.R Q.kX",
"v -.xXeXj.9 J J r & w e c 9 s J 0 t.Q.W 9 h F o.(.h.h [ ( 0.H H K K m K K K m K K m K F F K F F I H T M M  .*.M M .X(.G (.a.^.$X",
"v l.kX1Xk.Q ^.z.= t 7 7 6 9 s 5.^ l ~ z g 0 W G.u.[ 5.5.( H H I K K K K F K F K K K F K F m K F k F m d m M M M G.y.9 J O.K.8XaX",
"v.6XwX3XS.X.(.{ 7 t 7 t = j G J o.l z g l j R e.H 5.F.9.[ H h U K K K K K K K K m K K m K F K F H T m m P M g P / Q.F.) } @.[.%X",
"<.%XaX3Xa.J K.^.@.* t & & 6 j j ^ -.j.d 0 l g p 9 A.(.] [ G s U K K k K K F K m K K K K K K m K F K m d M m g K w A.F.+.J.i.P.8X",
"  <.pX7Xl.#.Z L.s.@ - * y a 6 } z #..X~ p e d 0 9 u.F.s ( F G H m K K m m K m K K m K K K K m K I H K k m / ` k U p h Q Q.].6XN.",
"  ..9X&XI.I.= 8 & * i y - & & >Xp.p.W.x = = g J r.5.5.G G H L H K m K F K m K m m K m K m m K K [ I Y T K *.8.K h H W R } K.U.B ",
"  $.rXOX).7Xd.@.: : O @ & 8 b a.E | j.S.w.0 7 6 F.g.p +.p H G h K m K K F K K m K K m K K m K m H H F g m P T h h [ p ) r P.<.B ",
"  $.iX-X_.L.M.n @ A C.M.Z & n & 7 = r ].k.= c j.S.j.6 p G p G F m k m m m m m m m m m K m m m m H I H k K m g K U s R e v.%XB.. ",
"  $.+XOX;Xf.: n O 1.9XV.<.n y ; x @. .>Xa.6 O.E.i.c g 0 W p G R k g h k L M k g K M K K m K m K ( H H F g K F p J J p w.].-Xb.  ",
"      +Xb.< < L.x.O O , 1.M.* @ M.$XcX].s.9 q r E.p.J E d h 0 l g g G K K k k m m K m m K m K m H F U F g g L l H 9 z.>X8X<.    ",
"      :X-Xx.).%.1.x.# # # S Y.=X2X_.a.$XI.E.^.x r.o.a ^ z J 0 j 0 0 g g g p g g k M m m m m m M h p h l d g ! ) Q 9 O.,.9X1.    ",
"      ).rX)._.n N.B.O + <._.#X_.M.#.& 2XK.M.l.E 6 = 6 0 c f j J d l c J R l l R l k m g m m g k H s g M 0 9 W 6.9 6 f ,.iX2.    ",
"      OX:X;X).x.x.b.S &.V.9XN.A b & ..^.l.& & q r q z 6 a = e j f f f j J J l h g l g k l g k k p j J R q 0 ^ O.f = | T.OX>.    ",
"        2._._._.f...b.pX<.O i Y.%...4X_.#.& { Z q f x a 9 = 6 9 9 9 6 9 a 0 0 6 j g g z g g g g f G c 0 0 E ^ 0 a = I.;X.       ",
"        4._._.4.B O &.-XOXb.O ; M.L._.,.& & v = = 6 7 a 7 0 6 6 a a a a a s 0 9 h d g g g h g g l a 0 6 0 N E a E.| L.rX1       ",
"        $.L.).M.:.f.O :.N.T.d._.x.L.l.& M.I.& q x q 6 = 9 r a 6 9 a a a 0 6 6 6 j j j d g g h g c 6 7 7 & & f #._.>XM.x.,       ",
"          S &X_.`.l.a.b l.4XT.4Xa.= b = Y._.& ; 8 8 8 q 9 9 s s = 0 9 6 6 a j 9 a b v v b = & ; * * & 7 6 E O.r.K.9XOX          ",
"          D M.&X4X`._.`.`.^.&X& 6 Z & ; - & i & & & = = = = 6 6 0 6 6 6 6 s v j 6 = 6 6 8 = = - * & N w.= S.J.= i #XC.          ",
"          , V T._.`.4X<X3X_.I.| M.L.= & @ * y @ @ * & & = = = = & & 7 y 6 = 8 8 b = & & & & @ = &  .N e -.| ..&X7X1.<           ",
"            . S _._.L.`._._._.= ,.a.& M.%.O O # * * @ @ @ * & & * @ * & & y N 8 = = = = @ & y | = N -.^ x @.].=XN.V             ",
"              O 1.V._.L._.4XK.a.i & s.c.s.A * # . . . O . O O O . . # y A S Z & y 8 - - & & u A e N @.s.x N.=X'.                ",
"                  $._._.4XL.6 /.,. .Y.& T.B.. : O . . . . . . O . . > D S i * * Z u - & & @ & * = 0 k.%XZ =X=X                  ",
"                    i ).4XI.`.4X=.t @.'.M.> ; O # O # + + O + + $ + X # > O O i - & * & & & * - x O.{ ,.=X3.#                   ",
"                      $.M.4X`.a.c.,.= 7X[.&.; O O @ O O O O O + . . . O A A ; - @ & = - & @ * w v v a.&Xx.D                     ",
"                      # S Y.~.%.^.I.@.l.@X!.; ..%.,.:.O O O > S :.2..., Z V y & = = & t & -.-.N L.d.M.'.,                       ",
"                        O $.T.Y.!.$X$X& M.M.b $XT.8XM.& ; > S '.@X#Xb...i & & - = 7 - r -.M.c.-.<XvXB.+                         ",
"                          , i # B.x.aXI.| @.&XY.$XY.%X%X%X%XP.y * n ; ; = = - ..& Z  .A U.[.'.=X:.O                             ",
"                                S x.D -X@XN.<Xd.d.l.i.i.s.,.&.* i v = = i v 8 { u s.P.N.=Xb.<.N.+                               ",
"                                    . 1.B.b.M.<.,.d.l.s.N * t t @...u t ,.l.f.d.d.N.B.N.n.S                                     ",
"                                          + :.N.<XL.%X].s.A -. . . .@.-.M.I.[.Y.'.b.3                                           ",
"                                            < , # u  .&.'.oXP.6X,X].].[.d. .B , # +                                             ",
"                                                    u w -.-.s.s.s.-.,.s.B *                                                     "
};
