/* XPM */
static char *_10115a9d8834f1ee74e9914f5318b46nWREiumYMsMFyvbr[] = {
/* columns rows colors chars-per-pixel */
"64 64 235 2 ",
"   c #010101",
".  c #00000D",
"X  c #03030E",
"o  c #000110",
"O  c #030411",
"+  c #020315",
"@  c #000116",
"#  c #070811",
"$  c #0B0A12",
"%  c #0C0E12",
"&  c #00011A",
"*  c #01031A",
"=  c #050419",
"-  c #04041B",
";  c #03041F",
":  c #04061C",
">  c #08091D",
",  c #110B16",
"<  c #111214",
"1  c #14161E",
"2  c #000124",
"3  c #010324",
"4  c #030424",
"5  c #010625",
"6  c #060725",
"7  c #030827",
"8  c #000228",
"9  c #010429",
"0  c #030428",
"q  c #030729",
"w  c #06042A",
"e  c #01022D",
"r  c #01042D",
"t  c #03042C",
"y  c #01072E",
"u  c #03072F",
"i  c #070B29",
"p  c #010A2F",
"a  c #040A2E",
"s  c #070B2F",
"d  c #090A29",
"f  c #0F0D2A",
"g  c #0C1028",
"h  c #111228",
"j  c #17182A",
"k  c #1C1C28",
"l  c #010832",
"z  c #030C33",
"x  c #030C37",
"c  c #010F37",
"v  c #060C34",
"b  c #090A30",
"n  c #010B38",
"m  c #060D38",
"M  c #021034",
"N  c #0B1131",
"B  c #02143B",
"V  c #041438",
"C  c #01103C",
"Z  c #07113C",
"A  c #04143C",
"S  c #07153C",
"D  c #0B1138",
"F  c #0A1538",
"G  c #0B113C",
"H  c #0C153C",
"J  c #08193D",
"K  c #121331",
"L  c #161930",
"P  c #1C1C32",
"I  c #101538",
"U  c #13153A",
"Y  c #10163D",
"T  c #141B3C",
"R  c #1C1E3A",
"E  c #23212F",
"W  c #232430",
"Q  c #21223A",
"!  c #25253B",
"~  c #2E2F38",
"^  c #2A2C3D",
"/  c #041440",
"(  c #061640",
")  c #0B1640",
"_  c #0B1A41",
"`  c #081A42",
"'  c #0B1D44",
"]  c #0C1F46",
"[  c #121742",
"{  c #111A40",
"}  c #151B42",
"|  c #121E45",
" . c #1B1F42",
".. c #1C1F43",
"X. c #1B1F4B",
"o. c #142447",
"O. c #1F2446",
"+. c #1E2546",
"@. c #10224A",
"#. c #15244B",
"$. c #14254F",
"%. c #1A244B",
"&. c #1F254D",
"*. c #1F284B",
"=. c #1F2D4F",
"-. c #162950",
";. c #1A2950",
":. c #1C2953",
">. c #1E2F56",
",. c #232143",
"<. c #252745",
"1. c #292D45",
"2. c #27274C",
"3. c #25294B",
"4. c #272F4E",
"5. c #2F304D",
"6. c #323741",
"7. c #363743",
"8. c #303045",
"9. c #39394F",
"0. c #242A50",
"q. c #252A55",
"w. c #242D55",
"e. c #2C3756",
"r. c #24335A",
"t. c #293058",
"y. c #2E325A",
"u. c #323251",
"i. c #373450",
"p. c #303255",
"a. c #303759",
"s. c #33375E",
"d. c #3A3A58",
"f. c #273860",
"g. c #303B62",
"h. c #303F62",
"j. c #3A3C60",
"k. c #383D63",
"l. c #303D68",
"z. c #3A3E68",
"x. c #403F52",
"c. c #403E60",
"v. c #3D404F",
"b. c #3D4058",
"n. c #3B4162",
"m. c #314269",
"M. c #384168",
"N. c #3C4268",
"B. c #3C446B",
"V. c #3D476D",
"C. c #3C4A6E",
"Z. c #354B71",
"A. c #3B4B73",
"S. c #42424F",
"D. c #424258",
"F. c #41425A",
"G. c #44435F",
"H. c #4A4859",
"J. c #414563",
"K. c #414264",
"L. c #464764",
"P. c #464B63",
"I. c #4D4D63",
"U. c #42456A",
"Y. c #454769",
"T. c #474B6D",
"R. c #47486E",
"E. c #454C6C",
"W. c #49486A",
"Q. c #4C4B68",
"!. c #4A4F68",
"~. c #4B4B6E",
"^. c #4C4F6E",
"/. c #4F5068",
"(. c #555665",
"). c #545268",
"_. c #56576B",
"`. c #50506E",
"'. c #51556D",
"]. c #585969",
"[. c #434772",
"{. c #414B71",
"}. c #474B71",
"|. c #4B4871",
" X c #4B4C73",
".X c #4D4D74",
"XX c #455075",
"oX c #4B5072",
"OX c #4B5077",
"+X c #4F5675",
"@X c #47577C",
"#X c #4F517C",
"$X c #4F577C",
"%X c #505072",
"&X c #505076",
"*X c #535276",
"=X c #555576",
"-X c #575874",
";X c #555977",
":X c #595D76",
">X c #505578",
",X c #56587E",
"<X c #5D5B79",
"1X c #5A5A7C",
"2X c #606276",
"3X c #63637D",
"4X c #60627F",
"5X c #68667D",
"6X c #5B5E81",
"7X c #5E5F81",
"8X c #5A5B86",
"9X c #5A6280",
"0X c #5A6086",
"qX c #5F6386",
"wX c #51648B",
"eX c #586B92",
"rX c #636981",
"tX c #646886",
"yX c #686981",
"uX c #6A6D80",
"iX c #6B6B87",
"pX c #616388",
"aX c #636A89",
"sX c #65698D",
"dX c #6C7180",
"fX c #6E7289",
"gX c #707083",
"hX c #72738A",
"jX c #6C6D91",
"kX c #607397",
"lX c #6D7392",
"zX c #757593",
"xX c #797E93",
"cX c #7B7E93",
"vX c #818797",
/* pixels */
"                                                . . = H.W._.hXiXfXhX5X!.).!                                                     ",
"                                          k S.D.].3X2X3X5XhXhXiX:XiXhX-X2XrX5X2XH.6.~                                           ",
"                                      E 7.I.2X].5XiXiXpXhXjXtXaX6XtXrX9X4XiXhXfXgX].).S.~                                       ",
"                                  W 8.H.5XzXhX*X1X*X<X1X1XpXjXaXpX<XsX X;X:X4XuXhXhXgXgX).S.^ W                                 ",
"                                8._.zX3X1X1X7XsXpX*X|.#X|.pX1X2 pX,X& .XoXK..X7XiXiXyXiX5XzX5XD.                                ",
"                            8.:X7X*X*X*X8X|.|.|.1X8X>X8Xy.|.jX[.K..X<X2.<.4.d.%XpX|.&XiXiXpXiX7XuXx.j                           ",
"                        8./._.uX8X*Xs.|.g.j.>X#X8X8Xk.pX[.z.z.pXO.K.zXt.U U } 5.6X.X6X.Xd.~.qXjXhX5X2XS.<                       ",
"                      E ].uX;X;X#Xq.2 |.g.X.[.V.8X[.[ 8X8Xj.w U.2..XpX*X<.,.q...d.U.z.|...y.|.6XrXiXcXgX8.%                     ",
"                      dX:X:X9XT.y.2 { M.g.H q.OXH g.0X& @XP.i 4XT T.pXT.oXK.T.U.XX4.T }.E.OX~.0X4X5XlXdXdX~                     ",
"                  ~ 2X2XdX;X&X,Xe.& m V.p.G 2 | {.9X$XT B n.4X>XiXaX/.4.9 T.lXaXe.& O.aX*.+.C.OX@XkXvXrXdX5X/.                  ",
"                6.].dX!.K.oX3.s.o.F a.m.} s.{.M U.{.m.2 i.:XcX9X:X{.9.2 h.rXlX/.n.{ %.m.z T r.=.wX@XwX5X].dXdX~                 ",
"              W ].hXP.g j.OX2 } a :.C.{ c N.sXS e w M t.:XdX9X9X:X9.O.v 9XaXXXl C.q.y & c >.] a $XZ.e.Z.6.!.dX5X7.1             ",
"              uXiXb.& .X0X$Xe z.f.N o.o.e &.s.G #.M t.aXA.K.2X3.a.;.w.3.Z M @.` ` _ ` ` c c B r.wXr.B e.m.e.P.xXhX~ %           ",
"          E ).yX4X0XsXU.a.N.[.2 XXA.5 r.$.A C C.>Xj.| U.OXe.9 t.r.r.t.` ;.' / #.` M A $.` B @.f.eXeXm.M e.C.4X4XdX:Xv.          ",
"          E zX4X~.1XpXj.X.m &.[.m.m.} >.` ;.A.N.{.M.=Xl 1XkX<Xd.g.w.@.-.$.-.] c ] @.Z A S S A -.Z.eXwXM ] C.$X>XrXvX].          ",
"        E I.5X4X%XU.s.e e X.:.$X>.a m.C | XX=Xw.C M.XX] 1XiXiXe.@.] ;.] >.J @.] ' ' ` ` ` / / ` 7 Z.wX-.7 r.s.>.9XfX2XW $       ",
"        ).zXjX7X,Xd.s I & a.+Xs e d.>X{ {.{.c $.@.] ] g.j.@.r.m.;.;.@.-.>.-.` @.] ] @.@./ ] / M V @.=.=.Z l $.@X$XkX5XdXL       ",
"        D.zX7XzX,Xa.& 2 T.C.| {.{.A...{ a.j.C / }.E.m.m.m.r.r.-.-.-.-.f.m.r.@.@.@.>.r.;.@.| ] ` ` M M ` ` l C f.m.T.lX5X#       ",
"      S.<XpX=XsX6XpX>XF 4.C.m.P.K.s.{ &.` ` e.{.$X}.B.h.r.s.-.$.C.m.-.-.f.f.-.@.:.f.h.r.>.` ` S J ] $.z l r.m.] o.T.3X2XI.W     ",
"      uX5X&XW.|.pXqX XT 5 t.}.l e C | @.%.a.C.6XT.r.r.r.>.>.>.r.C.m.>.-.r.-.>.r.m.C.;X$Xm.>.@./ B @.-.] c >.m.] r.XX:X:XhXS.    ",
"      2XiX<X`.0 $X.X5 5 h.~.~.t.$.| ] -.a.C.6XuXm.$.$.r.f.h.>.f.m.r.r.>.f.f.r.m.C.,XkXkXB.r.r.@.@.-.$.>.M ] / S C.@X+X].hXH.    ",
"      2XhX&X&X& ,X,X& 2 L.XXc | { ] ;.;Xm.;.n.h.h.>.>.f.h.h.f.f.w.r.>.e.f.f.r.m.C.>XkXkX{.g.t.] l J @.-.5 @XeX;.;.$X;XXXxX7.    ",
"    (.3X*X.X2.>XpXT.s t./.XXl } @.w.e.&Xh.@.r.@.-.f.f.>.r.f.h.f.m.m.f.r.a.r.r.m.A.}.$X$XB.h.>.` -.' B J 2 l.A.S S T.4X/.2X2X7.  ",
"  ~ hX3X%XK.2 .XqX1X3.{.1X}.l &.` t.M./ @.>.r.f.f.B.r.f.f.f.f.f.f.f.f.f.A.r.r.r.m.C.A.>.r.@.@.] J $.A A ` a 2 F r.m.n..X<XdX].O ",
"  6.rX4X8Xj.,.2 8XsXqXsXL.y B &.y.>.Z @.@.$.-.r.>.f.B.m.f.f.f.V.f.f.m.r.r.f.r.r.>.h.h.m.r.-.@.$.@.] S ' / c ) c C.w.b N ;XfX/.o ",
"  ^ iX4X7X8X8X|.&.U T q.T } &.[ #.` ] @.$.` ;.m.r.r.r.m.f.m.m.C.m.m.m.m.f.f.f.f.>.m.h.r.>.-.@.@.' / ` C Z c n n %.2 &.T.@ rX;X5 ",
"  i.tX>X8X|.q.[.j.3.O.Z l } C [ / y -.` -.=.>.s.f.f.r.f.a.m.m.m.C.m.m.m.f.r.f.f.f.f.r.-.-.-.@.@.` S / / ` C M c 7 M.,X3.T.9XtXJ.",
"  P.,Xx.U.y.} [.{.p.t.| T G l %.` @.%.] >.r.>.r.m.f.f.f.m.m.m.m. XA.C.m.f.m.r.m.f.>.>.%.$.-.-.@.` @.| / @.` Z / a l.k.2 >XT..X<X",
"b.:XaX$X3.%.[.OX3.z w  .c y C H A -.@.>.@.:.r.m.b.m.m.B.m.m.A.C.XXC.C.m.m.f.m.m.m.r.>.#.-.;.-.@.@.@.` ` @.] c m ) e 2 S Y & U.>X",
"~.9X=XoXU.B.#XG s 2 2 T c e C c ` @.c >.$.$.>.M.f.f.f.m.m.m.B.C.C.C.m.m.m.m.m.r.m.f.>.>.-.>.%.@.` ` ` / ] / M M ) e h.8XA.3.a.4X",
"e.rX0XXXz.q.[.X.& l 5 Z Y e l B ] -.| ;.$.;.>.m.m.f.f.m.m.C.m.m.C.C.A.m.m.m.m.e.f.f.>.>.-.>.-.@.@.` ` / A A A A y t.h.g.&.+.M.OX",
"9.T.4X@Xt.G [.G 9 & y T e y [ @.` y.}.>.` ;.r.r.=X/.Z.C.XXXXC.m.m.m.m.m.m.m.f.f.f.>.f.r.-.-.-.@.-.] ` ] A ` ) G 0 }.M.0 w.Z B.0X",
"b O.pX>Xt.0 m x 9 & s l | l c %.` n.1Xe.J >.>.T.fX:Xf.C.XX,XA.B.C.C.m.m.m.m.f.f.f.f.r.>.-.-.@.@.@.` ] ` J T o.M M XX[.c [.2.U.|.",
"b y.8XOXy.G |.q.& 7 y l l l c r.w.-.r.;.=.$.m.tX;XC.+X+XC.m.m.m.m.m.m.m.f.m.f.f.f.f.>.r.-.$.-.@.` ` ` Z S A M M m.>.0 m { j.-X9X",
"y.+X1X Xs.[ [.I 5 9 e v e [ | X.t.$.;.@.>.r.a.OXr.OX5X;XC.m.f.A.m.m.m.m.m.f.f.f.f.f.r.-.-.@.@.@.` @.` B ` S M z J B.l.) H ..~.!.",
"1./.6X X2.l j.[.,.* b 0 0 e [ [ >.d.U.o.' r.;.>.@.4XfXT.C.m.r.B.m.m.f.m.m.f.f.f.f.r.r.-.-.-.@.@.' ` ` C J / M c 5 f.l.| k.3.M.;X",
"  1.rX&Xp...K x.4.@ & 9 K G l &.| d.2Xr.] ] %.-.@.;XtX-.A.r.m.f.f.m.m.f.r.f.f.f.r.r.-.-.-.-.@.] ] ` / S C @.] c C e l G B.~.$Xd.",
"  R :X%XK.c.0 4 * & d f 0 0 2 ;Xj.n.;X3.C / ;.a.oXT.P.m.m.f.B.f.f.f.f.f.f.f.f.f.r.r.-.-.@.@.@.] @.] ] ` A o.#.c l M Z Z Y j.J.g ",
"  E <XI.H.*Xe.O.> & o 2 0 w Y d.X.u.T.T.B.` ` / 9X+X>.T.>.f.m.f.f.f.f.f.f.f.f.r.r.-.-.-.@.@.@.' ` ` B A A B B l l S 9 ) 5 M.1.g ",
"  E 2X_.R.x.d.f @ L S.d.K 2 P 2 c 2 | 1XT.n q./.<X;XB -.r.r.r.f.f.r.f.f.f.f.r.>.-.-.@.-.@.@.' ' ` ` B M M M a c C e Z 9 e.).D.. ",
"  W (.I.).5.= f o 8.;XD.1.P K f T 4.3.7XK.Z h.:XT.y.%.#.m.-.r.k.>.>.>.>.f.r.-.$.-.;.-.@.@.] ' ' @.A S B c c c 0 m m e 3.~._.9.  ",
"      (.9.: : d.i.o o > 1.L.9 5 G.=XaX;XD.C  ...:XT.r.a.$.>.@.r.;.;.r.r.r.-.$.-.@.-.@.@.' ' ' ` A A ` c c l c c c 0 q. X;X1.    ",
"      ].].i.H.,.8.i.+ @ O P L..X;X=Xd.<XoX=X=X3.M.s.X.r.;.t.' >.@.@.-.-.@.] @.@.@.@.@.] ' ' ` ` B z c l y a S ) G 0 [ <.;X8.    ",
"      H.<XH.W.f b.D.o O 1.W.).).G.4.2 :X~.I.P.w.Z n Z S r.%.=.w.@.;.w.>.w.-.-.>.#.@.] S ] ` S B A e c c 0 0 G X.0 2 l <.2X^     ",
"      I.].).H.i.i.9.P Q x.:XK.P w 0 ^ &XL.0 0 ) | ..$.G [ n ` $.%.%.@.;.;.%.o.] ` @./ / | / B S z z Z Z w 9 H } s 2 U G.I.~     ",
"        1.W.W.W.5.R 9.5X1.. d P.,.^ <X'.4.2 O.,.G | #.| C l / G / M / n @./ Z l [ S ) S S C B c z A m 5 2 S F 5 w & K.)..       ",
"        7.|.W.7.f . ! ].I.9.o & d.L.'.6.0 0 { e e e c ) A A c / H ) ) ) S / n n / S / S A A C c b e 2 2 0 b S 9 M.U c.1X,       ",
"        W S.H.d.! 5.. ! d.K.u.W.i.j.y.0 c.!.0 G T H l e c S G l c G G G m l l y [ / S M B M l c v 2 5 2 & & a ,.W.|.d.i.>       ",
"          P '.W.|.p.2.w p.*XL.*X2.& w & P.`.0 f v b N S n n c c e c c e e G T l G w T b w & & ; & * & 5 2 D } &.j.=XI.          ",
"          j d.`.*X|.W.|.|.U.`.& 2 K & 2 & 2 f 2 0 0 e 0 e e l e c y e y l c T H 0 e 0 2 5 2 & 5 * & N *.2 s.d.& s ).S.          ",
"          > h K.W.|.*X%X&XW.K.U d.c.2 & & & d 2 2 5 0 0 e e e y e 2 l K e e w w w & & & & & @ & & T N 9 O.I R '.=X8.:           ",
"            o P W.W.c.|.W.W.W.& <.3.& d.,.o o + & & 2 2 2 0 0 0 0 2 0 2 2 f N 9 & 2 2 & & & 6 Y 2 N O.F s O.T.'.d.h             ",
"              o 8.D.W.c.W.*Xz.2.d & 4.a.4.P & @ o o o o o o o o o o & d j P K & w 5 2 & & & i j 9 N ..4.s b.'.P.                ",
"                  W W.W.*Xx.2 z.<.T L.& G.D.. : o . . . . o o o o o : j P d & - K i 5 & & @ & * & 9 y.^.K '.'.                  ",
"                    d H.*XK.|.*X,.i O.P.d.& ; . @ o + O O o O O $ O . + 4 . . d 2 & & & & & * 5 b } H <.'.6.@                   ",
"                      E d.*X|.2.e.<.& =XT.Q 5 . o @ o o o o o O . . . o L L : 4 @ & & : & @ * q b b 3.'.i.j                     ",
"                      @ P L.W.,.U.N...p.Q.U.- R ,.<.! @ . O : P ! ^ R > K h 6 & & 2 & i & O.O.g K.u.d.L.>                       ",
"                        o W K.L.T.|.|.& d.d.w ~.L.;Xd.& 5 : P P.W.).9.R d & & & 2 5 & w O.d.e.*.oXtXD.O                         ",
"                          > d @ x.i.rXK.U ..'.L.~.L.T././.oXn.6 & f - 5 2 & 5 R & K T j n.T.!./.! .                             ",
"                                P i.j ].Q.b.%Xu.5.e.3.3.4.<.Q * d b 2 & d s 4 I d 4.n.b.'.9.1.b.O                               ",
"                                    . 8.D.9.d.1.<.p.p.4.N * q 7 R R i 7 <.p.5.i.u.b.D.b.v.P                                     ",
"                                          O ! d.%XS.^.|.4.L +.T T T O.O.d.K.~.L.P.9.g                                           ",
"                                            : > @ i T Q P.Z.n.+X XT.T.T.u.T g > + O                                             ",
"                                                    d 5 O.O.4.4.4.O.<.4.g &                                                     "
};
