/* XPM */
static char *_cc0ebf2e69049cbedb71f0151899532WGCOmkPgDUbrhvQG[] = {
/* columns rows colors chars-per-pixel */
"65 64 157 2 ",
"   c #010101",
".  c #080816",
"X  c #0B0B1C",
"o  c #13071C",
"O  c #04141C",
"+  c #06161D",
"@  c #03211F",
"#  c #060C21",
"$  c #1B0424",
"%  c #130C23",
"&  c #1C0C2C",
"*  c #0C1322",
"=  c #081A25",
"-  c #0C1C2B",
";  c #14142B",
":  c #0E1A35",
">  c #1C1133",
",  c #191A35",
"<  c #23052D",
"1  c #22092E",
"2  c #270935",
"3  c #2C0B3B",
"4  c #32073D",
"5  c #310A3D",
"6  c #26123A",
"7  c #24143C",
"8  c #052529",
"9  c #0A242D",
"0  c #052A2D",
"q  c #0B2D36",
"w  c #122B3C",
"e  c #063235",
"r  c #07363A",
"t  c #0B343B",
"y  c #073A3D",
"u  c #093A3D",
"i  c #340C43",
"p  c #3A0C46",
"a  c #360F48",
"s  c #3C0D4A",
"d  c #2D1342",
"f  c #241D45",
"g  c #2F184C",
"h  c #34144B",
"j  c #3A114C",
"k  c #3C1553",
"l  c #341C54",
"z  c #3B1B58",
"x  c #1A2945",
"c  c #0C3C43",
"v  c #0E3B46",
"b  c #153649",
"n  c #1C3A55",
"m  c #24254B",
"M  c #2A2A57",
"N  c #33245A",
"B  c #24365B",
"V  c #3B2866",
"C  c #392D6B",
"Z  c #293A64",
"A  c #333469",
"S  c #3A3976",
"D  c #430E53",
"F  c #44155B",
"G  c #42185B",
"H  c #4D1562",
"J  c #451C63",
"K  c #54166A",
"L  c #4F1E70",
"P  c #5A1B75",
"I  c #641A79",
"U  c #46226A",
"Y  c #4C2473",
"T  c #482A77",
"R  c #542379",
"E  c #44337B",
"W  c #0B4346",
"Q  c #0C454A",
"!  c #0D494E",
"~  c #11424E",
"^  c #0E4D51",
"/  c #144353",
"(  c #18485B",
")  c #0F5155",
"_  c #0F545A",
"`  c #115157",
"'  c #12555B",
"]  c #11595D",
"[  c #0F5D61",
"{  c #195364",
"}  c #1A5768",
"|  c #254569",
" . c #21526D",
".. c #2B4973",
"X. c #33467B",
"o. c #255878",
"O. c #156369",
"+. c #1C6373",
"@. c #176C72",
"#. c #1A6B76",
"$. c #19747B",
"%. c #6B1C84",
"&. c #582983",
"*. c #493784",
"=. c #4E3A8B",
"-. c #54338B",
";. c #5F2F92",
":. c #593996",
">. c #652489",
",. c #72218F",
"<. c #63339A",
"1. c #752CA2",
"2. c #6839A4",
"3. c #763CB5",
"4. c #394B85",
"5. c #2C5A82",
"6. c #335385",
"7. c #35568A",
"8. c #3D5794",
"9. c #1C7984",
"0. c #296587",
"q. c #236B84",
"w. c #2E6890",
"e. c #366799",
"r. c #297895",
"t. c #32749E",
"y. c #3D6BA6",
"u. c #3878AA",
"i. c #45448B",
"p. c #4C4796",
"a. c #454C93",
"s. c #534399",
"d. c #47549C",
"f. c #4B59A6",
"g. c #5553AB",
"h. c #5F4DB2",
"j. c #5959B5",
"k. c #6343A9",
"l. c #7044B7",
"z. c #4465A9",
"x. c #4A6AB5",
"c. c #5565BB",
"v. c #4678BA",
"b. c #7553CB",
"n. c #5576CB",
"m. c #6A67D3",
"M. c #6474D9",
"N. c #9438CA",
"B. c #8548D0",
"V. c #1E868B",
"C. c #228E97",
"Z. c #248798",
"A. c #2896A8",
"S. c #2CA7B9",
"D. c #3D8FC3",
"F. c #37AFCF",
"G. c #4787C8",
/* pixels */
"                                                      . < < $ 4 o < < 4 $                                                         ",
"                                              $ p D H %.p D D ,.I I H D H H H 4 < $                                               ",
"                                        $ < p K 4 $ p p D D D 4 p p D D D H < 2 4 p H < $                                         ",
"                                    2 4 2 4 4 I H 4 4 < < < $ < < < 4 $ $ < 2 4 p K K < 2 4 <                                     ",
"                                $ 2 I $ 2 < < < H H H H H H D p D $ H p D I D K H $ < $ 4 p I $ $                                 ",
"                            . $ 2 < D %.s s o $ < < 2 o 4 < D < H < H $ 4 $ 4 $ < < 4 2 4 H %.2 < 4 .                             ",
"                          o H 3 2 < p $ K K P p H $ p 4 4 p < s $ 4 2 2 2 < H o D D D I H D $ < < 4 H $                           ",
"                        $ s %.K . < 2 2 2 2   K D D ,.p I p H %.s I H s ,.4 H I 4 P < < 4 $ 2 2 < 4 I < $                         ",
"                      < 2 3 < K I 4 F < i p 2 i 2 < 2 i i   3 s   i 3   4 3   i i 2 2 2 i $ i o K I D $ $ 2                       ",
"                    j i < 2 < 2 . I K F ,.s   F o < D 2 2 5 3 5 3 i 3 2 k < 3 H . i D o K K H ,.5 5 2 $ 2 2 F                     ",
"                  2 D %.i < 5 1 2 h $ i i < ,.I i ,.>.D F >.s j ,.j j ,.H 3 F ,.K i 1.j 2 G $ o 5 < 2 2 i k I o                   ",
"                2 < $ J ,.k k $ 1 2 2 i   F a   & i i   j K 1 3 I 2 < K G $   k 4   k p $ 3 1 2 h o k & I ,.2 < i                 ",
"              d 5 2 1 j o R K K 1.<   G h   k $ h $ G 5 5 F   F   j   k 2 d k $ 2 < R   j P   . I k K ,.2 < 5 o 3 2               ",
"            o >.h 2 < 1 1 1   h G k G 1.F z 1.k     K k   5 J d   J G 3   G J o   h R j J >.,.z J K o & 5 1 7 & o R               ",
"            5 & 1.a a 1 d 5 5 2 o 1 h k   > >.d J K N.h k R N.R I R N.>.I K N.l J J 1.a o . G 2   6 h & d 1 z   &.G 5             ",
"          $ 1 6   L ;.J z a   l 2 l   h o h z     J G     l R 2   d G l     G G     k G 2 o G d 3 5   h z   &.,.2 5 $ &           ",
"        o 6 o & 7 5   > 3.L L Y l     a G   1 R L 7 d R l Y & R   ;.  R & L 2 z L & J   z 7 &.  6 J o R 3.R o h > & 6 1 &         ",
"        o &.o f . d % h z   $ 2.G J &.B.;.z 1 <.l     &.&.    Y Y G   o &.&.    z 1.7 & & 2.<.z Y 3.z   o l & > & d X J d         ",
"      . 6 l 2.% o g d   7 > z G   o J f   1 &.l.G z U B.;.R z z B.z J z 3.3.;.&.J l.R &.J R L .   l 1 7 & > 7 d 1 $ R Y 2 .       ",
"      > & & U U 2.&.  $ 7 z   T   T X J   % J R     g Y U     J R f     T &.&     J T &   &.  R   z   7 > d   l z &.;.  > &       ",
"    % f > > > % N l U :.:.>   z V 7   U   T   7 U % &.  &.  7 &.  &.  z U   &.  R >   T . &.    J V     z &.T T 2.  % d & >       ",
"    f l f . > g 6   . V l V C l.2.V z -.&.      T -.    M T :.    V V :.    M T -.    % T &.> d f l.V T g 2..   & g * o f o z     ",
"    f :.N . g . V   C > &   M R & . -.-.h.&.-.V B.k.:.T N b.-.M N N l.:.M z V l.b.:.U N k.b.V N g T N     f z   f o f f , :.>     ",
"  . * f f h.N   T f . . f m C . g   C C C     g E C   . f l.-.N C V l.k.M f o :.=.      T C T   & z f g ; f . g f   , :.E l . .   ",
"    , & * N f V l.V     S N     V , C   T     =.  =.    -.> k.    C C *.z   % =.f *.  . *.. T f f N   N g M   ; p.E C E   o > .   ",
"  m . f f ,   f S f V N b.V M   V S . . m i.=.> . C E C E . M *.  h.    s.. p.>   V E *.V     =.*.    > h.=.V E p.&   , g f f &   ",
"  V M M o m   N , X   A C , f S b.E p.V a.b.*.;     p.s.      s.s.V     M p.:.      i.g.V a.E E m.V *.M *.A     m N   f , f X S   ",
"  , M s., M x . > , m M m X   A Z M   . X.b.f A p.f.m.s.A E i.s.M.*.i.=.*.m.i.i.a.s.s.b.f C m : *.S     m f M   N . f M   *.A M   ",
"X . f M A a.X.  * f M   m f m A   S     a.X f.    S S p.      g.s.m     f a.g..     a., s.. . A   A M   V   Z f f   , a.A i.. ,   ",
"> X , M   Z M A A c.*     S S     4.; 4.,   f.  - g.  a.S . S 4.  j.    f.; Z a.  , a.  S a.  i.    A M Z     i.i.S S a.  ; f . ; ",
"x , . , f x ,   M X.A A S m.d.f   , a.S     M 4.f.X . X d.O f.  . X.a.S d.  . p.Z j.X   . d.S S     : c.Z S Z f.A   ; f ; f ; * : ",
"* d.. O f   M . Z m .   x 4.x M d.Z M.4.S X.d.M.d.f .   a.j.M       d.j.        c.d.S j.j.S M.4.A 4.4.d.m     M Z . , . M ,   X.f ",
"X x X.z.;   B M - : f   4.  S     d.X., .   X n.d.X.d.c.n.M.8.4.4.c.n.m.d.z.c.n.n.j.:     , X.X.    f x 4.  X m * x |   x x Z A . ",
". -   X.X.| 4.Z     X.Z :   Z   Z |   4.. . 8.* d.      z.Z 6..   . z.z.Z .   Z 6.d.Z X   8.  X.B   X.  : | x :   x M M X.d.  - . ",
"  . - Z ;   ..6.Z X.6.|     n , 6.    8.; X.X.. ..e.. e.X.  z.*   z.M   x..   z.#   z.. x 6.    8.: 8.    Z X.* X.Z z.x : Z ; - X ",
"= , x O x   Z |     z.6.6.Z 7.n.n :     8.e.  .   z.| z.. # x x.| e.. . | e.4.6.X . ..e.e.      n x.x ......n.X.  : |   : : : B . ",
"  B |   x w : n   : | B     * v.8.| o.e.G.6.e.e.e.6.G.Z 6.X...x.v.| ..X...x.v.M B 6.e.n.v.| 6.8.Z G.|     x | -   x w : f X x |   ",
"  O 6.( x n   - w | . n :   6.- |     x 7.e.      6.G...w.x.u.v.G.z.y.y.y.G.G.....x   6.y.      | x 7.    B   | - x   x q x e.:   ",
"  O B - ( e.B q n n   . | w |   o.-   e.  e.O   . u.w e.. . w u.7.7.    b e.o.6..   o.| | 7.  . 6.  | q B w   | B . : w...w q =   ",
"  - - w : n . n v.o.n n | o.    O 6.| |     7.  y.b   w.n   y.w   u.-   u.:   D.O   0.    e.q o.w     o...  x n v.o.B ( . = : .   ",
"  + w - n   -   | w - B 0.u. . .B w.w.      o.o.w.  . - y. .w.:   n y.0.6.. # w y.y.w .     w.0.n B n D.e.0.n / 6.  - - q q : O   ",
"    ( n t   n - n n O   0. ..   v t.t.w.w.| 5.G.0.5.| ( t.G. .w.w.0.D.D. .w. .( D.D.w.y.( 5.G.0.n b - n 5.    n b - v   | - |     ",
"    - = y.n q (   . ( 8 ( .  .    0.| v     } 5.(   - q t.D.b ( 5. .u.D. .b b q w.t.      / ( 0.    b w | = w - O b w : w.b -     ",
"    . . { 8 { u./ q b } =   ( : 0.-    .    t.. 0.    v w.n w.     .t.5.5.    0.n ( 0.    w.  (  .=  .  8 | (   - t. .b n O -     ",
"      q t -    .b q  .D.b } t (  .    n +.q.q   9 w.  t.    q.b O t.    w.q ( +.    r.  5.9     w. .  O ( D.}  .v 5.  9 q v       ",
"      q / O q q t . v ( w + w D.q.+.} / t.t.b =   } q.}       t.q.w     O r.q.        D.q.+.{ ( A.A.5.b 9 } 8   t / 9 . ~ t       ",
"        } / { e . v / + / .   +.( .   . q.q.q ( +.t.F.} ` } { r.F.+.O.} } F.t.O.q.r. .D.} = O O } q.    / - b v O q t ( {         ",
"        + v t q./ ( }   . } / b   }   t +./ }     q.: +.    8 r.q.t     b } r.O     q.  q.    }   { q ( 9   +.t v q./ q .         ",
"          8 = t + O A.{ / ` r.    ~ ( +.    O.w ( }   } ~   q.e   r.  O q.  - #.  #.t   } { ` W   O #.{ ~ / r.~ - / = -           ",
"          8 e e e   } u     A.` { { 9.A.~ 8 O #.#.      #.O.+.    u +.r.8     q.} ( O O 8 A.9.{ ( { S./ . e O.  e u e e           ",
"            8 #.t v ! O t e ~ `     #.} @ u ` t.A.~ ` { q.F.#.O.O.} S.Z.#.#.#.` F.! { [ / Z.{     v }   t e / ~ + +.0             ",
"              8 u c Z.e c [ e   ~   O.  `     $.^ /     #.! O.    W { 9.    . #.' O.  O O.  O.  { O e ~ t O 9.u { 8               ",
"                e @ ! y u 9./ ` r #.u   8 O.O.0   O.~ Q O.  ` c O #.  e O.  #..   @.. O.    #.Q r 8 $.A.Q W #.. u .               ",
"                e ' W @ e c y . e V.' ' ) ! S.) y 8 @.V.0 e 8 #.9.0 8 0 @.V.c e 0 / S.@.W ) $.A.u r c e 8 8 u c @                 ",
"                  0 ! @.e Q . Q O [ e r   O.^ Q O 0 9.Z.Q W u V.C.r y u $.S.u ! r [ V.    e 0 _ + c 8 ` 0 O.c e                   ",
"                    O e 8 _ [ Q ) O.  W W [   ^ Q 8 @.O [   c _ y )   Q W e ]   ] 8 W ' u e   ] ] e 9.O.r u +                     ",
"                        y 0 Q @ @ V.! W ! S.c 0 _ C.@ O e [ _     _ ) _     $.@.W y 0 S.) e ! C.0 0 ! 0 ] .                       ",
"                        O Q @.W e y 0 0 c c 0 @ y V.c 8 0 C.@.! Q ) S.) ^ e @.$.0 e ) ]   e 8 ) e r ! ! 8                         ",
"                            O ) y $.Q r @.  O W ]   y e ! Q ^ W O ^ O [ . c . @.@ c O V.y y Q @.r O.0                             ",
"                              O e 8 e 8 ) _ Q e C.c c ] V.0 e [ V.y r [ @.0 e ) V.0 c C.8 0 c 8 e .                               ",
"                                  O W Q y ) O 0 Q c O ^ y y O ] ] 8 0 ! ]   e @ ! 0 8 ! y ! c O                                   ",
"                                      O e ) c W @.e y @.@ W @.r e @.! 0 ] @.0 e @.0 ) Q 0 O                                       ",
"                                          . 0 0 y e y ^ 8 0 y r 8 e y 8 @ [ 8 Q ! e 0                                             ",
"                                                  @   ) e ) 0 ! _ e _ e e e @ O                                                   "
};
