/* XPM */
static char *_3a5024d0e784b9bac9a83fc2268de94MNnAm0zXZ9i16a18[] = {
/* columns rows colors chars-per-pixel */
"65 64 173 2 ",
"   c #010101",
".  c #05050F",
"X  c #070714",
"o  c #0D0414",
"O  c #020E14",
"+  c #040718",
"@  c #0D071A",
"#  c #070D19",
"$  c #090917",
"%  c #14021C",
"&  c #16081F",
"*  c #021817",
"=  c #05131C",
"-  c #031C1F",
";  c #0E0E21",
":  c #140721",
">  c #1A0423",
",  c #140B27",
"<  c #1D0629",
"1  c #1C0D2D",
"2  c #1B0B27",
"3  c #071421",
"4  c #061B22",
"5  c #091329",
"6  c #121329",
"7  c #1B1536",
"8  c #131F36",
"9  c #1B1C3B",
"0  c #24062E",
"q  c #22092E",
"w  c #270630",
"e  c #2A0735",
"r  c #230C33",
"t  c #2A0935",
"y  c #2B0C3A",
"u  c #330B3D",
"i  c #24113B",
"p  c #2A113C",
"a  c #032022",
"s  c #052529",
"d  c #0C212E",
"f  c #052B2E",
"g  c #072E34",
"h  c #092E37",
"j  c #0F2A39",
"k  c #073437",
"l  c #07363A",
"z  c #0B333D",
"x  c #08393D",
"c  c #2E0F41",
"v  c #360B42",
"b  c #3A0D45",
"n  c #350F48",
"m  c #3D0E4A",
"M  c #2C1344",
"N  c #271B47",
"B  c #341244",
"V  c #381247",
"C  c #35134B",
"Z  c #3C134C",
"A  c #2E1E51",
"S  c #3D1651",
"D  c #371954",
"F  c #3D1954",
"G  c #3E1659",
"H  c #3B1B5B",
"J  c #142D43",
"K  c #1E2C4D",
"L  c #0E3441",
"P  c #093C40",
"I  c #113848",
"U  c #1C3653",
"Y  c #202044",
"T  c #2C2255",
"R  c #272853",
"E  c #2D2C5E",
"W  c #38205F",
"Q  c #21395B",
"!  c #352762",
"~  c #3B2B6B",
"^  c #273762",
"/  c #2C3B6A",
"(  c #36356F",
")  c #363B75",
"_  c #3B3778",
"`  c #420E4C",
"'  c #41114F",
"]  c #420F54",
"[  c #451253",
"{  c #4B1556",
"}  c #421A56",
"|  c #4A155B",
" . c #4A185B",
".. c #51185E",
"X. c #4F1460",
"o. c #431B61",
"O. c #4F1960",
"+. c #451F68",
"@. c #531663",
"#. c #541962",
"$. c #531B63",
"%. c #531C6B",
"&. c #5A1C6B",
"*. c #56156A",
"=. c #5C1973",
"-. c #531E70",
";. c #42276F",
":. c #552066",
">. c #572169",
",. c #5D246E",
"<. c #5A226B",
"1. c #4B2475",
"2. c #462C78",
"3. c #4E277B",
"4. c #41347A",
"5. c #5B2577",
"6. c #6F297F",
"7. c #642478",
"8. c #0A4144",
"9. c #0B4549",
"0. c #0A494D",
"q. c #12414F",
"w. c #0F4E53",
"e. c #134452",
"r. c #184056",
"t. c #1C455F",
"y. c #144E5B",
"u. c #12565D",
"i. c #125C62",
"p. c #1C536A",
"a. c #1F5F77",
"s. c #254369",
"d. c #29446E",
"f. c #2F4476",
"g. c #37427D",
"h. c #235273",
"j. c #2A527A",
"k. c #265C7E",
"l. c #146069",
"z. c #166B6F",
"x. c #1B6C7A",
"c. c #197179",
"v. c #5D2182",
"b. c #522C83",
"n. c #4E3487",
"m. c #4B3C8F",
"M. c #5E2E91",
"N. c #593593",
"B. c #6A2782",
"V. c #722A86",
"C. c #762E8B",
"Z. c #7B3190",
"A. c #792EA4",
"S. c #772DA3",
"D. c #6A38A7",
"F. c #3B4685",
"G. c #2F5585",
"H. c #2B5F88",
"J. c #355087",
"K. c #3A5491",
"L. c #375F95",
"P. c #1E7887",
"I. c #2F729D",
"U. c #376CA1",
"Y. c #434189",
"T. c #464691",
"R. c #435096",
"E. c #5D41A3",
"W. c #435EA3",
"Q. c #4F5CAF",
"!. c #5452AA",
"~. c #218694",
"^. c #2A8CA6",
/* pixels */
"                                                      6 u u t ` q u u ` t                                                         ",
"                                          .   q { ..,.V.{ #...Z.6.6.,...,.,.<.` e <                                               ",
"                                        > w ` &.` w { { ....#.` { ..:...:.,.u u b `  .0 q                                         ",
"                                    0 e w u u 7.:.` ' u u u u u u u ` t t u V ` { $.#.0 q e q                                     ",
"                                % 0 @.% r 0 q w :.:.,.,.,.,.....:.t ,.{ ..6...,.:.0 q < e u X.% %                                 ",
"                            . % < > v *.u b & 0 t t u 2 ' u ..u ,.u ,.t ` t ` t u w u w e S =.< > 0 .                             ",
"                          o m < 0 > u % | | %.b ..0 ' ` ' { u ..t ` V V u u <.q { [ ` *.] m > < > w m %                           ",
"                        % y *.] . > < 0 0 r   $.[ { V.' 6.{ >.6.{ 6.,.{ C.` :.,.v &.0 0 e > < < > w X.> %                         ",
"                      > < 0 > ] X.w n < e v r v y w u V '   V {   } V   m B   V B y q q y > w o S X.v % % <                       ",
"                    y w > < > < X X.S n =.v   Z & q ' p y V u V V ` u u } e u ..$ u V % | ] m =.w w > % < < n                     ",
"                  < v *.w > 0 > < y @ e e < =.*.y 7.5.' } 7.' Z 6.' } 6. .y } 7.| y B.c < C % o w > < < e c | o                   ",
"                < > % C =.c c % > < < w   n y   > u u   V ..q y <.p q ..} <   V e   n y % w : > y o c : X.=.< > w                 ",
"              r w < > y o o.S ] v.>   n y   c > p % Z y t Z   }   V   C r p B : 0 < o.  y |   X X.c ] =.< : w o < <               ",
"            o %.i < > > > >   y B c C v.n M v.c     [ B   e F p   F Z r   S D @   y o.y C -.=.M C S @ : w > 1 , o o.              ",
"            w : v.t t , r w w < o > i c   , %.r D ] S.p M +.S.+.$.+.A.%.$.[ S.M Z D v.y o X n <   1 y : r > M   +.B 0             ",
"          % > 1   G 1.C M t   M < M   y o i M     C C     M o.w   r C M     C B     c B < o n r < w   y M   +.=.< w % :           ",
"        o 1 o : 1 0   , M.G G H M     y C   > o.G 1 r } M H : o.  1.  o.> } < M G , C   M 1 +.  1 C o o.M.H X y , : 1 > :         ",
"        o +.o 7 . r @ i M   % b.B C +.D.1.M > 3.M     ;.+.    H H B   o +.+.    M v.1 : : b.3.M H M.M   o M : , : r + C r         ",
"      X 1 M b.@ o i r   1 , M C   o C 7   > +.N.B M D D.1.o.M M D.M D M M.M.1.;.C N.o.+.C o.G X   M > 1 : , 1 r > % } H < X       ",
"      , & & D D b.+.  % 1 M   W   W + C   @ C o.    i H D     C o.7     H +.:     C H ,   +.  }   M   1 , r   M M ;.1.  , :       ",
"    @ 7 ; , , @ N M D 2.2.,   M A 1   D   H   1 D @ +.  ;.  1 +.  +.  M D   +.  o.,   W . +.    D A     M +.H ! b.  @ r : ,       ",
"    7 M 7 X , i 1   . A M A T N.b.A M ;.;.      W ;.    Y H 2.    A A 2.    Y H ;.    @ H ;., r 7 N.A W i b..   : i # o 7 o M     ",
"    7 2.N . i . T   T , &   N H : . ;.;.m.;.;.A D.n.2.H N E.;.Y N N N.2.K c A N.E.2.D N n.E.D N i W N     7 M   7 o 7 7 6 2.,     ",
"  . + 7 7 m.N   H 7 . . 7 9 T . i   T T A     i ! T   . 7 N.;.N T A N.n.N 7 @ 2.~       W T W   : M 7 i ; 7 X i 7   6 2.! M . .   ",
"    6 : # N 7 A N.A     E N     A 6 T   H     ~   ~     ;., n.    T T ~ M   @ ~ 7 ~   . ~ . ! 7 7 N   N i Y   @ _ ! T !   o , .   ",
"  9 . 7 7 6   7 E 7 A N E.T K   A E . . 9 ( ~ , X T ! T ! . Y ~   m.    4.X _ ,   A ! ~ A     ~ ~     , m.~ T ! _ :   6 i 7 7 :   ",
"  A K i o 9   N 6 X   R T 6 7 E E.! _ A ) E.~ ;     _ 4.      4.4.A     N _ 2.      ( Y.A ) ! ! !.A ~ N ~ R     9 N   1 6 7 X E   ",
"  6 Y _ 6 Y 8 . , 6 9 Y 9 X   R K N   . ^ E.7 R _ F.!.4.R ! ( _ Q.~ ( ~ ~ !.( ( ) 4.4.E.7 T 9 5 ! E     9 7 K   N . 7 K   ~ R Y   ",
"X . 7 Y R ) Q   # 7 Y   9 7 9 R   E     ) X F.    E E _       m.4.9     7 ) Y.X     ) 6 4.. . R   R Y   A   R 7 7   6 ) R ( . 6   ",
", X 6 Y   R N R R R.#     E E     / ; / 6   F.  3 Y.  ) E . E /   T.    F.= K )   6 )   E )   )     R Y U     ( ( E E )   ; 7 . ; ",
"8 6 . 6 7 8 6   Y ^ R R E !.g.7   6 ) E     K / F.X . X g.O F.  . ^ ) E g.  . _ K T.$   . g.E E     5 R.K E K F.R   ; 7 ; 7 ; # 5 ",
"# g.. O 7   K . K 9 .   8 / 8 N g.K Q./ E ^ ) Q.F.7 .   ) T.K       g.T.        R.g.E T.Y.E Q./ R / / g.9     N K . 6 . Y 6   ^ 7 ",
"X 8 ^ J.;   K K 3 5 7   /   E     g.^ 6 .   X W.g.^ g.R.W.Q.f./ / R.W.!.g.J.R.W.W.T.5     6 ^ ^     7 8 /   + 9 # 8 U   8 8 K R . ",
"X =   ^ ^ U ^ K     ^ R 5   R   K U   / . . f.# g.      J.R s..   . J.J.K .   K s.g.R X   f.  ^ K   ^   5 U 8 5   8 i K ^ g.  4 . ",
"  . 3 R ;   U d.K ^ s.U     J 6 s.    f.; ^ ^ . Q j.. j.^   J.#   J.N   K.X   J.+   J.. 8 s.    f.5 f.    K ^ # ^ R J.8 5 K ; 3 X ",
"= 6 8 O 8   R U     J.s.s.K d.W.J 5     f.j.  .   J.U J.. + 8 K.U j.. . U j./ s.X . Q j.j.      J K.8 Q Q Q W.^   5 U   5 5 5 K . ",
"  K U   8 d 5 J   5 U K     # L.f.U t.j.U.s.j.j.j.s.U.R s.^ Q K.L.U U ^ Q K.L.K K / h.W.L.U s.f.K U.U     8 U 3   8 4 5 7 X 8 U   ",
"  O s.L 8 J   3 d U . J 5   s.3 U     8 d.j.      s.U.U h.K.H.L.U.J.G.J.G.U.U.Q Q 8   s.G.      U 8 d.    K   U 3 8   8 s 8 j.5   ",
"  O K 3 I j.K s J J   . U d U   t.3   j.  j.O   . H.d k.X . d H.d.d.    j j.U s.X   t.U U d.  . s.  U s K d   U K . 5 h.U 8 s =   ",
"  3 3 d 5 j . J L.t.J J U t.    O s.U U     d.  J.j   h.J   G.d   H.3   H.5   I.O   p.    j.d t.8     t.U   8 J L.t.K I . = 5 .   ",
"  O d 3 J   3   U d 3 K p.G.r.r.K h.h.      t.t.h.  . 3 J.r.h.5   J G.p.s.. + d G.G.d X     h.p.J K J I.j.p.J L s.  3 3 s d 5 O   ",
"    I J f   J 3 J J O   p.r..   g k.k.h.h.U s.U.p.s.U I k.U.r.h.h.h.I.I.r.h.r.L I.I.h.G.I s.U.p.J j 3 J s.    J j 3 k   U 3 U     ",
"    3 = G.J d L   . I - I . r.    h.U k     e.t.I   3 d k.I.j L p.r.H.I.r.j j d h.k.      L I p.    j d U = d 3 O j d 5 h.j 3     ",
"    . . q.- e.H.z d j e.=   I 5 h.=   U     k.X p.    g h.J h.    r.k.s.s.    p.J I p.    h.  I r.= r.  - U I   3 k.U j J O 3     ",
"      s f 3   U j d e.I.j q.f I U     J u.p.s   4 h.  k.    p.j O k.    h.s I y.    x.  s.-     h.r.  O I I.e.r.k s.  4 s h       ",
"      d L O s s f X g I d O 8 I.p.y.e.L k.k.j =   e.p.e.      k.p.d     O a.p.        I.p.y.e.L P.P.s.j 4 e.4   f L 4 . z f       ",
"        e.L e.s . g L O z .   y.I .   . p.p.s I u.k.^.e.P e.q.z.^.y.w.e.e.^.k.w.p.a.r.I.e.= O O e.p.    L 3 j h O 4 f I q.        ",
"        O g f p.L I e.  . e.L j   w.  f y.L e.    p.5 y.    - k.p.f     j e.a.O     p.  p.    e.  q.f L 4   y.f h p.J s .         ",
"          - = f O O P.q.z P a.    z I u.    w.d I e.  e.z   p.s   a.  O p.  3 u.  u.f   e.q.8.k   O u.e.z L a.z 3 L = 3           ",
"          - s s s   e.g     P.8.q.q.l.P.z - O u.u.      u.w.u.    f y.a.-     p.e.I O O - P.l.q.I q.~.L . s w.  s f s s           ",
"            - u.f g x O f s z 8.    u.e.* g 8.k.P.z P e.p.^.u.w.w.e.~.x.u.u.u.8.^.x e.0.z x.q.    g e.  f s z z # u.-             ",
"              - f g x.s g 0.s   z   w.  P     i.P L     u.x w.    k q.l.    . u.9.w.  O w.  w.  q.O s z f O l.f q.-               ",
"                s * x f g l.z 8.f u.f   - w.w.a   w.l l w.  8.g O u.  s w.  u..   u.. w.    u.k f - i.P.l k u.X f .               ",
"                s 9.k * s g f . s z.9.9.8.x ~.8.f - u.z.a s 4 u.l.a 4 a u.z.k s 4 L ~.u.k P l.P.f s g s - - f g *                 ",
"                  a x u.s x o x O 0.s s   w.x x O a l.x.l k f z.c.f f f i.~.f x s 0.z.    s a 9.O k - 8.a w.g s                   ",
"                    O s - 8.0.k 8.w.  k k 0.  x l 4 u.O 0.  g 8.f 8.  x k s 9.  0.- k 9.f s   9.0.s i.w.f f O                     ",
"                        f a x * * z.x k x ~.k a 8.c.* O s 0.9.    9.8.9.    l.u.k f a ~.8.s x c.a a x a 9..                       ",
"                        O x u.k s f a a f k a * f z.f a a c.u.x k 8.~.8.x s u.i.a s 8.9.  s - P s f x x -                         ",
"                            . 8.f i.k f u.  O k 0.  f s x l x k O x O 0.. f . u.* g O z.f f l u.s w.a                             ",
"                              O s a s - 8.9.k s c.k k 9.z.a s 0.z.f f 0.u.a s P z.a k c.- a k - s .                               ",
"                                  O k x f 8.O a k f O P f f O 9.8.a a x 0.  s * x a - x f x k O                                   ",
"                                      O s 8.k k u.s f u.* k u.f s u.x a 9.u.a s u.a x x a O                                       ",
"                                          . a a f s f 8.a a f f a a f a * 0.a k x s a                                             ",
"                                                  *   8.s 8.a x 9.s 9.s s s * O                                                   "
};
