/* XPM */
static char *_d15360249ed4ee7d2e85a896bd08722t4P3DujnYFoAf2OD[] = {
/* columns rows colors chars-per-pixel */
"64 70 255 2 ",
"   c #010101",
".  c #0D0A17",
"X  c #12141D",
"o  c #070E11",
"O  c #171A28",
"+  c #131A2F",
"@  c #231933",
"#  c #1D2133",
"$  c #1B2839",
"%  c #14232D",
"&  c #232A3C",
"*  c #262739",
"=  c #36333D",
"-  c #371755",
";  c #1D2C42",
":  c #262A44",
">  c #2B334B",
",  c #283346",
"<  c #2C3A53",
"1  c #363B57",
"2  c #382E4A",
"3  c #39186E",
"4  c #312D6F",
"5  c #4A1C59",
"6  c #453650",
"7  c #540E6E",
"8  c #6A067A",
"9  c #522C6E",
"0  c #682F75",
"q  c #38415D",
"w  c #2D415B",
"e  c #3C4463",
"r  c #3B4665",
"t  c #3E5072",
"y  c #1F4252",
"u  c #4A444A",
"i  c #4A4856",
"p  c #524C59",
"a  c #595358",
"s  c #544D4B",
"d  c #655B5B",
"f  c #60584E",
"g  c #434A6A",
"h  c #464C71",
"j  c #485476",
"k  c #555671",
"l  c #576378",
"z  c #796B68",
"x  c #6C6566",
"c  c #6E4F6B",
"v  c #35308A",
"b  c #70138F",
"n  c #4F2F8C",
"m  c #77289A",
"M  c #7A3795",
"N  c #6E2B87",
"B  c #7518A7",
"V  c #7409B4",
"C  c #7516B7",
"Z  c #6D0CB0",
"A  c #5B35AA",
"S  c #7927A8",
"D  c #7A25BB",
"F  c #6B29B5",
"G  c #56128F",
"H  c #555A85",
"J  c #725194",
"K  c #57658C",
"L  c #58698F",
"P  c #656B99",
"I  c #65739C",
"U  c #6C79A4",
"Y  c #7578AA",
"T  c #726CA7",
"R  c #7653AF",
"E  c #7518C2",
"W  c #7617D5",
"Q  c #7211C8",
"!  c #5A36D8",
"~  c #5433CA",
"^  c #7927C6",
"/  c #6638D9",
"(  c #7639DA",
")  c #6D27D5",
"_  c #6B2AE4",
"`  c #7B29E5",
"'  c #7737E5",
"]  c #792BF6",
"[  c #7435F5",
"{  c #6B38EE",
"}  c #6943DA",
"|  c #7646DE",
" . c #7A55DE",
".. c #784ECC",
"X. c #4747EC",
"o. c #574BEC",
"O. c #5A53EE",
"+. c #5B55F2",
"@. c #5351F1",
"#. c #4E4EF1",
"$. c #6849E9",
"%. c #7849E3",
"&. c #6756EE",
"*. c #7857E8",
"=. c #754AF5",
"-. c #645DF3",
";. c #6657F1",
":. c #7757F1",
">. c #6B62F4",
",. c #6863F4",
"<. c #7866F3",
"1. c #7B74F4",
"2. c #7866ED",
"3. c #5C4AC3",
"4. c #843A9A",
"5. c #84338F",
"6. c #8B31A8",
"7. c #9828B3",
"8. c #89488B",
"9. c #93578A",
"0. c #864495",
"q. c #8E508E",
"w. c #9250AF",
"e. c #896BB6",
"r. c #A354A4",
"t. c #8514D2",
"y. c #832BC4",
"u. c #8635CA",
"i. c #893BD3",
"p. c #8F31D4",
"a. c #B936CB",
"s. c #931AEA",
"d. c #8527E9",
"f. c #8C32F0",
"g. c #8847DC",
"h. c #9956DD",
"j. c #914EDA",
"k. c #A44BDD",
"l. c #AC50CA",
"z. c #966AD2",
"x. c #8849E4",
"c. c #974BE3",
"v. c #8857E6",
"b. c #9B55EB",
"n. c #9758EA",
"m. c #8A5BF3",
"M. c #8D4EF2",
"N. c #A85AE8",
"B. c #B65BE7",
"V. c #8766E6",
"C. c #9866EA",
"Z. c #8A76E6",
"A. c #9678E9",
"S. c #8967F2",
"D. c #9567F2",
"F. c #8778F3",
"G. c #9873F4",
"H. c #A667E9",
"J. c #B363EC",
"K. c #BC6CED",
"L. c #B668E9",
"P. c #A875E8",
"I. c #BB7CED",
"U. c #B674ED",
"Y. c #A76AF1",
"T. c #A876F1",
"R. c #B877F1",
"E. c #B869F1",
"W. c #A161DE",
"Q. c #C46BEC",
"!. c #C577ED",
"~. c #C97AF2",
"^. c #D47BF2",
"/. c #CC73EF",
"(. c #E07FF4",
"). c #7989B5",
"_. c #7588B1",
"`. c #858EBD",
"'. c #8D96C7",
"]. c #90A7CE",
"[. c #9589E9",
"{. c #9798EA",
"}. c #9386F1",
"|. c #AA87EA",
" X c #B787EC",
".X c #B69AED",
"XX c #B887F2",
"oX c #A497F8",
"OX c #BA97F1",
"+X c #A891F1",
"@X c #99A7EB",
"#X c #9BB8ED",
"$X c #A4A7EE",
"%X c #BAA7EE",
"&X c #A5B9EE",
"*X c #BAB7EF",
"=X c #BAA7F4",
"-X c #A8B6F0",
";X c #BCBBF1",
":X c #B6B6F1",
">X c #ACA1F6",
",X c #C483EC",
"<X c #C889EC",
"1X c #CC94EC",
"2X c #CA98ED",
"3X c #D69AEC",
"4X c #C788F3",
"5X c #D888F2",
"6X c #C799F2",
"7X c #D896F3",
"8X c #D584EF",
"9X c #E399EE",
"0X c #E78AF5",
"qX c #E898F6",
"wX c #F499F9",
"eX c #DBA4EE",
"rX c #D6A5ED",
"tX c #C7A9F2",
"yX c #D8A9F2",
"uX c #C8B7F3",
"iX c #D8B8F4",
"pX c #CAAEEE",
"aX c #E8A7F5",
"sX c #F4ACFA",
"dX c #FCACFC",
"fX c #F5A4F9",
"gX c #EAB7F8",
"hX c #FCB4FD",
"jX c #FDBBFE",
"kX c #F4B7FB",
"lX c #E0A4EF",
"zX c #9CC6ED",
"xX c #A5C5EE",
"cX c #BAC8F2",
"vX c #BBD3F2",
"bX c #ADC9F0",
"nX c #BEE1F4",
"mX c #C7CAF5",
"MX c #D9C8F6",
"NX c #CCD3F6",
"BX c #E8C8F9",
"VX c #F4C4FB",
"CX c #FDC3FE",
"ZX c #FDCCFE",
"AX c #F4CBFA",
"SX c #FDD4FE",
"DX c #FEDCFE",
"FX c #F6D7FC",
"GX c #E3DAF6",
"HX c #FEE3FE",
"JX c #FEECFE",
"KX c #FEF4FE",
"LX c #FEFEFE",
"PX c #E4EDFA",
"IX c #DBECF9",
/* pixels */
"                                                    9.q.m m m m S m m m M 9.                                                    ",
"                                            9.5.m S 6.B V 6.i.k.k.i.7.V B S S S 5.9.                                            ",
"                                        8.m D B u.L.J.L.L.K.K.!.Q.L.B.B.k.k.k.y.V S B 8.                                        ",
"                                    8.M C 6.H.U.1X7X7X5X7X5X5X<X^.^././.Q.B.B.B.k.k.C B 6.8.                                    ",
"                                8.m C u.L.I.<X7X3XgXgXaXaXaXqXqX9X0X(.^.^./.Q.Q.B.B.B.l.y.C m 8.                                ",
"                              4.B u.L.!.4X7XeXaXgXkXAXAXAXgXkXsXaXwXqX9X0X(.(././.Q.L.B.B.k.y.V 4.                              ",
"                          9.4.V h.K.~.1XgXgXgXBXAXSXFXSXDXFXAXVXhXkXfXfXwX0X(.(.^.^.!.K.L.B.B.j.C 6.8.                          ",
"                        0.B ^ k.U.!.7XyXAXAXFXJXKXKXKXJXJXHXDXDXZXjXjXsXfXwXwX9X9X8X1X<X!.U.L.H.h.u.Z 0.                        ",
"                      0.V i.B.U.,X7XaXgXVXFXKXLXLXLXLXLXJXHXHXSXDXSXVXVXVXsXaXyX7XyX7X6X<X XI.P.W.N.u.Z 0.                      ",
"                    4.Z u.N.L.!.5XeXgXVXFXKXLXLXLXLXLXLXKXJXDXSXSXZXZXAXAXgXgXgXiXyXyXtXtX6XOXI.U.W.W.u.V 4.                    ",
"                  8.Z u.N.J.I.8X7XgXVXAXDXKXLXLXLXLXLXLXKXJXHXSXSXCXZXAXkXgXgXiXiXiXiXuXuX%XOXOX XL.W.b.i.V 0.                  ",
"                9.B y.N.N.K.!.7XaXgXAXSXHXKXLXLXLXLXLXKXJXDXSXSXZXZXjXVXAXBXBXMXMXmXmXmXuX;XuXtX X|.P.W.h.^ Z 8.                ",
"                4.E c.N.H.!.<XqXgXkXZXSXHXJXKXLXLXKXJXJXHXDXSXZXZXCXjXVXAXBXgXMXmXmXmXcXcXmXcX=X%X XP.W.W.j.^ S                 ",
"              M V i.N.J.Q.~.7XaXkXVXSXDXHXHXHXJXJXJXJXDXSXSXSXZXCXCXVXjXAXBXMXMXmXmXmXvXvXnXnX;X%X.X XP.W.h.j.V M               ",
"            q.C u.x.c.N.K.5XgXSXVXVXZXSXDXDXDXHXHXDXSXSXSXZXZXCXCXjXjXVXBXBXMXMXNXNXvXvXvXvXvX:X%X.X|.|.W.h.j.i.V 0.            ",
"            4.Q i.c.N.N.K.~.aXAXVXZXDXHXDXDXDXDXDXSXSXZXZXZXCXCXjXjXjXkXgXBXGXMXMXmXNXvXvXvXcX;X*X.X.X|.P.C.j.g.^ 6.            ",
"          8.V i.c.c.N.B.E.^.qXaXkXZXJXKXJXDXSXDXDXDXZXZXCXCXjXjXjXjXjXkXkXBXBXMXMXNXmXmXvXcXcX*X*X%X.X|.P.W.h.j.g.C 0.          ",
"          M ^ g.x.c.N.N.E.^.5XqXsXZXJXLXKXDXZXSXDXSXZXCXjXjXjXjXhXjXjXjXVXgXBXGXMXmXmXmXmXmXcX;X*X%X.X|.P.H.W.v.c.u.S           ",
"          C k.k.c.c.N.N.Q.^.5XwXfXVXSXHXDXSXZXZXZXCXCXjXjXjXjXjXhXjXjXkXkXgXBXMXMXMXmXmXmX;X;X;X%X%X.X|.|.A.C.h.h.j.V 0.        ",
"        0.E c.N.N.N.N.J.Q.^.5X0XwXsXhXjXjXCXZXjXCXjXjXjXjXjXhXhXhXhXhXjXkXgXgXBXMXMXMXuXmXuXuX*X%X%X.X.XP.P.z.C.N.j.C 4.        ",
"        B ^ x.c.N.E.E.E.Q.^.(.0XwXwXdXdXhXhXjXCXjXjXjXjXhXjXhXhXhXhXhXjXkXkXgXgXMXGXMXMXuXuXuXpX%X.X.X|.P.P.z.H.C.g.) B         ",
"        C i.i.x.b.J.K.!.Q.^.^.0XwXwXwXdXdXhXhXjXjXhXdXhXhXhXhXhXhXhXhXkXkXgXaXgXgXiXiXMXMXiXuXuXpXpX.X.X X|.U.C.j.g.( E q.      ",
"      q.C f.%.x.c.b.E.4X^.^.^.(.0XwXwXwXdXdXdXhXCXdXhXhXhXhXsXhXhXhXhXsXkXaXaXgXgXeXeXyXpXpXpXpXpXpX.X1X.X X<XW.v.g.( C 0.      ",
"      4.F c.%.x.M.b.Y.E.~.5X5X^.(.0XwXwXwXdXdXdXdXdXdXhXhXhXhXhXhXdXkXsXsXgXlXgXeXiXyXrXrX3X2X1X.X,X X|.P.P.H.V.v.g.%.D m       ",
"      B y.b.b.M.x.b.N.E.~.5X5XqX0X0X0XwXwXwXdXdXdXdXdXdXsXsXsXsXsXsXsXaXaXgXlXlXeXeXeXrX2X2X1X<X,X X XU.P.H.C.n.v.| | ( C       ",
"      D c.b.b.Y.Y.b.Y.I.E./.^.qXwXwX0XwXwXwXwXfXdXhXdXdXsXfXsXsXsXsXfXaXaXlXlXiXrXrXrXrX3X1X<X<X!.I.U.U.H.W.n.v.v.| | ( D       ",
"      y.b.b.b.n.Y.Y.E.R.K.Q./.^.0XqXwXaXfXqXwXfXsXVXkXdXfXfXfXfXaXfXaXaXlXeXlXeXrXrX3X1X1X<X8X,X!.R.L.H.H.n.n.v.g.| | ( ^ q.    ",
"      6.b.b.D.Y.Y.Y.R.4X4X~.4X~.^.5X5X0XqXaXwXqXfXkXsXwXfXfXaXfXaXaXlXlXeXeXeXMXrX3X1X1X<X,X!.!.Q.K.L.J.N.n.x.v.| | ( ' E 9.    ",
"    9.D b.n.D.N.Y.T.XXXX4X7X7X7X7X7X5X5X0X5X0XqX9XAXVX9XwX9X9XaXlX9XeXrXeXrXrXMXpX1X1X<X,X~./.Q.K.L.B.N.b.n.x.x.%.( %.f.C q.    ",
"    9.D M.n.n.D.Y.U.4XiX6X6X6X6X7XtXtXyXyX7X7XqX5XVXAX9X9X9X9X9XlX9X3X3XrXrX3X1X2X1X1X<X!.~.E.Q.L.J.N.N.b.x.x.%.%.%.x.' Z 0.    ",
"    q.^ b.n.D.n.G.T.OXtX6X6XtXtXtXuXpXyXyXyXyXyX9XBXBX9X9X9X9X9XeXeX3X3X3X1X1X1X1X<X<X,X!.!.E.E.J.Y.b.b.M.x.%.x.v.v.' i.E q.    ",
"    q.^ n.m.D.D.Y.T.6XiXtXOX=X=X=XuXuXuXuXyXuXyXeXBXBXeX9X9X1X3X9XeX3X1X1X1X1X1X<X<X!.!.K.Q.E.J.N.N.N.M.M.x.v.G.|.C.c.f.C 9.    ",
"      ^ n.m.n.D.G.T.OXtX=X=X:X:X:X:X*X:X;XuXuXuXiXIXGXiXyXeX3X1X3XrXrX1X1X1X<X<X,X!.!.R.K.E.Y.J.b.b.M.n.n.m.m.XX=XY.f.` E 9.    ",
"      ^ M.n.S.D.G.T.+XOXuX=X:X:X:X;XbXcXcXmXmXNXGXPXPXPXPXGXBXiXrXrXrXrX1X X,X XI.I.I.I.R.U.E.Y.Y.b.m.m.Y.n.C.OX+Xv.' d.^       ",
"      B / v.v.D.D.T.+XuXmXuX-X-XbXbXbXbXbX:X;XuXmXIXPXGXiXpX2X6X1X<X X1X1X XI.I.U.U.E.H.Y.N.D.b.m.m.D.D.D.m.*.A.S.%.` d.D       ",
"      B F $.$.*.S.A.|.>X*X-X-XzXzXzXxXxXxX&X$X-X:XmXNXpXpXpXtX<X X<X,X X,X<X XU.T.Y.Y.Y.D.D.D.D.D.D.m.=.&.$.$.:.%.' ` W B       ",
"      q.E $.$.*.*.2.F.[.{.@X@X#X#XzXzXxXxX&X-X-X$XcXmX*X=XtX6XOX X XR.R.U.I.XXXXR.T.Y.T.G.G.D.S.S.;.$.$.o.$.$./ { ` d.Q m       ",
"      q.C $.$.&.*.V.Z.[.{.@X#X#XzXzXzXzXzXxX&X-X$XcXmX%X%X=XOX6X XT.U.U.T.Y.Y.Y.T.Y.D.G.S.:.:.:.;.;.;.+.o.o.o.$.{ d.f.V q.      ",
"        Z ) $.%.*.2.Z.F.[.@X#X#XzXzXzXzXzX#X#X&X$X*X:X>X=X.XOXOX4XR.Y.T.Y.Y.C.D.D.S.S.m.:.:.-.-.;.+.o.o.o.o.$.$.%.f.s.y.q.      ",
"        4.) %.$.*.2.V.Z.[.@X@X#X#XzXnXnXzX&X#X&X#X-X-X+X.X.XOXOXXX XT.C.C.C.D.m.S.S.}.<.;.-.-.+.@.@.@.o.@.;.:.=.f.f.t.S         ",
"        q.Q ' $.*.*.2.Z.[.{.{.@X#X#XzXzXzXzX#X@X$X$X$X+X|..XXXXXXXXXT.D.m.S.m.V.:.2.1.&.+.+.+.@.#.#.#.#.-.<.<.M.M.f.Q 8.        ",
"          B F } %.*.*.V.Z.[.{.].@X#X#X#X#X#X#X@X{.$X{.+XP.[.|. XT.T.T.T.D.:.*.:.:.&.&.&.+.+.+.@.#.#.+.-.<.S.m.M.f.s.B           ",
"          9 3 F %.$. .v.V.Z.[.{.].@X#X@X@X@X@X{.{.+X|.[.[.A.P.A.z.T.G.G.G.<.&.&.&.;.+.O.@.@.@.#.+.+.-.1.G.G.m.f.p.G 9           ",
"        l e.8 A ' | *.*. .Z.Z.[.1.{.{.{.{.{.{.{.[.[.[.A.A.C.R 7.H V.D.G.S.S.<.-.O.;.O.@.@.@.,.-.,.>.1.oXoXS.f.f.W 7 J d f       ",
"      l '.w.8 B d.%.%.*. .V.V.Z.Z.[.[.[.[.[.[.[.Z.A.A.Z.Z.j.4 l.a.R S.S.S.<.<.<.:.>.>.-.-.>.,.,.,.1.oXMX+XM.] ] V 3 N e.l d     ",
"    l ].'.8 6 m W f.c.M.v.C.z.A.z.A.[.A.[.1.1.Z.Z.V.z.V.V.A w.'.w.9 2.1.<.<.<.<.>.,.>.>.>.>.-.,.1.oX=X>Xm.] f.W B 0 0 w.U k     ",
"  a `.#Xw.5.    B t.f.x.%.%. . . .V.V.Z.A.Z.z.2.V.V.V.v...7 P '.z.6.3.>.<.>.>.>.>.-.-.>.>.1.1.1.oXOXoX:.] ] ` C 5.  r.b L I p   ",
"  K '.].4.6.    M V d.d.' | |  . . . . . .V.V.z.v. ...g.A 0 U ].Y 0 v @.-.-.>.>.-.-.-.>.<.}.oXoX=XoX:.[ ] ] V 4.    r.8 L U H x ",
"x U `.).0 b       M t.s.d.' ( ( %.%. . . .|  .v.v.v. .| n 9 U '.Y 1 4 X.X.#.-.-.@.@.+.,.oXuX=XoX}.:.[ ] ] Q S       8.7 l K h p ",
"x k K _.j 7 9       m Q s.d.' / / ( } } } } } } }  .g.| n 5 I '.U < 4 X.X.X.X.X.#.X.#.,.=XMX=XF.=.[ ] ] W B 8.    c 9 9 h h 1 p ",
"  i , r j 9 - i       S Q s.d.` ( / / / } } } } } } } %.A 0 P `.I 2 4 X.X.X.X.X.#.+.,.}.oXoXS.=.] ] ] W S q.    f 5.N j 1 > > x ",
"  a u + : h j 1 k p     b t.s.s.d.` / / ! } ! ! ! } ! ! ~ N H U P > 4 X.X.X.#.O.,.1.}.}.S.=.[ ] ] d.Q Z     f 8.w.J H e : , a   ",
"      a = : 1 j H H k > 9 7 Z t.s.s.s._ ) / ! ! ! ! ! ! ~ v h L H = v X.O.1.Z.1.}.F.2.:.{ [ ] ] ` Z b c s 0 7.l.e.k , * u d     ",
"          s * < ; h P P q.M + 7 V s.s.s.` ` _ _ ! ! ! ! ~ 3 1 j j : v &.&.1.F.2.>.&.{ ] ] ] ] W G 3 6 7.l.T `.T w & q a         ",
"              s * * , e T T J l.5.- 8 t.t.t._ ) ) _ _ _ ! 3 > j g * n :.=.=.=.[ { _ _ _ ) B 7 - 6.l.w.e.`.I y > 6 d             ",
"                z u * % : < H Y T e.l.a.4.9 7 B ^ W E ) ) 3 & g g * n [ ' ' ) ) ) F N 7 7.a.l.l.w.z._.l , , u s                 ",
"                    x u , # $ $ t Y Y U Y e.w.l.w.9 2 - G - & r r # 3 F B 7 9 5 7.a.a.l.l.w.Y ).P < % $ p i                     ",
"                        a 2 , : & O w K _.I U U T R H 6 X X & 1 < * O 5 N m 6.w.e.T R P Y L < o + # 1 i z                       ",
"                            u u > 1 > # O 1 K P H j j < $ X # > > O @ - $ $ < h K P j ; o . O $ , u d                           ",
"                              d u g 1 1 : # X # > e q : % X + & * X o X # * O O o . O * * & + p a                               ",
"                                  d a a i & X . . o o . X o $ # O O . . X X X X + O * * ; i a                                   ",
"                                        d = * O O O O O + X * g e O O $ # # + X . X X O u                                       ",
"                                        z = > * & , 2 q 1 e 1 i < : e 1 1 < 6 9 9 * @ X s                                       ",
"                                      z u . O # & , < g H L U U I P K H t 1 9 9 5 @ O . : a                                     ",
"                                      u M 2 o O % * : 1 g L ).'.'.`._.K g w , * % o X * 0 J z                                   ",
"                                      p 7.9 % * * * & : : 1 j j k j q w > & * # * 2 - N b J                                     ",
"                                      z r.b : , , < 1 e r r r 1 q g e t j h h g 9 N N 7 9 s                                     ",
"                                          c 0 & ; > e j K I _.).).)._._.I K J N 9 - * 6 a                                       ",
"                                            z 6 u p 1 1 e l _._.).).).U K e w i s u u                                           ",
"                                                  z a u 6 u i a a p p p u u u d                                                 "
};
