/* XPM */
static char *f6ddc72ab08b4cf78d2f8aa46a97faceJXhDojYHKwtOOcGZ[] = {
/* columns rows colors chars-per-pixel */
"64 64 244 2 ",
"   c #020202",
".  c #0B0103",
"X  c #010A03",
"o  c #0B0A04",
"O  c #02040A",
"+  c #0C030A",
"@  c #020B0B",
"#  c #0B0A0C",
"$  c #130103",
"%  c #1A0003",
"&  c #140904",
"*  c #13030A",
"=  c #1B030B",
"-  c #13090D",
";  c #1B0B0E",
":  c #1C0807",
">  c #011203",
",  c #01120C",
"<  c #031809",
"1  c #15110E",
"2  c #020512",
"3  c #0B0411",
"4  c #030C12",
"5  c #0B0C12",
"6  c #020D19",
"7  c #090B1A",
"8  c #070219",
"9  c #130513",
"0  c #1D0512",
"q  c #140C12",
"w  c #1A0B12",
"e  c #16081A",
"r  c #021313",
"t  c #0B1314",
"y  c #011A15",
"u  c #0C1A16",
"i  c #021519",
"p  c #0B141A",
"a  c #031C1B",
"s  c #0C1A1A",
"d  c #121314",
"f  c #1D1416",
"g  c #121B16",
"h  c #14151A",
"j  c #1B161A",
"k  c #131B1C",
"l  c #1B1B1C",
"z  c #1F1810",
"x  c #230006",
"c  c #2A0005",
"v  c #25020B",
"b  c #29020B",
"n  c #320009",
"m  c #260915",
"M  c #26141D",
"N  c #002115",
"B  c #01221C",
"V  c #0B221D",
"C  c #01291F",
"Z  c #0C281C",
"A  c #13221E",
"S  c #18211E",
"D  c #031D22",
"F  c #0D1D22",
"G  c #051522",
"H  c #141E21",
"J  c #1B1D22",
"K  c #131D29",
"L  c #151825",
"P  c #130F26",
"I  c #231924",
"U  c #2C1F33",
"Y  c #032422",
"T  c #0D2222",
"R  c #022B24",
"E  c #0B2B25",
"W  c #042D2B",
"Q  c #0D2C2A",
"!  c #032628",
"~  c #142323",
"^  c #1B2325",
"/  c #132B26",
"(  c #1A2A26",
")  c #142429",
"_  c #1B2528",
"`  c #152B2A",
"'  c #1C2B2B",
"]  c #013224",
"[  c #01352B",
"{  c #0D352C",
"}  c #00392C",
"|  c #083828",
" . c #14322D",
".. c #1B332E",
"X. c #163C2D",
"o. c #092E30",
"O. c #1D2D33",
"+. c #182A33",
"@. c #023432",
"#. c #0C3434",
"$. c #033B34",
"%. c #0D3B34",
"&. c #023D39",
"*. c #0B313E",
"=. c #133333",
"-. c #1C3432",
";. c #133C35",
":. c #1B3935",
">. c #1D363A",
",. c #133C3A",
"<. c #1D3C3B",
"1. c #11373A",
"2. c #222425",
"3. c #23262B",
"4. c #232B2C",
"5. c #2A2E2E",
"6. c #272527",
"7. c #36232F",
"8. c #22312F",
"9. c #242D32",
"0. c #2B2C32",
"q. c #2F2734",
"w. c #233333",
"e. c #2B3335",
"r. c #233936",
"t. c #2A3A36",
"y. c #2C353A",
"u. c #233B3B",
"i. c #2B3B3B",
"p. c #223738",
"a. c #313334",
"s. c #38353B",
"d. c #323B3C",
"f. c #383A3B",
"g. c #382634",
"h. c #472736",
"j. c #00442F",
"k. c #0B4035",
"l. c #0C443A",
"z. c #034B3B",
"x. c #0B4A3C",
"c. c #064437",
"v. c #15433D",
"b. c #1C443C",
"n. c #124D3E",
"m. c #1D4839",
"M. c #05523F",
"N. c #23413C",
"B. c #2B423C",
"V. c #254B3C",
"C. c #30433D",
"Z. c #003A40",
"A. c #163F45",
"S. c #253D42",
"D. c #2B3C41",
"F. c #2E3641",
"G. c #333F43",
"H. c #3B3E43",
"J. c #383946",
"K. c #463641",
"L. c #024B43",
"P. c #0C4C45",
"I. c #094747",
"U. c #194442",
"Y. c #1B4B42",
"T. c #154E4B",
"R. c #1C4D4A",
"E. c #144B42",
"W. c #035143",
"Q. c #005A40",
"!. c #05534D",
"~. c #0C544A",
"^. c #005C49",
"/. c #0C5846",
"(. c #1A5349",
"). c #175749",
"_. c #0B5D53",
"`. c #195554",
"'. c #254442",
"]. c #2C4343",
"[. c #234A44",
"{. c #2C4A43",
"}. c #2C434A",
"|. c #2C4B4B",
" X c #244A49",
".X c #344344",
"XX c #3B4444",
"oX c #344945",
"OX c #394847",
"+X c #354649",
"@X c #3E4749",
"#X c #334D4C",
"$X c #3B4C4B",
"%X c #2B534D",
"&X c #23564B",
"*X c #35544D",
"=X c #294D51",
"-X c #324E51",
";X c #3A4E51",
":X c #255553",
">X c #2B5452",
",X c #225A52",
"<X c #225A59",
"1X c #335552",
"2X c #3B5254",
"3X c #335954",
"4X c #335C59",
"5X c #3D595A",
"6X c #3C5757",
"7X c #046649",
"8X c #16644B",
"9X c #086B59",
"0X c #186558",
"qX c #067454",
"wX c #17745F",
"eX c #296258",
"rX c #37645B",
"tX c #1D6B63",
"yX c #097B66",
"uX c #137360",
"iX c #11796A",
"pX c #2D6A65",
"aX c #346764",
"sX c #2C7469",
"dX c #287966",
"fX c #3C766B",
"gX c #357A75",
"hX c #2C7D7E",
"jX c #46434D",
"kX c #434B4D",
"lX c #464C49",
"zX c #424A52",
"xX c #425352",
"cX c #46585B",
"vX c #54444E",
"bX c #44635E",
"nX c #4C6464",
"mX c #4C6F73",
"MX c #46787B",
"NX c #597275",
"BX c #018C6D",
"VX c #2A836F",
"CX c #398A83",
"ZX c #578C84",
/* pixels */
"    . . &   X         X X         .     o .   . .   .     X       .                     .         o   X               %   w     ",
"X X @     X               X   - X     @     X       X                   X   X     X         .   .   .   #             @   > X   ",
". $ . + L e O 9   O # q + j           +   * w M * * q #     O 5   e q + * = m m w + +   @   O O . # # h 5 h 2 O 3 8 * q x . % q ",
"1 X @ NX^._.aXz.>X X$.R.,.v.{ :.9Xz.[  X#XQ Y V.I s.d.a B U.l.] L.).y v.N.@ .XXX, ' @XQ k.W.~.R j.&XE *X .%X~.L.`.`.uX8X8XX # X ",
"X c O dXD @.9X4X~.,X2 # O K v.z.zXu.l./.} N J +   O O 6 i.cX'.y R.R.1.=.+.i   O v   } ;.J.q.u.~.).] X O 2 i [ tX!.gX&.D fX  ;   ",
"& o   Y hX>.O r O =.N `.I.[ ! O   @ +   O Y  X$.R U.v.{ a X   @ 5   O K -.y , U.,XY H @ , @ O * $ + u.{ %.-XP e 2 2 A.iX[ @ . o ",
"o   d W dX` $   * h @ 3X'.D 7 + . . . . + @ Q &.}.5X-.    + & . . . #   u -.! 4Xb.O +       % n *   ] 7XQ.).O # $ O G hXZ.O : X ",
"o c   M.k.$Xk   , xX..@ O >.-XG     > V y T F.7 O 2 5 y.@Xk       X   3.kX9.2   O T *X..  .     [ :.  #   y. .R . . aXZ.Z.0 % o ",
"% * < 7X  p +.&.2.O   X     # J 1Xr a ].`   . . .       k r.a < D }.y.O   O   X $   X ..~ Y a Y <.N   * ;   Z oX  jXa @ xX% X , ",
"      y., 2 K.uX                z.%X_   * ; @ X o     d X   y 6X5X>.2   .     .   - .   y rX2XF X @ # O       , VX;XO   W.y X % ",
"> $ . cXO e |.} x.X & = v ;   | H.@ y {...    $   d O     XX$X, Y a a r     . $ =     / ~ k i F N.O   +   . # ..z.w.  O (.X o % ",
"> c . !.2 S.R   ] B.  * * q B.N   @ @ s ' k X . 5     S t s ,     O ..#X' O   .   l f.8.r     + oX-.5 * $ k ' <   @ 6XD ;X= . + ",
"  c w &.gX1.O $ X   OXi   $Xh   u   o M . h +X/ O p G.0.      X +     S k s ~   4 h 3.t t   # +     r.r   oXs o O   -.W Y O     ",
"o : O 2 iXO . . .   y aX,.@ X %   M     t @ @ e.3.p ^ 4   X     X X . . . ^ 3XE.J 4 @   - . .   $ * , ,Xx.X   . $   @ ZXF   f   ",
"  . O +.7Xt ;   b   i P.@.i . v o X   ;     y :.cX' p   #     -   .   ; # O / R.! 6 . . -     $ . . X E.x.T . . b   u fX    % o ",
"=   O #.^./ %     ' K 8 P zX~ X     . $ . h -. .O p.D.@ O   * . % .   V ` a p O D S.3.* . : X   . , ..2 @ ;X> . X X  .M.Q @ $   ",
"O -   -.N 6.0 . a xX    + k ' r   #   X w.'         X ^ d.t   O $   X ;.m.V   $   2.d.  #   # . ~ +XS     d _ a + O :. .C..   5 ",
"  % t rX@ y.-.O a ~   - .   s #XJ   O w.d.k O +   f     ^ @X4.# @ ~ ^ r     o .       X d.4   6 ) H         s +XO >.r   4.X   O ",
"X $ X m.  5 R Y.J     . . w   h XXF i a @ O +   .     +   k @ @ { <.h   ;     X     @ p w.>.p.+.@   o         4.) |.5 O {.r . O ",
"- # , u.d   V dX. +       X   + ` ;XS.@       *     q   #     <.4XE   . = . o   &       @ D.-X!         o       -.]     v.4 = t ",
"    y r.O 0 0.[ r   X O   O   u i T ].u.@   5 .       . # g $X@ E ..i     . .   .     h p O r S.2.        o   0.{.%X3 O l.  M   ",
"X . @ ;.  7.y.  b.r . $ % d y W   @ @ t ^ #   - #   + O l lXu     X A t.X   - $ -   q s.0.    ) a.  q         H.  ~ h O v.@ x   ",
"  %   l.H q.r . V .X    .   XX/       O ^ 5.h   O     ^     d       @ w.t.@   q   # 4.6.+       O 4.d 4   O J   X   9.Y #.3 $ , ",
"  $   { ;.H   +   6.( X X ~ l   .   - o X 5.d.@ O   kXA   5   # . o   X 8.K @ O N / A           O 4.kX@ @ @X0.  o . ].P.Y $ = X ",
"X $ %   sXr % X %   ..R.,.!   %   +       O 7 O 2 D.T @ k     o . . # X   @ u.=.K._     - ; o       ' r i 9.      = O tXG 9 +   ",
"  . = @ rXr . X   X   2X;X        X     5     ' 3X-.4 O     d     z . . q i a rX~   - j       $   # O }.}.@ #   , % O 9X6 +   . ",
"d . . Y x.  +   X   k 2 5 J X X .     + X   4.G./ u.r   l o     X     .   O./ R , @     o . .   -   ' '.'.i.  - X c a tX2 *   . ",
"  . O v.n.p.O     f.XX  @ lXa.  .         @ y.r   @ , V y     $ . o     ' .X@     r.R X . % $ X   O ~   @ ' r     % F c.i . o : ",
"+ + @ B C +X  d   5.u   @ u (   X   d   3.^     # 5   / C.g   f +   k u y p     . y V.Z   : . X V ;XX .     XXy .   _ r r.  . . ",
"    , N.r a Y O -.X         @ u.k @   e.XX  q O       M 6.l r X   ~ 0.  .     X   #   l ~   #   :._   . .   _ r.X  .w.O i.# .   ",
"@ . X OX    4X<...@   & .     ~ ].@ T ~ t O   9   X . $ . # ..N a r.6.  * -   X X   =   Y v.6 J H       X   O 4.N :.r   ^ # + @ ",
"X     a.$ 2 R aX+ + O     + q O Q oXY O   2 w +   ; .   X   A $Xi.r   t     +   . ; +   a %X6XO O       X     O eXE     vX  X   ",
"    # jX    ' a         .     O ) D.' ~   #   .   X       @ A B.'   #       O       . O   :.` ( #   @     5   O bX' O G F.O O . ",
"  h   e.O @ zXF oX@ . ; o   O r y.u H .Xk O   + .       X ^ 8.r   s w.  # #     O t   _ ~   X ( r.  . @   . # -., r O 2 K p     ",
"+   O '   H O O ].a   . . o i.'       k 5 t O     .   X g s O   @   e.f.#   O   . O ~ B.g     t i.A   *     ( ( @ k .X2 F.4 5 . ",
"      ]./ p.  . O ` ` .   _ r.7   - +     3.~ O o   ^ i.k   O . +   # 2.h 4   @ + O -.'   +     # y r + . ~ B.d   O O.F 9.      ",
"  o   ` r.-.# *   k $Xr , ' 5 .   . . o   9.J.'     A 8.,   +     .     @ y.^ X ' 2.  # X   + $ . # .X` @ y @   .   a 2XO.O   . ",
".     r [.@   . O * _ (.&.  * + .     X     @ r ' u           . . o O     ~ d.p.b.t . . #   O $ o . # x.E.k &   %   @ 4Xa   . . ",
"  X   F rXX 5 %     2 >X>XO $     # .   5   O ' 6X` r #   . 1 o   -     O O t .XQ   #     +       - , v.Y.@   @ $   X 4XO #   & ",
"    q i b.E   . % , a O 0.u., =             g t.a >.9.# . . .   . #     h _ s   V -.p   * $ o X $   y @ w.*X> . %   { R.V   . % ",
"o   O a Y E.  . $ {.{ . 9 { > $ . .   X X 4.g X   + d l I       .     y oX` O O r r.(   .       9 ,.b..   R R 3 %   @.}.+.3 o o ",
"    O i.T w.q % , w.  5     ( X.  #   @ t.C.    w     / oX'   + #   @ ( ' @   + +   X ..,     . Y d.# o .   9.!   r W O >.O     ",
"  #   XXO # 5 r W . m @   m . X.d.  @ / ~     . * . X @ u w.#     i.y.X       # % - X C &Xa @ I R   %     0 + Y.y y.` O oX4 X q ",
"      B.    C 0X2.  5     l . @ V ` u.r X     .     $ .     4 Q '.' t . . . .     -   X Y -.<.,.X . .     . . 5 [ O.# * B.#     ",
"+   , {.X   <._.O       X       O ;X6XO @ #   .   o   . e   a {.'.a   + *     . g   . .   r U.@.. 1         # O pXF.    E   @ h ",
"O . X {.  $ K.> T   +   *     ..~ O 4.e.    5   * .       _ xX@ i ~ 4   # -       #     lXr r =X_     . . +   w.$.J 5   m.@     ",
"  $   '.i M h.  {.9.X   .   8.{.  5     e.4.  t + + X X y A d     O _ i.@   X o d   d lXg   # O A g   .     @ T @ 9 3.4 &X+ +   ",
"  ;   E.@.3.  X O ( r       w.  -     + g H.6.  O   e.OX        *   @ ..-.V       4.1 X . X   2   @Xr.    r..X    = G.Y l.. *   ",
"< .   7 pX+.  &   O |.=.o.u.  .     o   O p 4 r O p F.d # X +   .       @ 9.y.  r.w.k         .   X ' 2 2 p.@       I 4X>.  %   ",
"X % @ W 0XO +     # 6 D.D.O O       # X     @ i.nX) O         .     # ;     <.1X2.5     # o   o . .   :XrXO   O o   @ tXD 2 $ X ",
"  v O &.uXi + & .   u.E #.i.  = o       O @ ~ .X{  .5 - . - #   .     . h i.N.R V 8.d . . .     $   E } l.W O + $   a dXa   % X ",
"  +   S.L.x.@ %   i.p.  @ u.'     . X   t ` T i     # lX5.      .     @ u ~ @   y B.e.@   X   . 2 ].'     ` =.6   * 9.,.'.* v . ",
"X   + zX4 &.X.. [.y   $ q   , b.g     8.kX_     $ &   Z / V s     ^ C.' @     w . O r < { ,     [ .X$ b % $ -.&.> s.g.O |.# .   ",
"  X q 5X  O kXn.2.O     . . + d V.;.y ,     . = & . .   X @ '.%Xr a ~     -     - . O   ..[.R.} 2     z o     ~ 7Xi.+ O k.@   X ",
"% # O *X+ O G.).h   X     . . + a bXnXZ   @ ; .   X & =   O 1.&X-.a t O   #   o     . . 5 r.(.P.%   X X     u $ dX~   2 (.@ @   ",
"%     6X* p.p.y `.N   % $   / U.O O X 8.r., X X $ .   y Q ` K 7   3.xX'   X     &   r *XQ 6 O U V.u - . *   t.V.N 7.H.  eX$ & . ",
"o   2 S.<Xl.r . X N.{.O 6 ;.i.  $ =     u i.t.  X Y Y N.N.    *       O ^ G.~ O _ _ ..g   + : $   2.J.O L F e.    - 9.T.I.2 % & ",
"    O i MXQ   $   + ! 9XuXr 9 .       @ @ @ @ h fX&X4 . = .   X .   O O 6 u.[.[.uX}   $ x % . X -   =.I.pX[ 6 O x . o.CXW + . < ",
"  ; O =X!.L.i 0 * S.U.6 G W :.m   + O O k +X( X p D Y ,.;.r 5 # # O 5 p ) u.T @ ! 1.[ W N X   * y E ;.a ! #.,.o.= 2 L.9XI.+ % > ",
"$ . 3 NXo.~.yXBXyX@.+.2 2 p R qXc./.eXx.%.=.@ 4 O 2 i #.%.c.).`.b.|.5Xu.2 O 7 7 O 6 O >.rXP.Q.qX$.v.r 5 # O T.tXVXpX~.@.mXO   X ",
"<   X +X,XP.1.2 I.W =XK.K.'.N k.r r s ~ -.-.F ].G.9.3.9.~ R [ ] y a +.O.) 9.q.6.-.U.! / ;.r y E i D.e.H.f.w.}.*.a @.=XR.:X@ . c ",
"      # +   O @ + + O   O 3 . $ X , r     +   * +   O 2       + O       O 2 r @ . q .       X   2 O         O O O + 2 O     & . ",
"$ . +       % c   +       X + . $ . $ . * . .           . * $ . & . .           % .   +     $ = X   + . . .   X b %     #   . : ",
"    X   . z     X   X .   o   -       . X @ >                   .         X   . X   # X   o .     X     o         > X & .   @   "
};
