/* XPM */
static char *_1fec98865014141d4548de89cd013d5NL7cvIvlu7ozQarb[] = {
/* columns rows colors chars-per-pixel */
"64 64 71 1 ",
"  c #0F0D00",
". c #150F00",
"X c #151201",
"o c #1A1501",
"O c #1D1A03",
"+ c #1C170B",
"@ c #17180A",
"# c #1E1B0A",
"$ c #171614",
"% c #1A1710",
"& c #1E1C13",
"* c #1E1D1C",
"= c #211C03",
"- c #221D0B",
"; c #221E15",
": c #221E19",
"> c #1F2010",
", c #252003",
"< c #24210D",
"1 c #2D270D",
"2 c #252214",
"3 c #292516",
"4 c #2F2815",
"5 c #23221B",
"6 c #2A261A",
"7 c #2C291A",
"8 c #322F1C",
"9 c #1E1E21",
"0 c #211F20",
"q c #232323",
"w c #282627",
"e c #2C2B25",
"r c #252529",
"t c #292729",
"y c #27282B",
"u c #2B2A2B",
"i c #2F302A",
"p c #323021",
"a c #383522",
"s c #34332D",
"d c #3A362D",
"f c #3B392D",
"g c #2E2D31",
"h c #312F33",
"j c #2F3032",
"k c #353535",
"l c #393735",
"z c #3D3B34",
"x c #36353A",
"c c #393738",
"v c #3B3B3C",
"b c #403E2C",
"n c #413E34",
"m c #423E3B",
"M c #3E403D",
"N c #414035",
"B c #44413D",
"V c #3D3D41",
"C c #423F40",
"Z c #3F4141",
"A c #444444",
"S c #484645",
"D c #474844",
"F c #494A46",
"G c #464549",
"H c #49474A",
"J c #474949",
"K c #4A4A4B",
"L c #4C4C50",
"P c #514D52",
"I c #505050",
/* pixels */
"vvkkvvVvVvVvxxkvxCxxGCVGASCnOOOOoooooo=.ooooo..oo.=oXXXX&$jkgkkk",
"vvvvvvvvvVVVkvVvvVxxGGAJJKCm>OO ;&;;;;;;-;;--;;;;=-=##XX5*kckcvc",
"kvvvccllvkvvckckccccvvcVvGCC#<NNlzmmmmnmBmMBmmmmmnnmMf3o**jccckk",
"kkvkkkllkkvvkkckkccckkkkAAAm@<MvADDGSSSSAAAJSCSAHCSCBM>X>0iccvkk",
"rrrw0qqqqrttqqrq0000rwwuwuAz#2wjADJJGJJJKKKKKKKKLHKHGM6O**0qqrrr",
"5::::::&::::>0::::0:::0:27NdO#&uDJKLPKIKKKKKKIKJLHKJSv7o;:::0::2",
";-%--++O-+--+;&+;-;-++-+;#3-O<&rcvAHKJFAKLKJJKKSSFKIKm3o+##&;#++",
"----=ooO=o---<-----;-;2----==o#wkvCKKLSAPKKAGJHJFSFKGm7=O#O#-#<2",
"BvMAzsO1cvlCcAcmmvvvAMmVMZvzo+:rkvAADGDJSSJJKKKFKKLLGB3=kMcvAvcA",
"AAAGBl+1ASAKSKAAAASGAAAABAAn=+:rkvAGGFAJAJSJKKIIIJLLGB7=AAAAJFJD",
"JAJSDz#<0hCSFJJKSKKKJJJSFKAN-=;0kvAAGAAJSSKJJKKKSSKLAA6OqqAJFAKJ",
"KAFDSn#-*hKPIKILKFIIKJKKFJAn--*rkcvAAAFAJKKKJKKKHJLKAB4OqqKKKKIP",
"KJJSSn#-quvvJKISJKKKJJJKFJAN-+;0kcvAAAAASSJJKKIIPKIKGA3Or0vcASAJ",
"IFJFBn#=0wcvKKIKJJKKJFKKKJJN-=;rkcvMZZAAAAAAJKKKKKLLGB3X*qkkJJAI",
"IKKSBn+=*wcvAAAJSJKKKKKJKKGM-#*rkkcvvZAAJAAASFSGKSKLAB3@$rcvAmmG",
"IKIJSn+-0whcvmASFFKKIKKJKKAN-#*rkkkvvMvAAAAASJJSHSKLJB3O>rucvAJA",
"KIKKFn#=9rxkMvZAAAJJJSJJKFGC=O>rkkvZvvvMAMvAAFJAKKLLGm6O*qkcZAAJ",
"KKKKSn#=>rxkkvMZJDJASAASIFGm==>qkcvvccMZvAvAAAGDKKKLSB7O*:kcvvAA",
"KKKKSzO=qrvkvkMZVBZAAAJKLKGC<=*5kcvvvvvvvvvAAAAJGSKLGB3O*qkvZvAJ",
"JKJSAf#=>rkkxvMZAvZvmAASKFGC=O*qjkvAZMvkvvvZvvAJJGKLGB3o9qcvZMAA",
"JJJASz#=9rkxvcMMMvMvVAJJLFGC,O>qkkkvvvvvvvAvvvZAAJKLGm4O9>kcvABZ",
"AAAABz#=9qkkxcvMkkkvvAKKKFGm-#*0kkkkkvvMvvvvvvvMAAKLGm3O9qkcvvZV",
"AAZABnOO9qkkkkvkccvcvvmvKJGm=O*0ikkkkckccvvcccccmAGLGm6O9qkkvvvA",
"CvvBAz#=>qkkkkxkkkkkkcccKAVA,O*>jkkvkkkkkkkckcccvVAKCC6X>9kkkcvv",
"vMccCn==0*0rqyrrryyrrryykhmf<+5*qqqrqqyrrqrrquqryxujSN;o99sklclk",
"vZVVCn+=&%;:&#>5>>>*&;2&*6Nb-.#2*>225*::;;&5&5;5*>&6mB<=00kkkkvv",
"yyqgCzXXooo-<o#o-=##------41=.=-<-=O.====-=<#o==>5<#23.o**9qqrrr",
"55*ymn-#oooo##<#--#-=---:;=O-----#++====X+O==#--X#-;+-==&>555;5;",
"#---3=X=O3bbndzfzzzznznznmnnnnzzNNMvda==dfdnzfNfNnNnzf;ooOo##=##",
"--<--=OO <BmSAADFFSGFSJJASSSSAGSMBAKmm<-AAAAFADAFBASDB7oo=OO-=-=",
"nfzznzNi--euHGLKJKKKGJKKKFSSKKKKKKHHAN-<ygCAKJKIKKFSDB6<dnlznlzn",
"JAKGCVLV=#;uPGKSLKLKKLLKIFIKKKPKFIHLSB;<0uHKIKKKKIJJBM2OVGVAGGGH",
"KKJKKSAcO-5tvCSKSKKKKKIKIIKIIKJFKJIKDB5-rqvZKKIKKKIKHA5=ugAADJKI",
"KIKKKJJvO#2qkvAGSJKJJFKKFKIKKKKKJFKKAB2#9qxMJKKIJJLHSB3=:wAJKKKJ",
"IIJKKKJv,O;rkvvAAJJJSJKIKIKIIKKKKKKKSm2=>qkvDJKKSKKLSA3O0qvZKKIK",
"KKAFKKAv=#:rkcVAAASSSJKKKKIKKIKKIKIKHB;-qqkvAJKKKJLHSB2OqqkcAKKI",
"IKSFKKJBOO>rkcvVAZAAAJJJKJFJKKKKHJKFSm5-qqcvASKKKKLHHC2O>qkvSJJF",
"KISJKJAvOO5qkkcvCBvVAJSSSSSJKKKFKKKKSm;=99xvASKKPKLLGA2O9qkvAAJA",
"KKJKIDAvO#5qkkvVVAAMAASSASSJFKKKKKKKHm:=>rcvAAJJKKKHGB3o9rcvVmSJ",
"JKKKKJDM=#;qkkVCvZmVvAAJJJSKKKIIKKIPSm:=0rvBAGFJKHKSSC3=0qcvZAAS",
"KFJKKKAm=#>qkkvxvAVAvMASAAJJJKKKKSKKSA;+:0kvAAASKKHHSN2O0qkkMZZA",
"JSSSKKAv=O5qkkxxvvMZAAAAAAJSSFKPKHKKSm3=0rkkvvAJAKHLHB3O90kxvMZZ",
"KFJKIKAvO#;rkcvVvvBABAAAAAASAFJJLKKKSm;=>rcvvAAJGKKHHC3O>qjxvvMv",
"JKKKKKACO#:qkkvvcvvZvVMVvAAJAGJALKPKSm;-9qcAAAAAKLLHGm3X99kkvcvA",
"FJSJKKAv=O>qxkxvvvvvvvZAvAAAZAJALKIKAm;=9qkccvAAKKKLGB6O>0kkcvMZ",
"AAGFKKAv=#5qkkvvvvvcccvZZAvvvAADKKIKAB;=qqkkvvAJDJHLGB3O9qkkccvZ",
"AAASKKAMO#*rkkvxMVMvcccvMvZvvADGGGKKAm3-9qkcZZAJJKKKGB2O99kkvvvv",
"vAAAJJAvO#;qxkvvvMvMvvccAvvAvAAZAAKJAm;=*qkkvZDAKKGGAB6O90kkMvvc",
"vZMZIFScO#rrkkMkvvvvvvMvZZvvMvZVvHZLKn<=0qkcvvAAGJKKGm6=**kvkVVv",
"lcMBKSAB=O>9xkkkkkxkkkkkvcvxkccvZGGHSz<o0qkcBAAAAJKLHm3O9*kkgccZ",
"lszmKABmOO>qkkMkcccccxcxkvxvkvvvvvLLGN3,qqkcVMAVAKKLHB3O9*kckvvV",
"vccVKSScOO>rxjxxkkkkkkkkkkkjlkkkcxGGAB;O9>kcvZAMAHHHSm3O**kkkkkk",
"wu9gxgAkO@*>ryryrwwrtrwwyeytwtwtyuxkAB@@90jvZvAZGAAGHC3o**qrrttt",
"*r5qqrAvO#&>>>99&22&;:>55>25:;*2*5:qNB--9qkxvMZvAGGHGB3o:;&;2525",
"#+-#@-p7O,@O>##>#<<##-<O###OO#O#<<#278Oo>qkvvvMvAJJKGm6=#=#=<-##",
"=.,===OOOOOOOOo@OooOOoOoOoOoooooXOOOooo@9qkkckvvAJKLHm3=XoXOOoOO",
"clccccccvkccvklccckccccckkff+-ljlzsssfoO99kkvvMZAALHJS2Oslizzkkz",
"JADAAADAADAAAAAAASDAAAAAFAvf=2NAADBDDB<=qqkvMvZZAGLLGB2,BDMDMAAF",
"JJJKJJKFDJJKFKJJFKKKKJJKJJBM#-dkMBADBB#or9kkvvvvCAKKGm3=esDDDDFF",
"IJKKKKKJKKKKKKKKKKKKKIKKKJDN-#5qAADKAN3O>qkkvvvkVAKGHB3O5qDFKKKK",
"IKJKJKPKKKKJKKKKKKJKKIIKKJAn-O5rcvBABz2o99kxvcvcmASGKC6Oq0MkDBAJ",
"KFSAAJKKDSAAADKKJSASKIKKSSAf-#5rkkAADB2#9qjxckccvVKGHz3Oq>vsMAAJ",
"JAAAAAKKJSGDAJKKJJJJFKKPKFFN2#&9ygkkAm;O9>yryyuuggvxAv6o*>kkAAMA",
"AVmAvAAASJFGDDAAAASFASKIKJFf-O%999qrvz;O0$099>**q$rrZB7X*rskMZvZ"
};
